<svg width="309" height="428" viewBox="0 0 309 428" fill="none" xmlns="http://www.w3.org/2000/svg">
    <rect width="309" height="427" fill="#EF476F"/>
    <path d="M136.266 216.151V243.679H172.946V216.366L136.266 216.151Z" fill="#C39A6C"/>
    <path d="M159.761 52.7358V20.7437C159.761 18.1238 157.637 16 155.017 16C152.397 16 150.273 18.1238 150.273 20.7437V52.7358C150.273 55.3557 152.397 57.4795 155.017 57.4795C157.637 57.4795 159.761 55.3557 159.761 52.7358Z" fill="#A87C50"/>
    <path d="M170.042 55.6361L173.308 23.8112C173.576 21.205 171.68 18.8754 169.074 18.608C166.467 18.3405 164.138 20.2364 163.87 22.8426L160.604 54.6674C160.336 57.2736 162.232 59.6032 164.839 59.8707C167.445 60.1382 169.774 58.2423 170.042 55.6361Z" fill="#A87C50"/>
    <path d="M182.219 59.6288L185.485 27.8039C185.752 25.1977 183.857 22.8681 181.25 22.6006C178.644 22.3332 176.315 24.229 176.047 26.8352L172.781 58.6601C172.513 61.2663 174.409 63.5959 177.015 63.8634C179.622 64.1309 181.951 62.235 182.219 59.6288Z" fill="#A87C50"/>
    <path d="M191.762 65.0958L198.014 33.7206C198.526 31.1512 196.859 28.6533 194.289 28.1413C191.72 27.6293 189.222 29.2971 188.71 31.8664L182.458 63.2416C181.946 65.811 183.613 68.3089 186.183 68.8209C188.752 69.3329 191.25 67.6651 191.762 65.0958Z" fill="#A87C50"/>
    <path d="M200.598 70.1484L208.77 39.2177C209.439 36.6847 207.929 34.0888 205.396 33.4196C202.863 32.7503 200.267 34.2612 199.598 36.7942L191.425 67.7248C190.756 70.2578 192.267 72.8537 194.8 73.5229C197.333 74.1922 199.929 72.6813 200.598 70.1484Z" fill="#A87C50"/>
    <path d="M149.069 53.8006L145.803 21.9758C145.535 19.3696 143.206 17.4737 140.599 17.7412C137.993 18.0086 136.097 20.3382 136.365 22.9444L139.631 54.7693C139.899 57.3755 142.228 59.2714 144.834 59.0039C147.441 58.7364 149.336 56.4068 149.069 53.8006Z" fill="#A87C50"/>
    <path d="M136.883 57.7831L133.617 25.9582C133.35 23.352 131.02 21.4561 128.414 21.7236C125.808 21.9911 123.912 24.3206 124.179 26.9268L127.446 58.7517C127.713 61.3579 130.043 63.2538 132.649 62.9863C135.255 62.7188 137.151 60.3893 136.883 57.7831Z" fill="#A87C50"/>
    <path d="M127.216 62.3663L120.964 30.9911C120.452 28.4217 117.954 26.7539 115.384 27.2659C112.815 27.778 111.147 30.2759 111.659 32.8453L117.912 64.2204C118.424 66.7898 120.921 68.4576 123.491 67.9456C126.06 67.4336 127.728 64.9356 127.216 62.3663Z" fill="#A87C50"/>
    <path d="M118.434 67.1855L110.116 36.1532C109.435 33.6119 106.823 32.104 104.281 32.7851C101.74 33.4663 100.232 36.0786 100.913 38.6199L109.231 69.6522C109.912 72.1935 112.525 73.7014 115.066 73.0202C117.607 72.3391 119.115 69.7267 118.434 67.1855Z" fill="#A87C50"/>
    <path d="M232.093 301.304V427.181H78.3984V301.304C78.4403 286.036 84.5237 271.404 95.3194 260.607C106.115 249.809 120.745 243.724 136.014 243.679H174.468C189.737 243.724 204.369 249.809 215.166 260.606C225.963 271.403 232.049 286.035 232.093 301.304Z" fill="#6E9887"/>
    <path d="M212.642 90.8158C210.223 83.7421 206.522 77.1739 201.726 71.4394L201.586 71.2806C201.268 70.8978 200.942 70.5149 200.605 70.1414C198.206 67.4277 195.568 64.9338 192.724 62.6897L192.285 62.3628C189.593 60.2771 186.721 58.4335 183.704 56.8534C183.321 56.6573 182.938 56.4612 182.546 56.2744C179.599 54.8138 176.527 53.62 173.366 52.7073C172.433 52.4178 171.396 52.1657 170.397 51.9416C167.308 51.2239 164.161 50.7802 160.994 50.6156C160.576 50.6156 160.156 50.5969 159.733 50.5596C159.182 50.5596 158.622 50.5596 158.061 50.5596H153C152.066 50.5596 151.133 50.5596 150.264 50.6343C149.76 50.6343 149.246 50.6343 148.742 50.7277C145.591 50.9674 142.467 51.4798 139.404 52.2591C138.405 52.5019 137.424 52.782 136.444 53.0902C133.289 54.0703 130.224 55.32 127.283 56.8254L126.256 57.367C123.246 58.9851 120.381 60.8597 117.693 62.9698L117.338 63.2499C114.557 65.4484 111.973 67.8856 109.616 70.5336L109.448 70.7204C109.289 70.9071 109.13 71.0845 108.981 71.2713C103.784 77.2934 99.8131 84.2717 97.2896 91.815C95.2521 97.8599 94.2113 104.196 94.208 110.575V161C94.208 186.923 112.184 209.801 136.276 216.169C140.679 217.331 145.215 217.918 149.769 217.916H160.228C164.508 217.919 168.773 217.399 172.928 216.365C197.43 210.296 215.817 187.203 215.817 160.982V109.987C215.823 103.465 214.75 96.9874 212.642 90.8158ZM126.303 103.665L109.494 90.7504C113.12 91.414 116.536 92.9315 119.459 95.1772C122.382 97.423 124.728 100.332 126.303 103.665Z" fill="#C39A6C"/>
    <path d="M207.049 71.3189V71.2722H113.22C112.081 71.0481 110.923 70.88 109.756 70.7586H109.438C108.075 70.6279 106.637 70.5625 105.283 70.5625C96.5163 70.5721 87.9692 73.3033 80.8215 78.3789C73.6739 83.4544 68.2784 90.624 65.3802 98.8974C62.482 107.171 62.224 116.14 64.6419 124.567C67.0597 132.993 72.0341 140.461 78.8782 145.939C85.7223 151.417 94.0983 154.635 102.85 155.148C111.601 155.662 120.296 153.446 127.734 148.806C135.172 144.166 140.985 137.331 144.372 129.245C147.759 121.159 148.552 112.221 146.641 103.666H164.112C162.055 112.153 162.67 121.068 165.874 129.192C169.078 137.316 174.714 144.251 182.011 149.049C189.309 153.846 197.91 156.272 206.638 155.993C215.367 155.714 223.796 152.745 230.772 147.492C237.748 142.239 242.93 134.958 245.61 126.646C248.289 118.334 248.334 109.398 245.739 101.059C243.144 92.7207 238.036 85.3878 231.113 80.0641C224.191 74.7404 215.792 71.686 207.067 71.3189H207.049ZM126.303 103.666L109.494 90.7513C113.12 91.4149 116.536 92.9324 119.458 95.1781C122.381 97.4238 124.727 100.333 126.303 103.666Z" fill="#19335E"/>
    <path d="M109.457 90.7505L126.265 103.665C124.69 100.332 122.344 97.423 119.421 95.1773C116.498 92.9315 113.083 91.4141 109.457 90.7505ZM109.457 90.7505L126.265 103.665C124.69 100.332 122.344 97.423 119.421 95.1773C116.498 92.9315 113.083 91.4141 109.457 90.7505Z" fill="#19335E"/>
    <path d="M205.284 136.153C218.135 136.153 228.554 125.734 228.554 112.882C228.554 100.03 218.135 89.6118 205.284 89.6118C192.432 89.6118 182.013 100.03 182.013 112.882C182.013 125.734 192.432 136.153 205.284 136.153Z" fill="white"/>
    <path d="M128.553 113.638C128.557 118.246 127.194 122.751 124.636 126.584C122.078 130.416 118.441 133.404 114.185 135.169C109.929 136.934 105.245 137.397 100.725 136.499C96.2059 135.601 92.0545 133.383 88.7963 130.125C85.5382 126.866 83.3197 122.715 82.4217 118.196C81.5237 113.676 81.9864 108.992 83.7515 104.736C85.5165 100.479 88.5044 96.8424 92.3371 94.2848C96.1698 91.7272 100.675 90.364 105.283 90.3677C106.683 90.3666 108.08 90.4948 109.457 90.7505C114.814 91.7293 119.659 94.5554 123.148 98.7372C126.638 102.919 128.55 108.192 128.553 113.638Z" fill="white"/>
    <path d="M185.45 166.613C185.226 184.355 171.508 198.698 154.634 198.698C137.761 198.698 124.015 184.374 123.819 166.613" stroke="#A60046" stroke-width="8" stroke-miterlimit="10"/>
    <path d="M112.156 303.21V427.182H98.5503V303.21C98.5552 301.952 99.0579 300.747 99.9484 299.858C100.839 298.969 102.045 298.469 103.303 298.466H107.412C108.669 298.469 109.875 298.969 110.764 299.858C111.653 300.748 112.153 301.953 112.156 303.21Z" fill="#EF476F"/>
    <path d="M211.073 303.21V427.182H197.477V303.21C197.48 301.953 197.98 300.748 198.869 299.858C199.758 298.969 200.963 298.469 202.221 298.466H206.33C207.587 298.469 208.792 298.969 209.681 299.858C210.57 300.748 211.071 301.953 211.073 303.21Z" fill="#EF476F"/>
</svg>
