<svg width="323" height="433" viewBox="0 0 323 433" fill="none" xmlns="http://www.w3.org/2000/svg">
    <rect x="9" y="5" width="309" height="427" fill="#EF476F"/>
    <path d="M145.266 221.151V248.679H181.946V221.366L145.266 221.151Z" fill="#C39A6C"/>
    <path d="M168.761 57.7358V25.7437C168.761 23.1238 166.637 21 164.017 21C161.397 21 159.273 23.1238 159.273 25.7437V57.7358C159.273 60.3557 161.397 62.4795 164.017 62.4795C166.637 62.4795 168.761 60.3557 168.761 57.7358Z" fill="#A87C50"/>
    <path d="M179.042 60.6361L182.308 28.8112C182.576 26.205 180.68 23.8754 178.074 23.608C175.467 23.3405 173.138 25.2364 172.87 27.8426L169.604 59.6674C169.336 62.2736 171.232 64.6032 173.839 64.8707C176.445 65.1382 178.774 63.2423 179.042 60.6361Z" fill="#A87C50"/>
    <path d="M191.219 64.6288L194.485 32.8039C194.752 30.1977 192.857 27.8681 190.25 27.6006C187.644 27.3332 185.315 29.229 185.047 31.8352L181.781 63.6601C181.513 66.2663 183.409 68.5959 186.015 68.8634C188.622 69.1309 190.951 67.235 191.219 64.6288Z" fill="#A87C50"/>
    <path d="M200.762 70.0958L207.014 38.7206C207.526 36.1512 205.859 33.6533 203.289 33.1413C200.72 32.6293 198.222 34.2971 197.71 36.8664L191.458 68.2416C190.946 70.811 192.613 73.3089 195.183 73.8209C197.752 74.3329 200.25 72.6651 200.762 70.0958Z" fill="#A87C50"/>
    <path d="M209.598 75.1484L217.77 44.2177C218.439 41.6847 216.929 39.0888 214.396 38.4196C211.863 37.7503 209.267 39.2612 208.598 41.7942L200.425 72.7248C199.756 75.2578 201.267 77.8537 203.8 78.5229C206.333 79.1922 208.929 77.6813 209.598 75.1484Z" fill="#A87C50"/>
    <path d="M158.069 58.8006L154.803 26.9758C154.535 24.3696 152.206 22.4737 149.599 22.7412C146.993 23.0086 145.097 25.3382 145.365 27.9444L148.631 59.7693C148.899 62.3755 151.228 64.2714 153.834 64.0039C156.441 63.7364 158.336 61.4068 158.069 58.8006Z" fill="#A87C50"/>
    <path d="M145.883 62.7831L142.617 30.9582C142.35 28.352 140.02 26.4561 137.414 26.7236C134.808 26.9911 132.912 29.3206 133.179 31.9268L136.446 63.7517C136.713 66.3579 139.043 68.2538 141.649 67.9863C144.255 67.7188 146.151 65.3893 145.883 62.7831Z" fill="#A87C50"/>
    <path d="M136.216 67.3663L129.964 35.9911C129.452 33.4217 126.954 31.7539 124.384 32.2659C121.815 32.778 120.147 35.2759 120.659 37.8453L126.912 69.2204C127.424 71.7898 129.921 73.4576 132.491 72.9456C135.06 72.4336 136.728 69.9356 136.216 67.3663Z" fill="#A87C50"/>
    <path d="M127.434 72.1855L119.116 41.1532C118.435 38.6119 115.823 37.104 113.281 37.7851C110.74 38.4663 109.232 41.0786 109.913 43.6199L118.231 74.6522C118.912 77.1935 121.525 78.7014 124.066 78.0202C126.607 77.3391 128.115 74.7267 127.434 72.1855Z" fill="#A87C50"/>
    <path d="M241.093 306.304V432.181H87.3984V306.304C87.4403 291.036 93.5237 276.404 104.319 265.607C115.115 254.809 129.745 248.724 145.014 248.679H183.468C198.737 248.724 213.369 254.809 224.166 265.606C234.963 276.403 241.049 291.035 241.093 306.304Z" fill="#6E9887"/>
    <path d="M221.642 95.8158C219.223 88.7421 215.522 82.1739 210.726 76.4394L210.586 76.2806C210.268 75.8978 209.942 75.5149 209.605 75.1414C207.206 72.4277 204.568 69.9338 201.724 67.6897L201.285 67.3628C198.593 65.2771 195.721 63.4335 192.704 61.8534C192.321 61.6573 191.938 61.4612 191.546 61.2744C188.599 59.8138 185.527 58.62 182.366 57.7073C181.433 57.4178 180.396 57.1657 179.397 56.9416C176.308 56.2239 173.161 55.7802 169.994 55.6156C169.576 55.6156 169.156 55.5969 168.733 55.5596C168.182 55.5596 167.622 55.5596 167.061 55.5596H162C161.066 55.5596 160.133 55.5596 159.264 55.6343C158.76 55.6343 158.246 55.6343 157.742 55.7277C154.591 55.9674 151.467 56.4798 148.404 57.2591C147.405 57.5019 146.424 57.782 145.444 58.0902C142.289 59.0703 139.224 60.32 136.283 61.8254L135.256 62.367C132.246 63.9851 129.381 65.8597 126.693 67.9698L126.338 68.2499C123.557 70.4484 120.973 72.8856 118.616 75.5336L118.448 75.7204C118.289 75.9071 118.13 76.0845 117.981 76.2713C112.784 82.2934 108.813 89.2717 106.29 96.815C104.252 102.86 103.211 109.196 103.208 115.575V166C103.208 191.923 121.184 214.801 145.276 221.169C149.679 222.331 154.215 222.918 158.769 222.916H169.228C173.508 222.919 177.773 222.399 181.928 221.365C206.43 215.296 224.817 192.203 224.817 165.982V114.987C224.823 108.465 223.75 101.987 221.642 95.8158ZM135.303 108.665L118.494 95.7504C122.12 96.414 125.536 97.9315 128.459 100.177C131.382 102.423 133.728 105.332 135.303 108.665Z" fill="#C39A6C"/>
    <path d="M216.049 76.3189V76.2722H122.22C121.081 76.0481 119.923 75.88 118.756 75.7586H118.438C117.075 75.6279 115.637 75.5625 114.283 75.5625C105.516 75.5721 96.9692 78.3033 89.8215 83.3789C82.6739 88.4544 77.2784 95.624 74.3802 103.897C71.482 112.171 71.224 121.14 73.6419 129.567C76.0597 137.993 81.0341 145.461 87.8782 150.939C94.7223 156.417 103.098 159.635 111.85 160.148C120.601 160.662 129.296 158.446 136.734 153.806C144.172 149.166 149.985 142.331 153.372 134.245C156.759 126.159 157.552 117.221 155.641 108.666H173.112C171.055 117.153 171.67 126.068 174.874 134.192C178.078 142.316 183.714 149.251 191.011 154.049C198.309 158.846 206.91 161.272 215.638 160.993C224.367 160.714 232.796 157.745 239.772 152.492C246.748 147.239 251.93 139.958 254.61 131.646C257.289 123.334 257.334 114.398 254.739 106.059C252.144 97.7207 247.036 90.3878 240.113 85.0641C233.191 79.7404 224.792 76.686 216.067 76.3189H216.049ZM135.303 108.666L118.494 95.7513C122.12 96.4149 125.536 97.9324 128.458 100.178C131.381 102.424 133.727 105.333 135.303 108.666Z" fill="#19335E"/>
    <path d="M118.457 95.7505L135.265 108.665C133.69 105.332 131.344 102.423 128.421 100.177C125.498 97.9315 122.083 96.4141 118.457 95.7505ZM118.457 95.7505L135.265 108.665C133.69 105.332 131.344 102.423 128.421 100.177C125.498 97.9315 122.083 96.4141 118.457 95.7505Z" fill="#19335E"/>
    <path d="M214.284 141.153C227.135 141.153 237.554 130.734 237.554 117.882C237.554 105.03 227.135 94.6118 214.284 94.6118C201.432 94.6118 191.013 105.03 191.013 117.882C191.013 130.734 201.432 141.153 214.284 141.153Z" fill="white"/>
    <path d="M137.553 118.638C137.557 123.246 136.194 127.751 133.636 131.584C131.078 135.416 127.441 138.404 123.185 140.169C118.929 141.934 114.245 142.397 109.725 141.499C105.206 140.601 101.054 138.383 97.7963 135.125C94.5382 131.866 92.3197 127.715 91.4217 123.196C90.5237 118.676 90.9864 113.992 92.7515 109.736C94.5165 105.479 97.5044 101.842 101.337 99.2848C105.17 96.7272 109.675 95.364 114.283 95.3677C115.683 95.3666 117.08 95.4948 118.457 95.7505C123.814 96.7293 128.659 99.5554 132.148 103.737C135.638 107.919 137.55 113.192 137.553 118.638Z" fill="white"/>
    <path d="M194.45 171.613C194.226 189.355 180.508 203.698 163.634 203.698C146.761 203.698 133.015 189.374 132.819 171.613" stroke="#A60046" stroke-width="8" stroke-miterlimit="10"/>
    <path d="M121.156 308.21V432.182H107.55V308.21C107.555 306.952 108.058 305.747 108.948 304.858C109.839 303.969 111.045 303.469 112.303 303.466H116.412C117.669 303.469 118.875 303.969 119.764 304.858C120.653 305.748 121.153 306.953 121.156 308.21Z" fill="#EF476F"/>
    <path d="M220.073 308.21V432.182H206.477V308.21C206.48 306.953 206.98 305.748 207.869 304.858C208.758 303.969 209.963 303.469 211.221 303.466H215.33C216.587 303.469 217.792 303.969 218.681 304.858C219.57 305.748 220.071 306.953 220.073 308.21Z" fill="#EF476F"/>
    <path d="M19.808 419H0.656V384.728H19.808V388.52H4.976V399.224H18.944V402.968H4.976V415.208H19.808V419ZM27.3279 419V384.728H31.6479V415.16H46.6239V419H27.3279ZM74.0038 419L69.8758 408.392H56.2918L52.2118 419H47.8438L61.2358 384.584H65.1238L78.4678 419H74.0038ZM64.7398 394.184C64.6438 393.928 64.4838 393.464 64.2598 392.792C64.0358 392.12 63.8118 391.432 63.5878 390.728C63.3958 389.992 63.2358 389.432 63.1078 389.048C62.8838 390.04 62.6278 391.016 62.3398 391.976C62.0518 392.904 61.8118 393.64 61.6198 394.184L57.7318 404.552H68.5798L64.7398 394.184ZM110.612 401.528C110.612 407.32 109.028 411.688 105.86 414.632C102.724 417.544 98.34 419 92.708 419H83.156V384.728H93.716C97.172 384.728 100.164 385.368 102.692 386.648C105.22 387.928 107.172 389.816 108.548 392.312C109.924 394.776 110.612 397.848 110.612 401.528ZM106.052 401.672C106.052 397.096 104.916 393.752 102.644 391.64C100.404 389.496 97.22 388.424 93.092 388.424H87.476V415.304H92.132C101.412 415.304 106.052 410.76 106.052 401.672Z" fill="white"/>
    <path d="M310.5 15C310.5 13.6193 309.381 12.5 308 12.5H285.5C284.119 12.5 283 13.6193 283 15C283 16.3807 284.119 17.5 285.5 17.5H305.5V37.5C305.5 38.8807 306.619 40 308 40C309.381 40 310.5 38.8807 310.5 37.5V15ZM306.232 13.2322L284.232 35.2322L287.768 38.7678L309.768 16.7678L306.232 13.2322Z" fill="white"/>
</svg>
