<svg viewBox="0 0 1535 1569" fill="none" xmlns="http://www.w3.org/2000/svg">
    <circle cx="806.5" cy="798.092" r="525.5" stroke="#EF476F" stroke-width="120"/>
    <path d="M1073.48 1282.79L1069.61 1284.72L1069.19 1283.89L1050.52 1246.54L1054.38 1244.6L1052.16 1240.16L1036.51 1247.99L1038.73 1252.43L1043.88 1249.85L1052.29 1266.66L1036.45 1274.58L1039.09 1279.86L1054.93 1271.94L1062.56 1287.2L1047.43 1294.77L1044.43 1288.78L1039.6 1291.2L1045.21 1302.4L1075.67 1287.17L1073.48 1282.79Z" fill="white"/>
    <path d="M995.796 1319.53L991.653 1320.75L983.05 1291.69C982.138 1288.6 981.009 1286.06 979.665 1284.05C978.274 1282.06 976.866 1280.6 975.44 1279.67C974.027 1278.79 972.36 1278.23 970.439 1278C968.486 1277.83 966.699 1277.88 965.08 1278.16C963.46 1278.44 961.569 1278.9 959.406 1279.54C957.197 1280.19 955.337 1280.84 953.826 1281.49C952.316 1282.14 950.789 1283.06 949.244 1284.27C947.713 1285.53 946.595 1286.91 945.891 1288.42C945.2 1289.97 944.836 1291.96 944.8 1294.37C944.717 1296.8 945.133 1299.56 946.045 1302.64L954.648 1331.71L950.506 1332.93L951.896 1337.63L967.291 1333.07L965.902 1328.37L961.759 1329.6L953.258 1300.88C952.496 1298.3 952.161 1296.07 952.256 1294.19C952.317 1292.37 952.808 1290.9 953.727 1289.78C954.66 1288.7 955.683 1287.85 956.798 1287.22C957.913 1286.59 959.368 1286.01 961.163 1285.47C962.912 1284.96 964.426 1284.66 965.704 1284.58C966.937 1284.52 968.237 1284.68 969.606 1285.08C970.988 1285.52 972.224 1286.48 973.313 1287.96C974.369 1289.5 975.279 1291.56 976.041 1294.14L984.542 1322.86L980.4 1324.08L981.79 1328.78L997.185 1324.22L995.796 1319.53Z" fill="white"/>
    <path d="M892.835 1346.04L888.545 1346.55L883.491 1304.08L887.781 1303.57L887.202 1298.71L855.029 1302.54L856.535 1315.19L861.897 1314.55L861.081 1307.69L876.238 1305.89L881.181 1347.42L875.461 1348.1L876.04 1352.97L893.413 1350.9L892.835 1346.04Z" fill="white"/>
    <path d="M814.938 1353.13L810.619 1353.02L811.658 1310.27L815.977 1310.37L816.096 1305.48L783.706 1304.69L783.396 1317.43L788.794 1317.56L788.962 1310.65L804.222 1311.02L803.205 1352.84L797.447 1352.7L797.328 1357.6L814.819 1358.02L814.938 1353.13Z" fill="white"/>
    <path d="M699.338 1294.51L698.005 1299.52C696.237 1294.78 692.199 1291.57 685.89 1289.89C680.138 1288.36 675.683 1288.49 672.524 1290.28C669.306 1292.11 667.056 1295.43 665.772 1300.26C664.587 1304.71 664.75 1308.21 666.261 1310.74C667.712 1313.31 670.784 1315.77 675.476 1318.11L680.815 1320.72C684.016 1322.32 686.009 1323.8 686.792 1325.15C687.516 1326.53 687.539 1328.5 686.86 1331.05C686.058 1334.06 684.769 1336.11 682.995 1337.17C681.221 1338.24 678.479 1338.28 674.768 1337.29C667.903 1335.47 664.964 1331.48 665.953 1325.34L660.805 1323.97L657.158 1337.68L662.307 1339.05L663.491 1334.59C665.034 1338.88 668.797 1341.82 674.78 1343.41C680.347 1344.89 684.646 1344.69 687.678 1342.82C690.664 1340.93 692.792 1337.6 694.064 1332.82C695.248 1328.36 695.167 1324.84 693.821 1322.25C692.428 1319.64 689.426 1317.2 684.815 1314.93L679.266 1312.27C676.192 1310.75 674.229 1309.26 673.378 1307.79C672.481 1306.31 672.402 1304.18 673.143 1301.4C673.908 1298.52 675.298 1296.66 677.314 1295.8C679.329 1294.95 682.192 1295.01 685.903 1296C689.846 1297.05 692.585 1298.8 694.12 1301.24C695.642 1303.73 695.975 1306.78 695.118 1310.37L700.266 1311.74L704.487 1295.88L699.338 1294.51Z" fill="white"/>
    <path d="M624.92 1272.72L591.285 1257.46L586.019 1269.06L590.936 1271.29L593.792 1265L611.822 1273.18L604.413 1289.51L586.973 1281.59L584.533 1286.97L601.974 1294.88L594.922 1310.42L578.203 1302.83L580.97 1296.74L576.053 1294.51L570.875 1305.91L603.198 1320.58L605.222 1316.12L601.288 1314.34L618.962 1275.39L622.896 1277.18L624.92 1272.72Z" fill="white"/>
    <path d="M521.445 1275.13L517.881 1272.69L542.041 1237.4L545.606 1239.84L548.372 1235.8L535.361 1226.89L532.595 1230.93L535.922 1233.21L526.607 1246.81L522.092 1243.72C520.602 1242.59 519.603 1241.5 519.097 1240.45C518.591 1239.41 518.501 1238.01 518.829 1236.25L522.469 1218.07L513.973 1212.25L511.207 1216.29L514.95 1218.85L512.222 1232.78C511.823 1234.89 511.808 1236.65 512.177 1238.07C510.346 1237.51 508.665 1237.29 507.132 1237.41C505.6 1237.52 504.222 1238 503 1238.85C501.739 1239.68 500.663 1240.57 499.772 1241.53C498.854 1242.53 497.88 1243.78 496.85 1245.29C495.792 1246.83 494.977 1248.2 494.403 1249.37C493.763 1250.56 493.313 1251.94 493.054 1253.51C492.728 1255.09 492.797 1256.56 493.259 1257.93C493.655 1259.3 494.541 1260.81 495.919 1262.45C497.27 1264.13 499.113 1265.77 501.45 1267.37L515.115 1276.73L518.679 1279.17L521.445 1275.13ZM523.313 1251.63L512.29 1267.73L504.864 1262.64C501.814 1260.55 500.288 1258.49 500.287 1256.46C500.258 1254.46 501.152 1252.13 502.969 1249.48C503.837 1248.21 504.648 1247.2 505.403 1246.43C506.131 1245.71 507.004 1245.11 508.021 1244.65C509.039 1244.18 510.218 1244.12 511.559 1244.45C512.86 1244.76 514.302 1245.46 515.887 1246.54L523.313 1251.63Z" fill="white"/>
    <path d="M458.539 1166.34L414.624 1189.98L412.419 1187.81L408.982 1191.3L419.497 1201.66L422.933 1198.17L419.907 1195.19L457.175 1174.7L437.191 1212.22L434.216 1209.29L430.78 1212.77L441.294 1223.13L444.731 1219.64L442.525 1217.47L465.514 1173.21L458.539 1166.34Z" fill="white"/>
    <path d="M378.259 1149.6L375.376 1145.82L409.378 1119.88L412.261 1123.65L416.153 1120.68L405.89 1107.23L401.998 1110.2L404.88 1113.98L370.878 1139.92L367.996 1136.14L364.103 1139.11L374.366 1152.57L378.259 1149.6Z" fill="white"/>
    <path d="M322.377 1075.5L326.327 1073.27C324.359 1077.3 324.779 1081.8 327.588 1086.78C329.239 1089.7 331.011 1092.01 332.901 1093.7C334.792 1095.39 336.697 1096.52 338.617 1097.09C340.537 1097.66 342.743 1097.71 345.234 1097.24C347.725 1096.77 350.191 1096.01 352.631 1094.96C355.03 1093.94 357.859 1092.51 361.12 1090.67C363.46 1089.35 365.464 1088.16 367.131 1087.11C368.732 1086.04 370.328 1084.86 371.918 1083.58C373.508 1082.3 374.756 1081.04 375.662 1079.81C376.567 1078.58 377.315 1077.23 377.907 1075.73C378.474 1074.2 378.717 1072.63 378.637 1071.02C378.556 1069.41 378.208 1067.63 377.593 1065.66C376.978 1063.69 376.033 1061.58 374.759 1059.32C373.107 1056.4 371.404 1054.16 369.65 1052.61C367.854 1051.09 365.941 1050.24 363.912 1050.07C361.859 1049.85 359.899 1049.99 358.033 1050.49C356.143 1050.95 353.897 1051.81 351.295 1053.05L354.018 1058.46C357.349 1056.75 360.27 1056.06 362.78 1056.41C365.249 1056.78 367.486 1058.74 369.492 1062.29C370.672 1064.38 371.403 1066.31 371.686 1068.08C371.903 1069.84 371.809 1071.38 371.403 1072.71C370.973 1074 370.02 1075.34 368.542 1076.72C367.064 1078.11 365.546 1079.32 363.986 1080.37C362.403 1081.37 360.233 1082.65 357.474 1084.21C354.882 1085.67 352.673 1086.84 350.847 1087.7C348.955 1088.55 347.065 1089.2 345.175 1089.67C343.285 1090.13 341.656 1090.22 340.288 1089.94C338.855 1089.65 337.489 1088.99 336.191 1087.96C334.827 1086.91 333.602 1085.42 332.516 1083.5C330.534 1079.99 329.94 1076.93 330.733 1074.34C331.527 1071.74 333.662 1069.32 337.139 1067.08L334.555 1062.51L319.758 1070.86L322.377 1075.5Z" fill="white"/>
    <path d="M343.69 1002.07L331.212 967.304L319.217 971.61L321.041 976.692L327.547 974.357L334.236 992.993L317.362 999.05L310.892 981.024L305.335 983.019L311.806 1001.04L295.745 1006.81L289.542 989.529L295.844 987.267L294.02 982.184L282.229 986.417L294.221 1019.83L298.829 1018.17L297.369 1014.11L337.623 999.657L339.082 1003.72L343.69 1002.07Z" fill="white"/>
    <path d="M255.39 873.189L256.374 884.883L261.253 884.472L260.891 880.168L303.508 876.579L303.87 880.884L308.749 880.473L307.003 859.739C306.693 856.056 306.025 852.981 304.998 850.514C303.972 848.048 302.726 846.129 301.262 844.759C299.798 843.389 297.86 842.397 295.448 841.781C293.036 841.165 290.624 840.838 288.212 840.8C285.753 840.767 282.705 840.903 279.07 841.209C276.535 841.422 274.365 841.677 272.559 841.974C270.702 842.227 268.831 842.601 266.946 843.097C265.013 843.597 263.403 844.214 262.116 844.949C260.829 845.683 259.632 846.627 258.525 847.78C257.366 848.889 256.512 850.189 255.963 851.681C255.367 853.176 254.94 854.97 254.682 857.063C254.425 859.156 254.407 861.518 254.629 864.149L255.39 873.189ZM260.494 864.305C260.289 861.866 260.449 859.757 260.973 857.978C261.45 856.204 262.172 854.771 263.14 853.678C264.108 852.584 265.502 851.696 267.323 851.013C269.097 850.334 270.91 849.844 272.763 849.544C274.565 849.199 276.876 848.908 279.698 848.671C282.52 848.433 284.872 848.331 286.754 848.366C288.583 848.356 290.453 848.536 292.363 848.905C294.225 849.278 295.724 849.922 296.861 850.838C297.998 851.754 298.973 853.045 299.788 854.71C300.555 856.38 301.041 858.434 301.246 860.874L301.953 869.268L261.201 872.699L260.494 864.305Z" fill="white"/>
    <path d="M256.576 786.487L256.87 781.744L299.556 784.397L299.261 789.14L304.148 789.444L305.198 772.556L300.311 772.253L300.016 776.995L257.331 774.342L257.625 769.599L252.739 769.296L251.689 786.183L256.576 786.487Z" fill="white"/>
    <path d="M291.468 707.905L293.136 699.941L299.408 701.255C302.638 702.226 304.911 703.781 306.228 705.921C307.546 708.06 307.806 711.033 307.009 714.838C306.605 716.764 306.073 718.369 305.411 719.653C304.75 720.937 303.898 721.96 302.856 722.722C301.776 723.428 300.661 723.954 299.509 724.302C298.357 724.649 296.883 724.781 295.085 724.699C293.298 724.57 291.572 724.38 289.908 724.129C288.244 723.879 286.144 723.488 283.607 722.956C280.694 722.346 278.313 721.774 276.463 721.239C274.566 720.695 272.733 719.967 270.962 719.057C269.144 718.137 267.816 717.098 266.98 715.942C266.096 714.776 265.493 713.326 265.17 711.591C264.856 709.809 264.946 707.743 265.438 705.394C266.284 701.354 267.89 698.723 270.254 697.502C272.572 696.271 275.71 695.923 279.668 696.458L280.761 691.243L264.13 687.759L263.023 693.044L267.533 693.989C263.396 695.477 260.747 698.992 259.585 704.536C258.867 707.965 258.675 710.99 259.009 713.61C259.305 716.174 260.001 718.355 261.095 720.153C262.153 721.895 263.772 723.411 265.954 724.702C268.136 725.993 270.465 727.045 272.943 727.858C275.374 728.662 278.422 729.447 282.086 730.215C285.187 730.864 287.809 731.34 289.953 731.642C292.049 731.934 294.246 732.1 296.543 732.14C298.849 732.133 300.796 731.854 302.382 731.303C303.932 730.696 305.441 729.811 306.911 728.648C308.334 727.474 309.525 725.885 310.485 723.879C311.454 721.826 312.244 719.343 312.854 716.431C314.124 710.37 312.982 705.521 309.428 701.883L314.879 701.848L315.676 698.043L289.673 692.595L286.676 706.901L291.468 707.905Z" fill="white"/>
    <path d="M304.897 599.556L292.968 594.872L278.731 631.129L290.661 635.813L292.661 630.719L286.093 628.141L289.856 618.557L328.861 633.873L326.703 639.368L331.26 641.158L338.286 623.264L333.729 621.474L331.571 626.97L292.566 611.654L296.356 602.003L302.924 604.582L304.897 599.556Z" fill="white"/>
    <path d="M316.97 554.167L319.263 550.005L356.721 570.646L354.427 574.808L358.716 577.171L366.881 562.352L362.593 559.989L360.3 564.151L322.843 543.51L325.136 539.348L320.848 536.985L312.682 551.804L316.97 554.167Z" fill="white"/>
    <path d="M352.358 486.193L380.995 527.374L379 530.018L382.909 532.967L391.886 521.07L387.978 518.121L385.375 521.569L378.578 511.93L390.157 496.585L401.335 500.419L398.733 503.867L402.641 506.816L411.661 494.862L407.753 491.913L405.715 494.614L358.256 478.377L352.358 486.193ZM360.652 486.318L384.417 494.509L375.093 506.866L360.652 486.318Z" fill="white"/>
    <path d="M408.279 425.606L411.4 422.619L440.968 453.519L437.847 456.506L441.232 460.044L464.641 437.644L455.83 428.436L451.929 432.169L456.707 437.163L445.679 447.716L416.758 417.492L420.92 413.51L417.535 409.972L404.894 422.068L408.279 425.606Z" fill="white"/>
    <path d="M512.443 334.977L502.235 340.768L504.651 345.026L508.408 342.895L529.511 380.094L525.754 382.225L528.17 386.484L546.268 376.217C549.483 374.393 551.995 372.499 553.805 370.534C555.615 368.569 556.836 366.634 557.467 364.731C558.098 362.828 558.188 360.652 557.738 358.204C557.287 355.756 556.574 353.428 555.598 351.222C554.599 348.975 553.2 346.264 551.4 343.091C550.144 340.879 549.004 339.015 547.979 337.499C546.972 335.918 545.848 334.376 544.609 332.872C543.345 331.326 542.111 330.122 540.905 329.261C539.699 328.4 538.341 327.708 536.83 327.185C535.337 326.597 533.799 326.366 532.215 326.492C530.607 326.576 528.799 326.94 526.791 327.583C524.782 328.225 522.63 329.198 520.334 330.501L512.443 334.977ZM522.648 335.893C524.777 334.685 526.759 333.947 528.594 333.679C530.404 333.369 532.009 333.425 533.407 333.846C534.804 334.267 536.195 335.161 537.578 336.529C538.937 337.855 540.141 339.297 541.19 340.854C542.257 342.345 543.489 344.323 544.887 346.786C546.284 349.249 547.361 351.343 548.118 353.066C548.892 354.723 549.512 356.496 549.976 358.385C550.417 360.232 550.46 361.864 550.104 363.279C549.748 364.695 548.985 366.122 547.813 367.559C546.618 368.954 544.956 370.256 542.827 371.464L535.5 375.62L515.321 340.049L522.648 335.893Z" fill="white"/>
    <path d="M610.001 343.019L644.842 330.758L640.612 318.736L635.518 320.529L637.812 327.049L619.135 333.622L613.184 316.711L631.249 310.353L629.289 304.784L611.224 311.142L605.559 295.045L622.878 288.95L625.1 295.267L630.194 293.474L626.035 281.656L592.552 293.44L594.178 298.059L598.253 296.624L612.451 336.967L608.376 338.401L610.001 343.019Z" fill="white"/>
    <path d="M694.449 316.308L693.559 311.201C697.152 314.766 702.164 315.988 708.595 314.868C714.459 313.847 718.45 311.861 720.567 308.91C722.723 305.904 723.373 301.942 722.517 297.024C721.726 292.484 720.114 289.378 717.679 287.707C715.283 285.981 711.465 285.038 706.224 284.878L700.281 284.744C696.705 284.636 694.279 284.133 693.002 283.234C691.764 282.28 690.918 280.503 690.465 277.902C689.93 274.829 690.244 272.435 691.408 270.722C692.571 269.009 695.044 267.823 698.827 267.165C705.826 265.946 710.164 268.333 711.841 274.326L717.09 273.413L714.657 259.439L709.408 260.353L710.198 264.892C707.002 261.649 702.354 260.558 696.254 261.62C690.58 262.608 686.759 264.589 684.792 267.562C682.872 270.528 682.336 274.446 683.184 279.316C683.975 283.856 685.524 287.021 687.834 288.811C690.19 290.594 693.938 291.549 699.076 291.677L705.232 291.775C708.658 291.86 711.064 292.392 712.452 293.368C713.888 294.336 714.852 296.239 715.346 299.076C715.857 302.008 715.376 304.284 713.904 305.905C712.433 307.525 709.805 308.665 706.022 309.323C702.003 310.023 698.784 309.585 696.365 308.008C693.939 306.385 692.361 303.76 691.633 300.136L686.384 301.05L689.2 317.222L694.449 316.308Z" fill="white"/>
    <path d="M767.925 258.025L772.674 257.845L774.296 300.582L769.547 300.762L769.733 305.655L786.641 305.013L786.455 300.121L781.706 300.301L780.085 257.564L784.833 257.383L784.647 252.491L767.74 253.133L767.925 258.025Z" fill="white"/>
    <path d="M862.606 260.111L866.896 260.62L862.738 295.654L843.664 252.933L831.437 251.482L830.86 256.344L835.15 256.853L830.111 299.323L825.821 298.814L825.244 303.676L841.188 305.568L841.765 300.706L837.475 300.197L841.624 265.234L860.707 307.884L868.644 308.826L874.26 261.494L878.55 262.003L879.127 257.141L863.183 255.249L862.606 260.111Z" fill="white"/>
    <path d="M954.924 305.128L962.666 307.628L960.697 313.726C959.391 316.835 957.604 318.932 955.337 320.016C953.071 321.1 950.087 321.044 946.388 319.85C944.515 319.245 942.975 318.546 941.768 317.753C940.562 316.96 939.634 316.004 938.986 314.887C938.399 313.739 937.993 312.574 937.769 311.392C937.546 310.21 937.57 308.73 937.841 306.951C938.159 305.188 938.53 303.492 938.955 301.863C939.38 300.235 939.99 298.188 940.787 295.721C941.701 292.889 942.522 290.582 943.249 288.799C943.991 286.97 944.908 285.224 946 283.559C947.107 281.848 948.28 280.638 949.518 279.928C950.771 279.172 952.277 278.726 954.037 278.588C955.842 278.464 957.886 278.771 960.17 279.509C964.098 280.777 966.545 282.652 967.509 285.132C968.489 287.567 968.503 290.724 967.553 294.604L972.623 296.241L977.845 280.071L972.706 278.412L971.29 282.797C970.248 278.526 967.032 275.52 961.642 273.78C958.307 272.703 955.32 272.193 952.679 272.248C950.099 272.272 947.856 272.733 945.952 273.632C944.108 274.499 942.43 275.949 940.916 277.983C939.402 280.016 938.109 282.221 937.039 284.599C935.983 286.932 934.88 289.88 933.729 293.442C932.756 296.457 932.006 299.014 931.479 301.114C930.967 303.168 930.57 305.335 930.288 307.615C930.052 309.909 930.123 311.874 930.503 313.51C930.943 315.115 931.664 316.709 932.666 318.294C933.682 319.833 935.137 321.185 937.03 322.351C938.969 323.532 941.355 324.58 944.187 325.494C950.079 327.397 955.022 326.774 959.015 323.624L958.474 329.048L962.174 330.243L970.337 304.96L956.428 300.469L954.924 305.128Z" fill="white"/>
    <path d="M1090.55 331.687L1051.47 363.14L1048.7 361.335L1046.03 365.441L1058.53 373.562L1061.19 369.456L1057.57 367.103L1066.71 359.646L1082.83 370.121L1079.79 381.54L1076.17 379.186L1073.5 383.292L1086.06 391.452L1088.72 387.347L1085.89 385.503L1098.76 337.023L1090.55 331.687ZM1091 339.97L1084.5 364.25L1071.52 355.815L1091 339.97Z" fill="white"/>
    <path d="M1155.33 418.585L1161.24 424.174L1156.84 428.831C1154.33 431.075 1151.81 432.198 1149.3 432.201C1146.79 432.204 1144.12 430.87 1141.29 428.2C1139.86 426.848 1138.77 425.554 1138.02 424.319C1137.28 423.084 1136.85 421.823 1136.75 420.535C1136.71 419.246 1136.84 418.02 1137.15 416.857C1137.46 415.694 1138.12 414.368 1139.13 412.879C1140.17 411.424 1141.24 410.052 1142.32 408.766C1143.41 407.479 1144.84 405.893 1146.62 404.01C1148.66 401.847 1150.4 400.117 1151.82 398.821C1153.28 397.489 1154.86 396.307 1156.56 395.275C1158.29 394.207 1159.87 393.619 1161.3 393.511C1162.75 393.368 1164.3 393.613 1165.95 394.246C1167.64 394.912 1169.35 396.069 1171.09 397.717C1174.09 400.553 1175.49 403.298 1175.3 405.952C1175.13 408.571 1173.79 411.427 1171.26 414.52L1175.13 418.18L1186.8 405.831L1182.88 402.122L1179.71 405.471C1180.61 401.167 1179 397.07 1174.89 393.179C1172.34 390.772 1169.86 389.026 1167.46 387.939C1165.12 386.851 1162.89 386.302 1160.79 386.293C1158.75 386.283 1156.61 386.87 1154.37 388.053C1152.13 389.237 1150.01 390.672 1148.02 392.358C1146.07 394.009 1143.8 396.195 1141.23 398.916C1139.05 401.218 1137.28 403.203 1135.9 404.872C1134.55 406.506 1133.26 408.291 1132.02 410.227C1130.82 412.197 1130.04 414.001 1129.68 415.641C1129.39 417.279 1129.35 419.029 1129.57 420.89C1129.83 422.716 1130.56 424.563 1131.77 426.431C1133.01 428.331 1134.71 430.304 1136.87 432.348C1141.37 436.601 1146.1 438.165 1151.06 437.041L1148.24 441.704L1151.07 444.375L1169.32 425.067L1158.69 415.027L1155.33 418.585Z" fill="white"/>
    <path d="M1188.37 483.043L1210.36 512.722L1220.6 505.136L1217.39 500.797L1211.83 504.912L1200.05 489.002L1214.45 478.33L1225.85 493.719L1230.6 490.204L1219.2 474.815L1232.91 464.657L1243.84 479.41L1238.46 483.396L1241.67 487.735L1251.74 480.277L1230.61 451.756L1226.67 454.67L1229.24 458.141L1194.88 483.6L1192.31 480.129L1188.37 483.043Z" fill="white"/>
    <path d="M1294.86 560.882L1296.74 564.771L1264.98 580.118L1290.72 541.053L1285.37 529.967L1280.96 532.097L1282.84 535.986L1244.33 554.59L1242.45 550.7L1238.04 552.83L1245.02 567.287L1249.43 565.158L1247.55 561.268L1279.26 545.953L1253.57 584.986L1257.05 592.183L1299.97 571.449L1301.85 575.339L1306.26 573.209L1299.27 558.752L1294.86 560.882Z" fill="white"/>
    <path d="M1338.46 662.695L1334.07 663.872C1336.98 660.456 1337.7 655.99 1336.22 650.474C1335.34 647.229 1334.2 644.554 1332.79 642.447C1331.38 640.341 1329.82 638.773 1328.1 637.744C1326.38 636.714 1324.26 636.117 1321.73 635.952C1319.2 635.786 1316.62 635.907 1314 636.314C1311.42 636.708 1308.32 637.391 1304.71 638.362C1302.11 639.06 1299.87 639.71 1298 640.313C1296.18 640.95 1294.34 641.693 1292.48 642.54C1290.62 643.388 1289.1 644.294 1287.92 645.257C1286.74 646.221 1285.68 647.352 1284.73 648.649C1283.8 649.993 1283.17 651.453 1282.85 653.031C1282.53 654.608 1282.42 656.426 1282.53 658.485C1282.63 660.544 1283.02 662.826 1283.7 665.329C1284.57 668.574 1285.66 671.163 1286.98 673.096C1288.34 675.017 1289.98 676.315 1291.9 676.992C1293.83 677.715 1295.77 678.066 1297.7 678.043C1299.64 678.068 1302.03 677.799 1304.86 677.237L1303.57 671.321C1299.92 672.154 1296.92 672.09 1294.57 671.129C1292.27 670.157 1290.6 667.7 1289.54 663.76C1288.91 661.442 1288.69 659.391 1288.85 657.606C1289.08 655.856 1289.55 654.386 1290.28 653.198C1291.01 652.055 1292.27 650.997 1294.05 650.023C1295.82 649.049 1297.6 648.249 1299.37 647.625C1301.15 647.046 1303.57 646.346 1306.63 645.524C1309.5 644.752 1311.93 644.174 1313.92 643.79C1315.96 643.44 1317.96 643.277 1319.9 643.301C1321.85 643.326 1323.45 643.641 1324.7 644.248C1326.02 644.889 1327.18 645.87 1328.18 647.191C1329.24 648.547 1330.05 650.291 1330.63 652.423C1331.67 656.317 1331.49 659.423 1330.07 661.742C1328.66 664.06 1325.99 665.871 1322.06 667.173L1323.43 672.25L1339.84 667.841L1338.46 662.695Z" fill="white"/>
    <path d="M1300.21 736.47L1301.92 754.171L1306.8 753.7L1306.3 748.54L1319.56 747.257L1350.2 758.253L1350.54 761.693L1355.41 761.221L1354 746.673L1349.13 747.145L1349.49 750.871L1326.37 742.909L1347.54 730.662L1347.89 734.317L1352.76 733.845L1351.35 719.297L1346.48 719.769L1346.81 723.209L1318.84 739.876L1305.58 741.158L1305.08 735.998L1300.21 736.47Z" fill="white"/>
</svg>
