<svg viewBox="0 0 285 714" fill="none" xmlns="http://www.w3.org/2000/svg">
    <circle cx="-39" cy="357" r="264" stroke="#EF476F" stroke-width="120"/>
    <path d="M-7.95133 86.1345L-6.60668 82.9508C-5.83283 86.1246 -3.38965 88.4234 0.72286 89.8471C4.47251 91.1453 7.49372 91.2958 9.7865 90.2988C12.122 89.2827 13.9371 87.2418 15.232 84.1761C16.4272 81.3461 16.6273 79.067 15.8321 77.3388C15.0796 75.5916 13.2226 73.8336 10.2609 72.0649L6.88567 70.0855C4.86498 68.8791 3.65006 67.8165 3.24092 66.8977C2.87447 65.9599 3.03363 64.6803 3.7184 63.059C4.52768 61.1429 5.57889 59.8849 6.87202 59.2852C8.16516 58.6854 10.0213 58.8043 12.4404 59.6418C16.9158 61.1912 18.547 63.9353 17.334 67.8741L20.6905 69.0362L24.3696 60.3253L21.0131 59.1632L19.8179 61.9932C19.1561 59.1285 16.8748 57.0209 12.9739 55.6704C9.34524 54.4142 6.42364 54.315 4.20912 55.3729C2.02484 56.4413 0.291509 58.4937 -0.990884 61.53C-2.18612 64.3599 -2.44398 66.6528 -1.76444 68.4085C-1.05467 70.1748 0.757035 71.917 3.67068 73.6353L7.18199 75.6619C9.12442 76.8074 10.318 77.8795 10.7627 78.8782C11.2377 79.8874 11.1016 81.2763 10.3546 83.045C9.58268 84.8727 8.47811 86.0108 7.04089 86.4593C5.60367 86.9078 3.6755 86.7133 1.25637 85.8758C-1.31395 84.9859 -3.00913 83.7064 -3.82919 82.0371C-4.63679 80.3384 -4.59149 78.3436 -3.69328 76.0528L-7.04982 74.8908L-11.3079 84.9725L-7.95133 86.1345Z" fill="white"/>
    <path d="M20.7359 96.0523L43.074 106.413L47.2462 99.0124L43.9804 97.4976L41.7175 101.512L29.7429 95.9575L35.6124 85.546L47.1951 90.9184L49.128 87.4897L37.5453 82.1173L43.1319 72.2076L54.2357 77.3578L52.0434 81.2465L55.3092 82.7612L59.4108 75.4857L37.9436 65.5286L36.3407 68.3719L38.9533 69.5837L24.9514 94.4208L22.3388 93.209L20.7359 96.0523Z" fill="white"/>
    <path d="M71.1033 84.9825L73.5693 86.4703L56.7401 109.486L54.2742 107.998L52.3476 110.633L61.3484 116.063L63.275 113.428L60.9734 112.04L67.4614 103.167L70.5849 105.051C71.6157 105.748 72.3055 106.424 72.6543 107.082C73.003 107.739 73.0618 108.63 72.8306 109.757L70.267 121.444L76.1442 124.99L78.0707 122.355L75.4815 120.793L77.4038 111.846C77.685 110.489 77.6994 109.362 77.447 108.465C78.7148 108.784 79.8801 108.891 80.9428 108.788C82.0056 108.684 82.9615 108.349 83.8107 107.782C84.6872 107.231 85.4353 106.64 86.0548 106.009C86.6933 105.351 87.3714 104.532 88.0891 103.551C88.8258 102.543 89.3943 101.658 89.7947 100.894C90.2413 100.121 90.5562 99.2316 90.7392 98.2252C90.9685 97.2096 90.9244 96.2709 90.6068 95.4092C90.3355 94.5382 89.7241 93.5923 88.7725 92.5715C87.8399 91.5249 86.5653 90.5139 84.9487 89.5386L75.4958 83.8355L73.0299 82.3478L71.1033 84.9825ZM69.7563 100.028L77.4342 89.528L82.5716 92.6275C84.6814 93.9004 85.7345 95.1872 85.731 96.488C85.7464 97.763 85.1214 99.2659 83.8559 100.997C83.2515 101.823 82.6867 102.488 82.1616 102.99C81.6553 103.466 81.049 103.863 80.3424 104.182C79.6358 104.5 78.8182 104.565 77.8896 104.377C76.9883 104.205 75.9897 103.789 74.8937 103.128L69.7563 100.028Z" fill="white"/>
    <path d="M96.3651 139.268L125.756 121.951L127.393 123.209L129.614 120.817L121.811 114.823L119.589 117.214L121.835 118.939L96.9127 133.903L109.007 109.085L111.215 110.781L113.436 108.39L105.633 102.395L103.412 104.787L105.049 106.044L91.1883 135.291L96.3651 139.268Z" fill="white"/>
    <path d="M135.073 129.968L137.398 132.119L116.159 151.14L113.833 148.989L111.402 151.166L119.682 158.827L122.113 156.649L119.788 154.498L141.028 135.476L143.353 137.628L145.784 135.45L137.504 127.79L135.073 129.968Z" fill="white"/>
    <path d="M169.56 160.235L167.137 162.044C167.977 159.309 167.123 156.526 164.576 153.696C163.078 152.031 161.576 150.766 160.069 149.902C158.563 149.039 157.117 148.528 155.732 148.369C154.346 148.211 152.83 148.408 151.184 148.961C149.539 149.514 147.946 150.246 146.408 151.157C144.895 152.048 143.139 153.24 141.139 154.734C139.703 155.806 138.481 156.759 137.473 157.591C136.511 158.429 135.567 159.333 134.64 160.303C133.713 161.274 133.017 162.192 132.552 163.056C132.086 163.921 131.745 164.852 131.528 165.849C131.332 166.87 131.363 167.881 131.621 168.882C131.879 169.883 132.342 170.969 133.01 172.14C133.678 173.312 134.59 174.54 135.746 175.824C137.244 177.489 138.691 178.716 140.086 179.504C141.506 180.272 142.922 180.607 144.333 180.508C145.766 180.432 147.089 180.14 148.303 179.631C149.538 179.146 150.968 178.376 152.592 177.323L150.049 174.211C147.985 175.633 146.072 176.365 144.31 176.409C142.574 176.432 140.796 175.433 138.977 173.412C137.906 172.222 137.163 171.087 136.747 170.005C136.378 168.929 136.249 167.951 136.359 167.073C136.491 166.219 136.976 165.281 137.813 164.258C138.65 163.235 139.536 162.314 140.472 161.496C141.429 160.702 142.754 159.673 144.446 158.409C146.035 157.222 147.401 156.262 148.542 155.529C149.73 154.801 150.942 154.194 152.177 153.709C153.412 153.224 154.515 152.996 155.486 153.027C156.504 153.062 157.522 153.336 158.54 153.849C159.606 154.365 160.631 155.171 161.615 156.265C163.413 158.263 164.204 160.119 163.988 161.831C163.771 163.544 162.614 165.283 160.516 167.049L162.86 169.654L171.936 162.875L169.56 160.235Z" fill="white"/>
    <path d="M150.134 190.88L164.421 210.935L171.73 206.604L169.641 203.672L165.677 206.021L158.018 195.27L168.301 189.177L175.709 199.576L179.095 197.57L171.687 187.17L181.473 181.371L188.575 191.34L184.735 193.616L186.823 196.548L194.009 192.29L180.279 173.016L177.471 174.68L179.142 177.026L154.613 191.561L152.942 189.216L150.134 190.88Z" fill="white"/>
    <path d="M213.854 226.897L210.527 219.816L207.489 221.009L208.714 223.616L182.175 234.039L180.95 231.433L177.912 232.626L183.812 245.181C184.86 247.411 185.998 249.194 187.226 250.53C188.453 251.866 189.695 252.819 190.951 253.39C192.207 253.96 193.68 254.205 195.371 254.124C197.062 254.043 198.686 253.782 200.243 253.342C201.83 252.89 203.756 252.22 206.019 251.331C207.598 250.711 208.933 250.135 210.024 249.604C211.158 249.089 212.273 248.497 213.369 247.826C214.495 247.144 215.387 246.451 216.044 245.747C216.701 245.042 217.252 244.226 217.697 243.296C218.186 242.384 218.434 241.411 218.443 240.379C218.482 239.334 218.342 238.137 218.025 236.786C217.708 235.435 217.175 233.964 216.427 232.371L213.854 226.897ZM212.624 233.401C213.318 234.878 213.702 236.22 213.775 237.426C213.877 238.621 213.744 239.651 213.375 240.517C213.005 241.382 212.314 242.203 211.302 242.977C210.32 243.741 209.269 244.394 208.148 244.937C207.071 245.497 205.653 246.122 203.896 246.813C202.139 247.503 200.652 248.018 199.436 248.359C198.263 248.716 197.021 248.964 195.71 249.102C194.429 249.228 193.317 249.115 192.376 248.764C191.435 248.414 190.511 247.799 189.604 246.92C188.727 246.029 187.941 244.846 187.247 243.369L184.859 238.286L210.235 228.318L212.624 233.401Z" fill="white"/>
    <path d="M223.086 256.368L224.134 259.357L196.78 267.402L195.733 264.412L192.601 265.333L196.331 275.978L199.463 275.057L198.415 272.067L225.769 264.023L226.816 267.013L229.948 266.092L226.218 255.447L223.086 256.368Z" fill="white"/>
    <path d="M217.279 297.065L218.543 302.34L214.356 303.188C212.116 303.447 210.29 303.099 208.877 302.145C207.465 301.192 206.456 299.454 205.852 296.934C205.546 295.658 205.411 294.543 205.445 293.59C205.48 292.637 205.705 291.792 206.12 291.055C206.574 290.343 207.101 289.73 207.702 289.217C208.302 288.704 209.16 288.236 210.276 287.814C211.399 287.424 212.502 287.086 213.585 286.801C214.668 286.517 216.056 286.203 217.749 285.859C219.694 285.465 221.304 285.188 222.581 285.027C223.89 284.86 225.212 284.82 226.549 284.908C227.916 284.99 229.02 285.272 229.859 285.754C230.73 286.23 231.511 286.953 232.204 287.922C232.904 288.922 233.441 290.2 233.814 291.756C234.455 294.432 234.233 296.452 233.145 297.814C232.089 299.17 230.282 300.205 227.723 300.92L228.551 304.374L239.654 302.124L238.814 298.623L235.804 299.233C237.892 297.244 238.496 294.413 237.615 290.741C237.071 288.469 236.322 286.582 235.37 285.078C234.456 283.599 233.41 282.457 232.23 281.652C231.089 280.871 229.671 280.376 227.976 280.165C226.282 279.953 224.565 279.926 222.827 280.083C221.12 280.233 219.043 280.556 216.597 281.052C214.527 281.471 212.797 281.871 211.408 282.25C210.051 282.623 208.669 283.099 207.262 283.678C205.862 284.288 204.759 284.968 203.953 285.719C203.185 286.494 202.521 287.428 201.961 288.521C201.432 289.607 201.163 290.885 201.154 292.355C201.152 293.857 201.382 295.572 201.845 297.501C202.807 301.516 204.888 304.161 208.088 305.438L204.786 306.89L205.39 309.411L222.749 305.892L220.478 296.417L217.279 297.065Z" fill="white"/>
    <path d="M236.108 339.319L244.608 338.45L241.558 312.662L233.058 313.531L233.487 317.153L238.166 316.675L238.972 323.492L211.181 326.332L210.719 322.423L207.472 322.755L208.977 335.482L212.224 335.15L211.762 331.242L239.553 328.401L240.365 335.266L235.685 335.744L236.108 339.319Z" fill="white"/>
    <path d="M241.556 347.133L241.635 350.3L213.132 351.012L213.053 347.845L209.79 347.926L210.071 359.203L213.334 359.121L213.255 355.954L241.758 355.242L241.837 358.409L245.1 358.328L244.819 347.051L241.556 347.133Z" fill="white"/>
    <path d="M244.289 380.476L213.381 368.177L213.552 365.976L210.294 365.779L209.522 375.685L212.78 375.882L213.004 373.01L220.291 375.854L219.295 388.631L211.63 390.621L211.854 387.75L208.596 387.553L207.819 397.507L211.077 397.703L211.253 395.454L243.781 386.984L244.289 380.476ZM239.579 383.461L223.269 387.669L224.072 377.381L239.579 383.461Z" fill="white"/>
    <path d="M237.79 408.097L237.236 410.923L209.075 406.463L209.629 403.637L206.405 403.127L202.247 424.323L210.639 425.652L211.332 422.119L206.781 421.398L208.739 411.413L236.284 415.774L235.545 419.542L238.769 420.053L241.014 408.607L237.79 408.097Z" fill="white"/>
    <path d="M225.909 464.266L228.735 456.971L225.624 455.984L224.584 458.669L197.406 450.049L198.447 447.363L195.335 446.376L190.324 459.311C189.433 461.609 188.941 463.631 188.847 465.377C188.753 467.123 188.954 468.593 189.449 469.789C189.945 470.985 190.842 472.074 192.14 473.055C193.438 474.037 194.821 474.844 196.288 475.477C197.786 476.119 199.694 476.808 202.012 477.544C203.629 478.056 205.034 478.452 206.228 478.73C207.44 479.048 208.697 479.296 209.998 479.474C211.33 479.661 212.498 479.697 213.502 479.58C214.506 479.463 215.517 479.197 216.534 478.783C217.57 478.407 218.475 477.84 219.248 477.08C220.053 476.33 220.841 475.357 221.612 474.161C222.384 472.965 223.088 471.547 223.724 469.906L225.909 464.266ZM220.174 468.327C219.584 469.849 218.868 471.079 218.025 472.018C217.212 472.967 216.348 473.648 215.435 474.061C214.521 474.475 213.406 474.657 212.089 474.608C210.803 474.569 209.547 474.405 208.323 474.117C207.118 473.869 205.615 473.46 203.816 472.889C202.016 472.318 200.544 471.784 199.401 471.287C198.277 470.83 197.183 470.249 196.121 469.543C195.089 468.848 194.359 468.08 193.931 467.24C193.502 466.401 193.283 465.376 193.272 464.167C193.292 462.967 193.596 461.606 194.186 460.084L196.215 454.847L222.203 463.091L220.174 468.327Z" fill="white"/>
    <path d="M181.279 479.315L169.648 501.019L177.423 504.445L179.124 501.272L174.907 499.414L181.141 487.779L192.079 492.598L186.048 503.852L189.65 505.439L195.681 494.185L206.091 498.772L200.31 509.561L196.225 507.761L194.524 510.934L202.167 514.301L213.344 493.443L210.357 492.127L208.997 494.666L182.905 483.169L184.266 480.631L181.279 479.315Z" fill="white"/>
    <path d="M162.999 510.311L166.002 512.02C162.502 512.266 159.516 514.18 157.044 517.762C154.79 521.028 153.91 523.791 154.402 526.052C154.905 528.355 156.602 530.33 159.495 531.976C162.165 533.495 164.497 534.015 166.493 533.537C168.498 533.101 170.779 531.648 173.336 529.178L176.212 526.358C177.955 524.672 179.356 523.709 180.414 523.467C181.481 523.268 182.78 523.603 184.31 524.473C186.117 525.502 187.18 526.657 187.497 527.938C187.814 529.218 187.245 530.912 185.791 533.019C183.101 536.917 179.844 538.017 176.02 536.317L174.003 539.241L182.221 543.917L184.239 540.994L181.569 539.475C184.72 539.287 187.467 537.494 189.812 534.097C191.993 530.936 192.796 528.257 192.221 526.059C191.628 523.888 189.899 521.987 187.034 520.357C184.364 518.837 182.031 518.262 180.034 518.629C178.019 519.023 175.765 520.437 173.273 522.87L170.316 525.809C168.654 527.431 167.248 528.373 166.099 528.636C164.931 528.925 163.512 528.595 161.844 527.645C160.119 526.664 159.195 525.478 159.07 524.087C158.946 522.695 159.611 520.946 161.065 518.839C162.61 516.6 164.352 515.226 166.292 514.716C168.26 514.222 170.333 514.558 172.511 515.724L174.528 512.8L165.016 507.388L162.999 510.311Z" fill="white"/>
    <path d="M171.723 551.535L169.697 553.971L146.198 537.825L148.223 535.389L145.533 533.541L138.321 542.214L141.011 544.062L143.036 541.626L166.536 557.772L164.511 560.208L167.201 562.056L174.413 553.383L171.723 551.535Z" fill="white"/>
    <path d="M140.362 585.068L138.304 587.083L120.341 571.901L152.216 578.006L158.08 572.263L155.587 570.156L153.53 572.171L131.754 553.766L133.811 551.751L131.319 549.644L123.671 557.134L126.164 559.241L128.222 557.225L146.149 572.377L114.31 566.303L110.503 570.031L134.772 590.543L132.714 592.558L135.207 594.665L142.855 587.175L140.362 585.068Z" fill="white"/>
    <path d="M98.9385 596.85L94.6283 600.143L91.7347 597C90.3701 595.235 89.7808 593.56 89.9668 591.975C90.1528 590.389 91.2757 588.809 93.3354 587.236C94.378 586.439 95.3547 585.854 96.2656 585.479C97.1764 585.104 98.0812 584.934 98.9799 584.969C99.8749 585.047 100.713 585.229 101.495 585.513C102.277 585.798 103.146 586.318 104.1 587.072C105.029 587.846 105.898 588.626 106.708 589.411C107.517 590.196 108.507 591.224 109.678 592.495C111.022 593.955 112.089 595.185 112.879 596.185C113.692 597.208 114.392 598.298 114.979 599.453C115.588 600.632 115.876 601.675 115.845 602.581C115.835 603.511 115.549 604.471 114.988 605.461C114.401 606.471 113.472 607.461 112.201 608.432C110.014 610.103 108.01 610.772 106.188 610.44C104.387 610.131 102.511 609.058 100.56 607.22L97.7371 609.377L105.41 617.71L108.271 615.525L106.19 613.265C109.101 614.169 112.057 613.475 115.058 611.182C116.914 609.764 118.308 608.338 119.24 606.904C120.169 605.513 120.715 604.154 120.878 602.826C121.038 601.541 120.792 600.145 120.141 598.638C119.489 597.13 118.655 595.683 117.637 594.295C116.64 592.931 115.297 591.33 113.607 589.494C112.176 587.94 110.935 586.663 109.883 585.662C108.853 584.684 107.715 583.73 106.467 582.798C105.194 581.886 104.004 581.251 102.896 580.895C101.784 580.581 100.576 580.422 99.271 580.416C97.9879 580.434 96.655 580.75 95.2723 581.365C93.8642 582 92.3718 582.919 90.7952 584.124C87.5149 586.63 86.0782 589.492 86.4853 592.709L83.4691 590.563L81.4094 592.136L93.4062 605.167L101.149 599.251L98.9385 596.85Z" fill="white"/>
    <path d="M67.1158 640.907L59.266 609.219L61.2172 608.185L59.4654 605.431L50.6853 610.082L52.4371 612.837L54.982 611.488L56.88 618.93L45.5549 624.929L39.3729 619.757L41.9179 618.409L40.1661 615.655L31.3436 620.329L33.0954 623.083L35.0889 622.027L61.3472 643.963L67.1158 640.907ZM61.8357 638.668L48.702 627.648L57.8214 622.817L61.8357 638.668Z" fill="white"/>
    <path d="M15.9807 641.642L10.9387 643.641L9.10736 639.782C8.3256 637.687 8.25299 635.896 8.88952 634.407C9.52605 632.918 11.0491 631.695 13.4585 630.74C14.6781 630.256 15.7742 629.959 16.7465 629.848C17.7189 629.738 18.6261 629.824 19.4679 630.109C20.2937 630.434 21.036 630.844 21.6948 631.338C22.3535 631.833 23.0259 632.58 23.712 633.578C24.3682 634.589 24.9662 635.589 25.5058 636.577C26.0454 637.565 26.6856 638.84 27.4264 640.401C28.2769 642.194 28.9319 643.686 29.3913 644.878C29.8645 646.098 30.2119 647.352 30.4334 648.638C30.6686 649.953 30.6396 651.046 30.3465 651.918C30.067 652.819 29.5177 653.673 28.6983 654.478C27.8492 655.296 26.681 656 25.1937 656.589C22.6355 657.604 20.5409 657.696 18.9099 656.866C17.2926 656.064 15.8254 654.499 14.5084 652.17L11.2065 653.48L16.0626 663.714L19.4091 662.387L18.0922 659.612C20.59 661.3 23.594 661.449 27.1041 660.057C29.2756 659.196 31.0113 658.199 32.3112 657.065C33.5951 655.972 34.5072 654.803 35.0475 653.558C35.5719 652.354 35.7439 650.929 35.5638 649.283C35.3836 647.637 35.0123 645.998 34.45 644.366C33.9015 642.763 33.0922 640.834 32.0222 638.579C31.1169 636.671 30.3109 635.084 29.6044 633.818C28.9115 632.581 28.1089 631.337 27.1965 630.084C26.2543 628.843 25.3097 627.895 24.3627 627.24C23.3997 626.626 22.3005 626.135 21.0652 625.766C19.8436 625.426 18.488 625.362 16.9985 625.575C15.4793 625.799 13.7975 626.277 11.9532 627.009C8.11589 628.53 5.92328 630.911 5.37539 634.151L3.1388 631.225L0.729325 632.181L8.3221 648.183L17.3799 644.591L15.9807 641.642Z" fill="white"/>
    <path d="M-10.7767 635.626L-34.4938 642.248L-31.8144 650.31L-28.347 649.342L-29.8002 644.969L-17.0864 641.42L-13.3171 652.762L-25.6148 656.195L-24.3735 659.93L-12.0758 656.497L-8.48812 667.292L-20.2773 670.584L-21.6851 666.348L-25.1525 667.316L-22.5185 675.241L0.273861 668.878L-0.75551 665.781L-3.52943 666.555L-12.5213 639.498L-9.74737 638.724L-10.7767 635.626Z" fill="white"/>
</svg>
