<svg viewBox="0 0 61 69" fill="none" xmlns="http://www.w3.org/2000/svg">
    <rect x="1" y="1" width="59" height="65" rx="20" fill="#E5E5E5"/>
    <path fill-rule="evenodd" clip-rule="evenodd" d="M17.8864 0.204194C21.1317 0.0371262 22.1664 0 30.4332 0C38.6999 0 39.7346 0.0402201 42.9772 0.204194C46.2197 0.368169 48.433 0.946719 50.3696 1.78515C52.3976 2.64215 54.2374 3.98179 55.7591 5.71435C57.3084 7.41287 58.5036 9.46719 59.2672 11.7381C60.0197 13.9038 60.5343 16.3789 60.6837 19.9987C60.8331 23.6339 60.8663 24.791 60.8663 34.0324C60.8663 43.2768 60.8304 44.4339 60.6837 48.063C60.5371 51.6828 60.0197 54.1579 59.2672 56.3236C58.5036 58.5948 57.3064 60.6525 55.7591 62.3535C54.2374 64.0861 52.3976 65.4226 50.3696 66.2765C48.433 67.1181 46.2197 67.6935 42.9827 67.8606C39.7346 68.0277 38.6999 68.0648 30.4332 68.0648C22.1664 68.0648 21.1317 68.0246 17.8864 67.8606C14.6494 67.6966 12.4361 67.1181 10.4994 66.2765C8.4685 65.4225 6.6284 64.0838 5.10724 62.3535C3.55896 60.654 2.36082 58.5972 1.59636 56.3267C0.846595 54.161 0.331998 51.6859 0.182599 48.0661C0.0331998 44.4308 0 43.2737 0 34.0324C0 24.788 0.0359664 23.6309 0.182599 20.0049C0.329231 16.3789 0.846595 13.9038 1.59636 11.7381C2.36195 9.46744 3.56101 7.41075 5.11 5.71125C6.62901 3.98025 8.46726 2.64043 10.4967 1.78515C12.4333 0.946719 14.6467 0.371262 17.8836 0.204194H17.8864ZM42.7309 6.33002C39.5216 6.16605 38.5588 6.13202 30.4332 6.13202C22.3075 6.13202 21.3447 6.16605 18.1354 6.33002C15.1668 6.48162 13.5566 7.03542 12.4831 7.50259C11.0638 8.12137 10.0485 8.85461 8.98332 10.0457C7.97361 11.1442 7.19656 12.4815 6.70913 13.9595C6.29136 15.1599 5.79613 16.9605 5.66057 20.2802C5.51394 23.8691 5.4835 24.9457 5.4835 34.0324C5.4835 43.119 5.51394 44.1957 5.66057 47.7846C5.79613 51.1043 6.29136 52.9049 6.70913 54.1053C7.19606 55.5811 7.97349 56.9207 8.98332 58.019C9.96548 59.1483 11.1634 60.0177 12.4831 60.5622C13.5566 61.0294 15.1668 61.5832 18.1354 61.7348C21.3447 61.8987 22.3047 61.9328 30.4332 61.9328C38.5616 61.9328 39.5216 61.8987 42.7309 61.7348C45.6995 61.5832 47.3097 61.0294 48.3832 60.5622C49.8025 59.9434 50.8179 59.2102 51.883 58.019C52.8928 56.9207 53.6703 55.5811 54.1572 54.1053C54.575 52.9049 55.0702 51.1043 55.2058 47.7846C55.3524 44.1957 55.3828 43.119 55.3828 34.0324C55.3828 24.9457 55.3524 23.8691 55.2058 20.2802C55.0702 16.9605 54.575 15.1599 54.1572 13.9595C53.6039 12.3723 52.9482 11.2369 51.883 10.0457C50.9006 8.91671 49.7048 8.04777 48.3832 7.50259C47.3097 7.03542 45.6995 6.48162 42.7309 6.33002ZM26.546 44.5236C28.7169 45.5342 31.1342 45.6706 33.385 44.9095C35.6358 44.1485 37.5805 42.5371 38.887 40.3508C40.1934 38.1644 40.7806 35.5387 40.5482 32.922C40.3157 30.3053 39.2782 27.8601 37.6126 26.0038C36.5509 24.8173 35.2671 23.9087 33.8537 23.3436C32.4402 22.7784 30.9323 22.5708 29.4385 22.7355C27.9447 22.9003 26.5022 23.4334 25.2147 24.2964C23.9273 25.1595 22.8269 26.331 21.9929 27.7267C21.159 29.1223 20.6121 30.7074 20.3916 32.3678C20.1712 34.0282 20.2827 35.7225 20.7182 37.3289C21.1536 38.9353 21.9021 40.4138 22.9099 41.6579C23.9176 42.902 25.1594 43.8807 26.546 44.5236ZM19.3721 21.6632C20.8247 20.0388 22.5491 18.7503 24.447 17.8712C26.3448 16.9921 28.3789 16.5397 30.4332 16.5397C32.4874 16.5397 34.5215 16.9921 36.4194 17.8712C38.3172 18.7503 40.0417 20.0388 41.4942 21.6632C42.9468 23.2875 44.099 25.2159 44.8851 27.3382C45.6713 29.4605 46.0759 31.7352 46.0759 34.0324C46.0759 36.3296 45.6713 38.6043 44.8851 40.7266C44.099 42.8489 42.9468 44.7773 41.4942 46.4016C38.5607 49.6821 34.5819 51.5251 30.4332 51.5251C26.2845 51.5251 22.3057 49.6821 19.3721 46.4016C16.4385 43.1211 14.7904 38.6718 14.7904 34.0324C14.7904 29.393 16.4385 24.9437 19.3721 21.6632ZM49.5452 19.1448C49.9051 18.7651 50.1933 18.3084 50.3926 17.802C50.5919 17.2955 50.6984 16.7494 50.7056 16.1961C50.7128 15.6428 50.6206 15.0935 50.4346 14.5807C50.2486 14.068 49.9724 13.6022 49.6225 13.2109C49.2726 12.8196 48.8561 12.5108 48.3976 12.3028C47.939 12.0947 47.4478 11.9917 46.953 11.9998C46.4582 12.0078 45.9699 12.1268 45.517 12.3497C45.0641 12.5726 44.6558 12.8949 44.3162 13.2974C43.6558 14.0802 43.2943 15.12 43.3083 16.1961C43.3224 17.2722 43.7109 18.2998 44.3913 19.0607C45.0718 19.8217 45.9908 20.2562 46.953 20.2719C47.9153 20.2875 48.8451 19.8832 49.5452 19.1448Z" fill="black"/>
</svg>
