<svg viewBox="0 0 49 49" fill="none" xmlns="http://www.w3.org/2000/svg">
    <rect x="1" y="2" width="46" height="46" rx="13" fill="#E5E5E5"/>
    <path d="M35.3576 0.157208C37.8443 0.271542 39.5634 0.637 41.1518 1.25358C42.6579 1.8167 44.0214 2.70478 45.1453 3.85467C46.2952 4.97858 47.1833 6.34208 47.7464 7.84817C48.363 9.43863 48.7285 11.1557 48.8428 13.6424C48.9837 16.7253 49 17.8115 49 24.5C49 31.1885 48.9837 32.2747 48.8428 35.3576C48.7285 37.8443 48.363 39.5634 47.7464 41.1539C47.183 42.6592 46.295 44.022 45.1453 45.1453C44.0215 46.2953 42.658 47.1834 41.1518 47.7464C39.5614 48.363 37.8443 48.7285 35.3576 48.8428C32.2747 48.9837 31.1905 49 24.5 49C17.8095 49 16.7233 48.9837 13.6424 48.8428C11.1557 48.7285 9.43658 48.363 7.84613 47.7464C6.34073 47.1831 4.97794 46.295 3.85467 45.1453C2.70478 44.0214 1.8167 42.6579 1.25358 41.1518C0.637 39.5614 0.271542 37.8443 0.157208 35.3576C0.0163333 32.2788 0 31.1926 0 24.5C0 17.8095 0.0163333 16.7213 0.157208 13.6424C0.271542 11.1557 0.637 9.43658 1.25358 7.84817C1.8167 6.34208 2.70478 4.97858 3.85467 3.85467C4.97799 2.70503 6.34076 1.81696 7.84613 1.25358C9.43863 0.637 11.1557 0.271542 13.6424 0.157208C16.7213 0.0163333 17.8074 0 24.5 0C31.1905 0 32.2788 0.0163333 35.3576 0.157208V0.157208ZM24.5 5.44513C17.885 5.44513 16.8723 5.45942 13.8895 5.59621C11.9968 5.68196 10.8617 5.92288 9.81838 6.32917C8.93025 6.67625 8.36471 7.04375 7.70321 7.70321C7.04171 8.36471 6.67421 8.93025 6.32917 9.81838C5.92492 10.8596 5.68196 11.9968 5.59621 13.8895C5.45942 16.8723 5.44513 17.885 5.44513 24.5C5.44513 31.115 5.45942 32.1277 5.59621 35.1105C5.68196 37.0032 5.92288 38.1383 6.32917 39.1796C6.67625 40.0698 7.04375 40.6353 7.70321 41.2968C8.36471 41.9583 8.93025 42.3258 9.81838 42.6708C10.8596 43.0751 11.9968 43.318 13.8895 43.4038C16.8744 43.5406 17.887 43.5549 24.5 43.5549C31.115 43.5549 32.1256 43.5406 35.1105 43.4038C37.0032 43.318 38.1383 43.0771 39.1816 42.6708C40.0698 42.3238 40.6353 41.9563 41.2968 41.2968C41.9583 40.6353 42.3258 40.0698 42.6708 39.1816C43.0751 38.1404 43.318 37.0032 43.4038 35.1105C43.5406 32.1256 43.5549 31.113 43.5549 24.5C43.5549 17.887 43.5406 16.8744 43.4038 13.8895C43.318 11.9968 43.0771 10.8617 42.6708 9.82042C42.3821 9.01821 41.9119 8.29361 41.2968 7.70321C40.7064 7.08808 39.9818 6.61781 39.1796 6.32917C38.1383 5.92492 37.0011 5.68196 35.1085 5.59621C32.1256 5.45942 31.113 5.44513 24.498 5.44513H24.5ZM24.5 37.2033C21.1309 37.2033 17.8998 35.8649 15.5174 33.4826C13.1351 31.1002 11.7968 27.8691 11.7968 24.5C11.7968 21.1309 13.1351 17.8998 15.5174 15.5174C17.8998 13.1351 21.1309 11.7968 24.5 11.7968C27.8691 11.7968 31.1002 13.1351 33.4826 15.5174C35.8649 17.8998 37.2033 21.1309 37.2033 24.5C37.2033 27.8691 35.8649 31.1002 33.4826 33.4826C31.1002 35.8649 27.8691 37.2033 24.5 37.2033V37.2033ZM24.5 31.7602C26.4255 31.7602 28.2722 30.9953 29.6337 29.6337C30.9953 28.2722 31.7602 26.4255 31.7602 24.5C31.7602 22.5745 30.9953 20.7278 29.6337 19.3663C28.2722 18.0047 26.4255 17.2398 24.5 17.2398C22.5745 17.2398 20.7278 18.0047 19.3663 19.3663C18.0047 20.7278 17.2398 22.5745 17.2398 24.5C17.2398 26.4255 18.0047 28.2722 19.3663 29.6337C20.7278 30.9953 22.5745 31.7602 24.5 31.7602V31.7602ZM37.2033 14.5183C36.4812 14.5183 35.7887 14.2315 35.2781 13.7209C34.7675 13.2103 34.4807 12.5178 34.4807 11.7957C34.4807 11.0737 34.7675 10.3812 35.2781 9.87059C35.7887 9.36001 36.4812 9.07317 37.2033 9.07317C37.9253 9.07317 38.6178 9.36001 39.1284 9.87059C39.639 10.3812 39.9258 11.0737 39.9258 11.7957C39.9258 12.5178 39.639 13.2103 39.1284 13.7209C38.6178 14.2315 37.9253 14.5183 37.2033 14.5183Z" fill="black"/>
</svg>
