<svg viewBox="0 0 56 62" fill="none" xmlns="http://www.w3.org/2000/svg">
    <rect width="56" height="62" rx="2" fill="#E5E5E5"/>
    <path d="M53.76 0H2.24C1.001 0 0 1.10825 0 2.48V59.52C0 60.8918 1.001 62 2.24 62H53.76C54.999 62 56 60.8918 56 59.52V2.48C56 1.10825 54.999 0 53.76 0ZM16.611 52.8318H8.302V23.2422H16.611V52.8318ZM12.46 19.1968C11.5075 19.1968 10.5764 18.884 9.78437 18.2981C8.99239 17.7123 8.37511 16.8795 8.0106 15.9052C7.64608 14.9309 7.55071 13.8588 7.73654 12.8245C7.92236 11.7902 8.38104 10.8402 9.05457 10.0945C9.7281 9.34876 10.5862 8.84094 11.5204 8.6352C12.4547 8.42947 13.423 8.53506 14.303 8.93862C15.183 9.34219 15.9352 10.0256 16.4644 10.9024C16.9935 11.7793 17.276 12.8102 17.276 13.8647C17.269 16.8097 15.113 19.1968 12.46 19.1968ZM47.719 52.8318H39.417V38.44C39.417 35.0068 39.361 30.597 35.098 30.597C30.779 30.597 30.114 34.3325 30.114 38.192V52.8318H21.819V23.2422H29.785V27.2878H29.897C31.003 24.9628 33.712 22.506 37.758 22.506C46.172 22.506 47.719 28.6362 47.719 36.6032V52.8318V52.8318Z" fill="black"/>
</svg>
