<svg viewBox="0 0 79 79" fill="none" xmlns="http://www.w3.org/2000/svg">
    <path d="M76.5713 0.716436C75.9781 0.312648 75.29 0.0702605 74.5746 0.0131219C73.8593 -0.0440167 73.1414 0.0860621 72.4917 0.390561L2.36667 33.3906C1.64986 33.7283 1.0455 34.2654 0.625876 34.9376C0.206249 35.6098 -0.0108908 36.3886 0.000422014 37.1809C0.0117348 37.9733 0.251021 38.7456 0.689668 39.4055C1.12831 40.0654 1.74775 40.585 2.47392 40.9022L24.7489 50.6496L24.7489 78.3778L48.8224 61.1848L68.4739 69.7813C69.0806 70.047 69.7424 70.1627 70.4032 70.1187C71.0641 70.0746 71.7046 69.8721 72.2707 69.5281C72.8367 69.1842 73.3116 68.7091 73.6552 68.1428C73.9989 67.5766 74.2011 66.936 74.2448 66.2751L78.3698 4.40006C78.415 3.68284 78.273 2.96618 77.9577 2.3204C77.6424 1.67462 77.1646 1.12189 76.5713 0.716436ZM66.399 59.8689L44.6644 50.3567L57.7489 24.7528L26.1968 42.2841L14.1023 36.9917L69.6702 10.8392L66.399 59.8689Z" fill="black"/>
</svg>
