<svg viewBox="0 0 309 427" fill="none" xmlns="http://www.w3.org/2000/svg">
    <rect width="309" height="427" fill="#EF476F"/>
    <path d="M142.303 235.664C126.069 237.193 110.987 244.711 99.9921 256.751C88.9975 268.792 82.8782 284.494 82.8262 300.799V426.79H112.907V318.098C112.907 316.831 113.411 315.615 114.307 314.719C115.203 313.822 116.419 313.319 117.686 313.319C118.954 313.319 120.17 313.822 121.066 314.719C121.962 315.615 122.466 316.831 122.466 318.098V426.79H192.981V318.098C192.954 317.454 193.058 316.811 193.286 316.208C193.513 315.605 193.861 315.055 194.307 314.589C194.753 314.124 195.288 313.754 195.881 313.501C196.474 313.248 197.112 313.118 197.757 313.118C198.401 313.118 199.039 313.248 199.632 313.501C200.225 313.754 200.76 314.124 201.207 314.589C201.653 315.055 202 315.605 202.228 316.208C202.456 316.811 202.559 317.454 202.532 318.098V426.79H233.983V300.816C233.923 284.322 227.656 268.456 216.428 256.374C205.2 244.292 189.835 236.88 173.39 235.613L142.303 235.664Z"
          fill="#8B1C1C"/>
    <path d="M217.259 257.243V262.073H96.4028V261.032C101.892 253.868 108.802 247.915 116.701 243.548C124.6 239.181 133.316 236.493 142.302 235.655V218.119H173.39V235.613C190.261 236.873 205.987 244.626 217.259 257.243Z"
          fill="#FBC0A0"/>
    <path d="M217.259 111.178V162.297C217.209 175.42 212.906 188.174 204.998 198.647C197.089 209.119 185.999 216.747 173.39 220.386L142.302 220.919C129.221 217.639 117.607 210.092 109.294 199.473C100.982 188.853 96.4455 175.766 96.4028 162.28V111.178C96.591 95.2756 103.04 80.0881 114.352 68.9091C125.664 57.7301 140.927 51.4609 156.831 51.4609C172.735 51.4609 187.997 57.7301 199.309 68.9091C210.621 80.0881 217.071 95.2756 217.259 111.178Z"
          fill="#FBC0A0"/>
    <path d="M80 250.619V111.39C80.058 91.6783 87.9142 72.7907 101.852 58.8524C115.791 44.9141 134.678 37.058 154.39 37H159.313C179.025 37.058 197.912 44.9141 211.851 58.8524C225.789 72.7907 233.645 91.6783 233.703 111.39V250.619"
          stroke="#F48120" stroke-width="40" stroke-miterlimit="10"/>
    <path d="M80.313 229.945V289.033" stroke="#F48120" stroke-width="40" stroke-miterlimit="10" stroke-linecap="round"/>
    <path d="M233.982 227.864V291.613" stroke="#F48120" stroke-width="40" stroke-miterlimit="10"
          stroke-linecap="round"/>
    <path d="M189.039 68.8574H219.551V125.602H189.039C181.591 125.602 174.447 122.643 169.18 117.376C163.913 112.109 160.955 104.966 160.955 97.5171V96.9419C160.955 89.4934 163.913 82.35 169.18 77.0832C174.447 71.8163 181.591 68.8574 189.039 68.8574Z"
          fill="#9D1D22" stroke="white" stroke-width="10" stroke-miterlimit="10"/>
    <path d="M126.915 125.602L96.4024 125.602V68.8152H126.915C134.363 68.8152 141.506 71.7741 146.773 77.0409C152.04 82.3078 154.999 89.4511 154.999 96.8996V97.4748C154.999 104.923 152.04 112.067 146.773 117.334C141.506 122.6 134.363 125.559 126.915 125.559V125.602Z"
          fill="#9D1D22" stroke="white" stroke-width="10" stroke-miterlimit="10"/>
    <path d="M185.089 155.598C184.894 173.599 172.459 188.132 157.174 188.132C141.888 188.132 129.436 173.599 129.258 155.598"
          stroke="#ED1C24" stroke-width="13" stroke-miterlimit="10"/>
</svg>
