<svg viewBox="0 0 309 427" fill="none" xmlns="http://www.w3.org/2000/svg">
    <path d="M0 0H309V427H0V0Z" fill="#EF476F"/>
    <path d="M217.834 101.056L197.266 67.4409C197.837 67.9256 198.392 68.4259 198.939 68.9419C199.721 69.6845 200.549 70.4585 201.284 71.2871L207.398 78.5496C207.632 78.8545 207.851 79.1672 208.062 79.4799C208.727 80.4258 209.368 81.3951 209.97 82.3801C210.751 83.6778 211.533 84.999 212.252 86.3592C212.518 86.8596 212.768 87.3599 213.034 87.868C213.863 89.5488 214.597 91.2686 215.293 93.0275C215.567 93.7155 215.825 94.4191 216.075 95.1226C216.762 97.0693 217.349 99.0497 217.834 101.056Z" fill="#EFB5B5"/>
    <path d="M234 282.862V427H207.35V297.872C207.384 297.159 207.237 296.447 206.917 295.78C206.597 295.113 206.111 294.504 205.488 293.989C204.865 293.475 204.117 293.066 203.29 292.786C202.463 292.507 201.574 292.363 200.675 292.363C199.776 292.363 198.887 292.507 198.059 292.786C197.232 293.066 196.485 293.475 195.862 293.989C195.238 294.504 194.752 295.113 194.432 295.78C194.113 296.447 193.966 297.159 194 297.872V427H118.286V297.872C118.286 296.465 117.582 295.115 116.329 294.12C115.077 293.125 113.378 292.566 111.606 292.566C109.834 292.566 108.135 293.125 106.883 294.12C105.63 295.115 104.926 296.465 104.926 297.872V427H76V282.862C76.0598 266.735 84.1515 251.282 98.5077 239.879C112.864 228.475 132.318 222.047 152.621 222H157.379C177.682 222.047 197.136 228.475 211.492 239.879C225.849 251.282 233.94 266.735 234 282.862Z" fill="#231F20"/>
    <path d="M219.6 114.854V143.599C219.412 160.745 212.469 177.125 200.278 189.183C188.087 201.242 171.632 208.005 154.484 208.005C137.337 208.005 120.882 201.242 108.691 189.183C96.4996 177.125 89.5565 160.745 89.3687 143.599V114.854C89.3777 109.503 90.058 104.174 91.3934 98.9921C91.4872 98.6325 91.581 98.2807 91.6826 97.9211C92.437 95.1454 93.3853 92.4261 94.5204 89.7831L94.9191 88.8763C95.1536 88.3213 95.4116 87.7741 95.7008 87.2268C95.8493 86.9063 96.0057 86.5936 96.162 86.2809C96.5764 85.4522 97.0063 84.6392 97.4597 83.834C97.6239 83.5213 97.7959 83.2086 97.9757 82.9038C98.3509 82.2627 98.7574 81.6295 99.1327 81.0041C99.2812 80.7461 99.4454 80.4881 99.6095 80.2223C100.595 78.6589 101.642 77.2048 102.737 75.7664C102.948 75.485 103.167 75.2035 103.385 74.9299C103.925 74.242 104.48 73.5775 105.058 72.9208C105.067 72.8997 105.08 72.8809 105.097 72.8661L105.363 72.5612L105.574 72.3189C106.351 71.4433 107.151 70.5912 107.974 69.7626C108.092 69.6375 108.209 69.5124 108.334 69.3951C108.67 69.059 109.014 68.7307 109.358 68.4101L110.038 67.7769C111.044 66.8388 112.086 65.9424 113.165 65.0877L113.47 64.8375C114.291 64.1731 115.135 63.5242 115.995 62.9066C116.308 62.6721 116.628 62.4454 116.949 62.2187L117.394 61.9138L117.754 61.6637L117.887 61.5777L118.481 61.1868C119.044 60.8115 119.614 60.4519 120.193 60.1002C120.474 59.9204 120.764 59.7484 121.045 59.5842C121.991 59.0213 122.945 58.4897 123.922 57.9816L124.047 57.9113C125.089 57.3901 126.132 56.8689 127.174 56.3478L127.815 56.0663C128.308 55.8396 128.8 55.6364 129.3 55.4331L129.425 55.3784C130.364 54.9953 131.317 54.5966 132.279 54.2918L132.717 54.1354L133.186 53.9791L133.694 53.8149C133.96 53.7211 134.233 53.6351 134.476 53.5569C134.945 53.4058 135.414 53.2651 135.883 53.1348L136.477 52.9706C137.259 52.7361 138.111 52.525 138.947 52.3452L139.463 52.2201C141.027 51.8605 142.676 51.5557 144.31 51.3211L144.99 51.2273H145.123H145.303H145.373H145.701L146.397 51.1491C147.241 51.0475 148.101 50.9693 148.961 50.9146H149.477C149.806 50.9146 150.142 50.8677 150.478 50.8599H150.595C151.205 50.8599 151.815 50.8052 152.432 50.8052C152.492 50.8013 152.552 50.8013 152.612 50.8052C152.894 50.8052 153.191 50.8052 153.48 50.8052H155.293C155.856 50.8052 156.427 50.8052 156.99 50.8052C157.279 50.8052 157.576 50.8052 157.865 50.8052H158.608H158.718C159.57 50.8443 160.414 50.9146 161.258 50.9928H161.391C161.594 50.9928 161.79 50.9928 161.993 51.0475H162.259C163.267 51.1491 164.268 51.2898 165.261 51.4462C165.745 51.5166 166.222 51.6026 166.699 51.6885H166.746H166.863L167.059 51.7276L167.637 51.8371H167.708C169.521 52.1889 171.304 52.6188 173.055 53.1348H173.149L173.688 53.2989C173.962 53.3771 174.22 53.4553 174.47 53.5491C175.064 53.7367 175.658 53.9243 176.244 54.1276C176.831 54.3309 177.558 54.6045 178.207 54.8546L178.308 54.8937C178.574 54.9875 178.824 55.0892 179.09 55.2064C179.154 55.2264 179.216 55.2499 179.278 55.2768C180.012 55.5738 180.739 55.8865 181.459 56.2071L181.787 56.3634L182.569 56.7386L183.092 56.9888L184.359 57.622C185.422 58.1614 186.477 58.7399 187.486 59.3497L187.885 59.5842L188.119 59.7249L188.416 59.9047C189.042 60.28 189.651 60.6865 190.261 61.0695L190.433 61.1868C190.715 61.3666 190.988 61.5464 191.262 61.7418C192.502 62.5861 193.714 63.4773 194.897 64.4154C195.116 64.5796 195.327 64.7594 195.546 64.9392L195.624 65.0721L195.952 65.6115L196.21 66.0258L196.992 67.347L217.56 100.962L217.974 101.642L218.185 102.698C219.048 106.694 219.522 110.766 219.6 114.854Z" fill="#EFB5B5"/>
    <path d="M97.9446 84.0764C97.3113 85.1786 96.7016 86.3043 96.1309 87.4535C95.7009 88.3056 95.2866 89.1734 94.9114 90.0489C93.5912 92.9737 92.5038 95.998 91.6593 99.0938C90.0757 98.5669 88.6917 97.5672 87.6938 96.2294C86.6959 94.8917 86.1321 93.2802 86.0784 91.6121C86.0248 89.944 86.4838 88.2995 87.3936 86.9004C88.3034 85.5013 89.6203 84.4147 91.1668 83.7871C91.4437 83.6709 91.7285 83.5742 92.0189 83.4979C93.996 82.9321 96.1142 83.1389 97.9446 84.0764Z" fill="#C49A6C"/>
    <path d="M103.386 76.1182C102.027 77.8159 100.756 79.5824 99.5786 81.4107C99.0157 82.2862 98.4685 83.1774 97.9447 84.0764C97.3115 85.1787 96.7017 86.3044 96.1311 87.4536C95.7011 88.3057 95.2868 89.1734 94.9115 90.049C94.4152 89.7346 93.9563 89.3648 93.5435 88.9467C92.1688 87.5634 91.3365 85.7325 91.1982 83.7872C91.1982 83.5917 91.1982 83.3885 91.1982 83.1852C91.198 82.5853 91.2662 81.9873 91.4015 81.4028C91.7054 80.0756 92.3346 78.8448 93.2326 77.8213C94.1305 76.7978 95.269 76.0137 96.5454 75.5397C97.667 75.1221 98.8673 74.9588 100.06 75.0616C101.252 75.1643 102.407 75.5306 103.44 76.1339L103.386 76.1182Z" fill="#C49A6C"/>
    <path d="M105.934 73.8902C105.833 73.7495 105.731 73.6088 105.614 73.4681C106.494 72.4675 107.414 71.4929 108.373 70.5444C108.928 69.9893 109.499 69.4421 110.077 68.9262C109.318 68.2514 108.441 67.7215 107.49 67.3627C106.829 67.1221 106.141 66.9645 105.442 66.8936C105.184 66.8936 104.91 66.8936 104.66 66.8936C104.286 66.8921 103.912 66.9183 103.542 66.9718C101.592 67.2483 99.8072 68.2187 98.5149 69.7049C97.2225 71.191 96.5094 73.0934 96.5063 75.0629C96.5063 75.2349 96.5063 75.399 96.5063 75.571C96.6234 77.5513 97.457 79.4214 98.8516 80.8322C99.0732 81.0548 99.3081 81.2636 99.5552 81.4576C100.733 79.6293 102.003 77.8628 103.362 76.1651C104.003 75.3834 104.66 74.6016 105.348 73.8199L105.934 73.8902Z" fill="#C49A6C"/>
    <path d="M116.956 63.3683C115.768 64.2047 114.611 65.0725 113.478 65.9871C112.344 66.9018 111.179 67.8946 110.077 68.9265C109.498 69.4425 108.928 69.9897 108.373 70.5447C107.86 69.5545 107.559 68.4682 107.489 67.3552C107.489 67.1832 107.489 67.019 107.489 66.847C107.485 65.7732 107.697 64.7095 108.115 63.7201C108.563 62.6234 109.243 61.6366 110.108 60.8271C110.972 60.0175 112.002 59.4043 113.126 59.0296C113.306 58.967 113.485 58.9201 113.665 58.8732C114.314 58.7064 114.981 58.6224 115.651 58.6231C116.075 58.6226 116.498 58.654 116.917 58.7169C118.456 58.965 119.893 59.6455 121.06 60.6791C120.193 61.1872 119.333 61.7266 118.496 62.2425L116.956 63.3683Z" fill="#C49A6C"/>
    <path d="M116.957 63.368C115.769 64.2045 114.612 65.0722 113.478 65.9869C113.188 65.2743 113.001 64.5241 112.923 63.7589L112.782 62.3439C112.779 62.3049 112.779 62.2657 112.782 62.2267C112.685 61.1724 112.799 60.1091 113.119 59.0997C113.119 59.0137 113.173 58.9277 113.205 58.8417C113.597 57.7234 114.228 56.7034 115.052 55.8518C115.877 55.0003 116.876 54.3375 117.981 53.9089C119.986 53.1401 122.212 53.1906 124.18 54.0496C125.705 54.719 126.989 55.837 127.862 57.2548C126.575 57.8176 125.309 58.4248 124.063 59.0762C123.047 59.6078 122.046 60.1629 121.061 60.7492C120.076 61.3355 119.333 61.7967 118.497 62.3127L116.957 63.368Z" fill="#C49A6C"/>
    <path d="M139.564 53.3774C138.556 53.5963 137.563 53.8464 136.578 54.1591C135.906 54.3389 135.241 54.5344 134.577 54.7454C134.295 54.8314 134.014 54.9174 133.733 55.0191L132.755 55.3396C131.645 55.7226 130.543 56.1213 129.464 56.5826C128.925 56.8014 128.385 57.0282 127.854 57.2705C126.567 57.8334 125.3 58.4405 124.055 59.092C124.055 58.9512 124.055 58.8105 124 58.6698L123.851 57.2549C123.743 56.1809 123.852 55.0961 124.172 54.0653C124.651 52.4815 125.6 51.0804 126.892 50.0471C128.112 49.0659 129.588 48.4578 131.145 48.296H131.559C132.777 48.2344 133.993 48.4481 135.116 48.9214C135.367 49.0287 135.613 49.1487 135.851 49.281C137.527 50.1744 138.839 51.6225 139.564 53.3774Z" fill="#C49A6C"/>
    <path d="M145.139 52.3771C143.252 52.6272 141.394 52.9608 139.565 53.3777C138.556 53.5966 137.563 53.8468 136.578 54.1595C135.906 54.3393 135.242 54.5347 134.577 54.7458C134.296 54.8318 134.014 54.9178 133.733 55.0194C133.717 54.7903 133.717 54.5605 133.733 54.3314C133.816 52.8334 134.314 51.388 135.171 50.1569C135.387 49.8311 135.627 49.5227 135.891 49.2344C137.209 47.7706 139.015 46.8368 140.972 46.6078H141.097C141.542 46.5728 141.989 46.5728 142.434 46.6078C143.876 46.6998 145.267 47.1718 146.468 47.9758C146.724 48.1478 146.97 48.3357 147.202 48.5387C148.299 49.4658 149.133 50.6657 149.618 52.0175C148.352 52.0878 147.085 52.2051 145.842 52.3614L145.709 52.5569C145.647 52.6351 145.584 52.721 145.514 52.7992L145.139 52.3771Z" fill="#C49A6C"/>
    <path d="M161.492 52.1189L161.43 51.4779C161.289 50.0666 160.776 48.718 159.944 47.5691C159.308 46.6825 158.503 45.931 157.574 45.358C156.646 44.785 155.612 44.4019 154.535 44.231C153.917 44.1329 153.29 44.1093 152.666 44.1607H152.471C151.864 44.2214 151.266 44.3526 150.689 44.5516C149.326 45.0068 148.109 45.8162 147.163 46.8968C146.899 47.2004 146.656 47.5217 146.436 47.8584C145.746 48.9345 145.32 50.1587 145.193 51.431C145.168 51.6202 145.155 51.8108 145.154 52.0016C145.154 52.1111 145.154 52.2205 145.154 52.3221L161.492 52.1189Z" fill="#C49A6C"/>
    <path d="M165.37 52.6033C165.855 52.6736 166.332 52.7596 166.809 52.8456C166.878 52.5337 166.928 52.2178 166.957 51.8997C166.957 51.6417 166.957 51.3837 166.957 51.1179C166.957 50.8385 166.941 50.5592 166.91 50.2815L166.77 48.8665C166.56 46.7825 165.551 44.8606 163.955 43.5037C162.386 42.1552 160.363 41.4538 158.296 41.5415C158.139 41.5415 157.975 41.5415 157.819 41.5415C155.828 41.7499 153.982 42.6784 152.628 44.1526C152.194 44.6288 151.816 45.1534 151.502 45.7161C150.694 47.1647 150.35 48.8265 150.517 50.4769L150.658 51.8606C151.268 51.8606 151.877 51.8059 152.495 51.8059C152.839 51.8059 153.191 51.8059 153.543 51.8059H155.356C156.216 51.8059 157.076 51.8059 157.928 51.8606H158.671L165.37 52.6033Z" fill="#C49A6C"/>
    <path d="M162.095 52.1732C162.305 50.7449 162.888 49.3969 163.783 48.2645C164.431 47.4526 165.227 46.7708 166.129 46.2554C167.594 45.405 169.29 45.0385 170.975 45.2078H171.186C171.895 45.295 172.589 45.4764 173.25 45.7472C174.5 46.2538 175.605 47.059 176.471 48.0925C177.511 49.3335 178.154 50.8589 178.316 52.4703L178.363 52.8924L178.465 53.8852C178.493 54.1605 178.506 54.4372 178.504 54.7139C178.503 55.1565 178.466 55.5983 178.394 56.0351C177.164 55.5608 175.919 55.1256 174.657 54.7295L162.095 52.1732Z" fill="#C49A6C"/>
    <path d="M182.756 57.9739C183.718 56.599 184.231 54.9609 184.226 53.2834V53.1505C184.225 52.918 184.212 52.6858 184.187 52.4547L184.039 51.0397C183.883 49.5015 183.292 48.0396 182.334 46.8261L182.092 46.5291C181.781 46.171 181.441 45.8389 181.076 45.5362C179.397 44.1736 177.247 43.5302 175.095 43.746C174.859 43.7678 174.624 43.8018 174.392 43.8477C173.233 44.0672 172.137 44.5367 171.179 45.2235L170.952 45.3955C170.039 46.0987 169.285 46.9863 168.738 48.0006C168.191 49.0148 167.864 50.133 167.778 51.2821C167.735 51.7528 167.735 52.2264 167.778 52.6971V53.0019L182.756 57.9739Z" fill="#C49A6C"/>
    <path d="M188.119 60.8427C188.502 60.304 188.82 59.7214 189.065 59.1072C189.442 58.1566 189.635 57.1434 189.636 56.1209C189.635 55.8415 189.62 55.5622 189.589 55.2844L189.448 53.8695C189.373 53.1464 189.202 52.4366 188.94 51.7588C188.869 51.579 188.799 51.407 188.721 51.235C188.154 50.0358 187.306 48.9914 186.248 48.191C185.19 47.3906 183.955 46.8579 182.647 46.6383C182.467 46.6383 182.279 46.5836 182.092 46.568C181.782 46.5483 181.471 46.5483 181.161 46.568C180.94 46.5565 180.718 46.5565 180.497 46.568C179.035 46.711 177.64 47.2517 176.463 48.1315C174.773 49.395 173.631 51.2583 173.274 53.3379C173.22 53.6612 173.186 53.9876 173.172 54.3151L188.119 60.8427Z" fill="#C49A6C"/>
    <path d="M181.623 57.4503C182.03 55.7956 182.939 54.3075 184.226 53.1897C185.486 52.0896 187.057 51.4069 188.721 51.2354H189.002C190.526 51.1383 192.046 51.468 193.393 52.1875C194.739 52.907 195.858 53.9877 196.624 55.3083C197.065 56.068 197.379 56.8945 197.555 57.7551C197.609 58.0209 197.648 58.2867 197.68 58.5369L197.82 59.9518C197.851 60.2296 197.867 60.5089 197.867 60.7883C197.868 62.1225 197.538 63.436 196.906 64.6111C196.596 65.1883 196.218 65.7263 195.78 66.2137C195.561 66.0339 195.35 65.854 195.131 65.6899L181.623 57.4503Z" fill="#C49A6C"/>
    <path d="M202.73 66.6823C202.73 66.9325 202.73 67.1827 202.691 67.4641C202.565 68.837 202.092 70.1553 201.315 71.2947C200.534 70.5129 199.752 69.7312 198.97 68.9494C198.423 68.4335 197.868 67.9331 197.297 67.4484C196.961 67.1514 196.617 66.8621 196.273 66.5807L195.82 66.2133C195.601 66.0335 195.39 65.8537 195.171 65.6895L189.503 61.7808L187.994 60.741L187.752 60.5769C187.946 60.3031 188.158 60.0419 188.385 59.7951C188.606 59.5451 188.844 59.3101 189.097 59.0916C190.228 58.0993 191.614 57.444 193.099 57.1997C193.271 57.1997 193.443 57.145 193.623 57.1294C194.166 57.0786 194.713 57.0786 195.257 57.1294C196.064 57.206 196.855 57.4064 197.602 57.7235C199.475 58.5122 200.989 59.9657 201.855 61.8042C202.221 62.5759 202.459 63.4025 202.558 64.2511V64.4309L202.707 65.8459C202.731 66.124 202.738 66.4033 202.73 66.6823Z" fill="#C49A6C"/>
    <path d="M208.523 73.5074C208.523 74.7443 208.237 75.9646 207.686 77.0722C207.521 77.4234 207.328 77.7607 207.108 78.0806L206.764 77.6116C205.721 76.2044 204.611 74.8468 203.433 73.5387C202.996 73.0462 202.55 72.5537 202.097 72.0768C201.847 71.8032 201.581 71.5296 201.315 71.295C200.533 70.5133 199.751 69.7315 198.97 68.9498C198.422 68.4338 197.867 67.9335 197.297 67.4488C196.961 67.1518 196.617 66.8625 196.273 66.5811L195.819 66.2137C195.6 66.0339 195.389 65.8541 195.17 65.6899C195.403 65.504 195.645 65.3317 195.897 65.1739C196.231 64.9589 196.581 64.7707 196.945 64.6111C197.199 64.4989 197.461 64.4023 197.727 64.3218C198.28 64.138 198.851 64.0149 199.431 63.9544C200.483 63.8475 201.546 63.9511 202.558 64.2593C204.152 64.7318 205.564 65.6779 206.607 66.972C207.599 68.1986 208.213 69.6869 208.374 71.2559L208.515 72.6709V72.9523C208.515 73.14 208.523 73.3276 208.523 73.5074Z" fill="#C49A6C"/>
    <path d="M212.072 76.939C212.071 77.5758 211.997 78.2105 211.853 78.8308C211.536 80.141 210.899 81.3523 210 82.3565C209.398 81.3715 208.757 80.4021 208.093 79.4562C207.882 79.1435 207.663 78.8308 207.428 78.5259L201.315 71.2635C200.533 70.4817 199.751 69.7 198.97 68.9182C200.069 68.0987 201.362 67.5764 202.722 67.4016H202.964C204.095 67.286 205.238 67.4085 206.318 67.7612C206.7 67.8812 207.071 68.0329 207.428 68.2146C208.491 68.7438 209.425 69.4973 210.168 70.4233C210.91 71.3493 211.442 72.4255 211.728 73.5774C211.809 73.8905 211.867 74.2094 211.9 74.5312V74.6953L212.041 76.1103C212.041 76.165 212.041 76.2197 212.041 76.2745C212.064 76.4934 212.072 76.7357 212.072 76.939Z" fill="#C49A6C"/>
    <path d="M215.16 82.3801C215.158 83.6597 214.855 84.9209 214.276 86.0621C213.95 86.7075 213.54 87.3069 213.057 87.8445C212.807 87.3364 212.557 86.8361 212.275 86.3357C211.564 84.9755 210.805 83.6544 209.992 82.3567C209.391 81.3716 208.749 80.4023 208.085 79.4564C207.874 79.1437 207.655 78.831 207.421 78.5261L207.1 78.0805L206.756 77.6114C205.714 76.2043 204.604 74.8467 203.426 73.5385C204.243 73.1624 205.118 72.9246 206.013 72.835C206.841 72.7516 207.676 72.7911 208.492 72.9522C209.555 73.179 210.565 73.6119 211.462 74.2265L211.861 74.5313C213.485 75.7996 214.571 77.6337 214.902 79.6674C214.902 79.8238 214.949 79.9723 214.964 80.1287L215.105 81.5436C215.139 81.8212 215.157 82.1005 215.16 82.3801Z" fill="#C49A6C"/>
    <path d="M219.6 88.3913C219.597 89.7108 219.275 91.01 218.661 92.178C218.047 93.346 217.159 94.3481 216.074 95.0987C215.832 94.3951 215.574 93.6915 215.292 93.0036C214.62 91.2447 213.862 89.5248 213.033 87.8441C212.783 87.3359 212.533 86.8356 212.251 86.3353C211.54 84.975 210.782 83.6539 209.969 82.3562C209.367 81.3712 208.726 80.4018 208.061 79.4559C208.808 79.1374 209.599 78.9319 210.406 78.8462C210.869 78.8032 211.335 78.8032 211.798 78.8462C212.863 78.9134 213.903 79.198 214.854 79.6826C216.092 80.2923 217.155 81.2058 217.944 82.3378C218.733 83.4698 219.222 84.7832 219.365 86.1555L219.459 87.0701L219.506 87.5626C219.506 87.6955 219.506 87.8206 219.545 87.9535C219.584 88.0864 219.6 88.2428 219.6 88.3913Z" fill="#C49A6C"/>
    <path d="M222.727 95.646C222.724 96.8727 222.444 98.0829 221.91 99.1871C221.375 100.291 220.599 101.261 219.639 102.025C219.283 102.322 218.898 102.584 218.49 102.807L218.279 102.924C218.146 102.306 218.013 101.681 217.865 101.071C217.383 99.0571 216.799 97.0689 216.114 95.1144C215.871 94.4108 215.613 93.7072 215.332 93.0193C214.66 91.2604 213.901 89.5405 213.073 87.8598C212.823 87.3517 212.572 86.8513 212.291 86.351C212.709 86.2406 213.135 86.1622 213.565 86.1165C213.808 86.1165 214.042 86.0774 214.277 86.0774C216.12 86.0525 217.916 86.6533 219.374 87.7816L219.6 87.9614C220.826 88.9853 221.728 90.3432 222.196 91.8701C222.352 92.3795 222.457 92.9033 222.508 93.4336L222.649 94.8486C222.689 95.1129 222.715 95.379 222.727 95.646Z" fill="#C49A6C"/>
    <path d="M219.6 85.8198C219.601 86.2333 219.57 86.6463 219.507 87.055C219.465 87.2947 219.418 87.5292 219.366 87.7586C219.087 88.8652 218.582 89.9019 217.882 90.8034C217.183 91.7049 216.304 92.4516 215.301 92.9963C214.629 91.2373 213.87 89.5175 213.042 87.8367C212.791 87.3286 212.541 86.8283 212.26 86.3279C211.548 84.9677 210.79 83.6466 209.977 82.3489C209.375 81.3639 208.734 80.3945 208.07 79.4486C207.859 79.1359 207.64 78.8232 207.405 78.5183L207.085 78.0727L206.741 77.6036C207.034 77.3998 207.342 77.2195 207.663 77.0643C208.466 76.6626 209.33 76.3984 210.22 76.2825H210.438C210.958 76.2294 211.482 76.2294 212.002 76.2825C212.584 76.3354 213.158 76.4534 213.714 76.6343C215.23 77.1162 216.573 78.0295 217.578 79.2623C218.583 80.4952 219.207 81.9943 219.374 83.5762L219.515 84.9912C219.558 85.2656 219.587 85.5422 219.6 85.8198Z" fill="#C49A6C"/>
    <path d="M212.072 71.1542C212.071 71.9764 211.945 72.7937 211.697 73.5776C211.633 73.7979 211.557 74.0145 211.47 74.2265C211.163 74.9725 210.749 75.6703 210.243 76.2981C209.479 77.238 208.519 77.9987 207.428 78.5261L201.315 71.2637C200.533 70.4819 199.752 69.7002 198.97 68.9184C198.423 68.4025 197.868 67.9021 197.297 67.4175C196.961 67.1204 196.617 66.8312 196.273 66.5497C196.335 66.395 196.406 66.2437 196.484 66.0963C196.81 65.4436 197.22 64.8364 197.704 64.2905C198.795 63.0497 200.241 62.1739 201.847 61.7811C202.214 61.6875 202.588 61.6221 202.965 61.5856C204.033 61.4799 205.111 61.5857 206.138 61.8972C207.165 62.2086 208.12 62.7195 208.949 63.4006C209.778 64.0817 210.465 64.9196 210.97 65.8664C211.475 66.8133 211.789 67.8504 211.892 68.9184L212.033 70.3334C212.061 70.6061 212.074 70.8801 212.072 71.1542Z" fill="#C49A6C"/>
    <path d="M206.92 64.6184C206.918 65.4131 206.8 66.2033 206.568 66.9636C206.491 67.2297 206.397 67.4908 206.287 67.7454C205.481 69.6587 203.986 71.199 202.097 72.0606C201.847 71.787 201.581 71.5134 201.315 71.2788C200.533 70.4971 199.751 69.7153 198.97 68.9336C198.423 68.4176 197.867 67.9173 197.297 67.4327C196.961 67.1356 196.617 66.8463 196.273 66.5649L195.819 66.1975C195.6 66.0177 195.389 65.8379 195.17 65.6737L190.527 62.3278C190.563 61.9775 190.623 61.6301 190.707 61.2881C191.091 59.7266 191.922 58.3112 193.099 57.2152C193.818 56.5452 194.656 56.015 195.569 55.6517C195.924 55.5039 196.29 55.3836 196.664 55.2921C197.041 55.1958 197.425 55.1279 197.813 55.0888C199.921 54.8811 202.027 55.4978 203.69 56.8096C205.353 58.1214 206.444 60.0262 206.733 62.1246C206.733 62.2106 206.733 62.2966 206.733 62.3826L206.881 63.7975C206.909 64.0702 206.922 64.3442 206.92 64.6184Z" fill="#C49A6C"/>
    <path d="M179.442 56.52C179.373 56.2213 179.323 55.9184 179.293 55.6132L179.145 54.1904C179.075 53.4923 179.096 52.788 179.207 52.0953C179.445 50.6116 180.086 49.2217 181.06 48.0771C181.442 47.6302 181.869 47.2241 182.334 46.8654C182.436 46.7872 182.538 46.7091 182.647 46.6387C183.773 45.856 185.081 45.3743 186.446 45.2394C186.966 45.1865 187.49 45.1865 188.01 45.2394C189.884 45.4204 191.638 46.2413 192.978 47.5639C194.318 48.8866 195.161 50.6304 195.366 52.5018L195.499 53.7682V53.9168C195.515 54.1928 195.515 54.4694 195.499 54.7454C195.499 55.0353 195.483 55.325 195.452 55.6132C195.401 56.1205 195.296 56.621 195.139 57.1063C194.791 58.2668 194.189 59.3355 193.378 60.2358C192.567 61.136 191.567 61.8453 190.449 62.3127L179.442 56.52Z" fill="#C49A6C"/>
    <path d="M173.836 54.5423C173.613 54.1655 173.423 53.7706 173.266 53.3618C173.003 52.684 172.832 51.9741 172.758 51.2511L172.617 49.8361C172.472 48.4608 172.685 47.0714 173.234 45.8023C173.525 45.1129 173.912 44.4681 174.384 43.887C175.506 42.4862 177.063 41.4988 178.808 41.0806C179.17 40.9876 179.539 40.9223 179.911 40.8851C181.535 40.7221 183.172 41.0489 184.61 41.8235C186.047 42.598 187.22 43.785 187.978 45.2316C188.459 46.1484 188.759 47.1489 188.862 48.1788L189.01 49.5938C189.039 49.8691 189.052 50.1457 189.049 50.4225C189.049 50.6882 189.049 50.954 189.01 51.2042C188.971 51.4544 188.971 51.5716 188.94 51.7514C188.685 53.2475 188.022 54.644 187.023 55.7865C186.024 56.9289 184.729 57.7726 183.28 58.2243L173.836 54.5423Z" fill="#C49A6C"/>
    <path d="M166.855 52.8534C165.37 51.7275 164.305 50.1367 163.83 48.3349C163.408 46.7483 163.481 45.0706 164.041 43.5271C164.08 43.4177 164.119 43.3082 164.166 43.2066C164.99 41.2065 166.573 39.6141 168.568 38.7776C170.564 37.9412 172.809 37.9287 174.813 38.7428L176.134 39.2822C177.159 39.6991 178.085 40.3248 178.855 41.1194C180.057 42.3465 180.847 43.9176 181.114 45.6144C181.163 45.9328 181.191 46.254 181.2 46.576C181.2 46.6698 181.2 46.7714 181.2 46.8652C181.201 47.2842 181.167 47.7026 181.099 48.116C181.003 48.7415 180.833 49.3531 180.59 49.9375C180.265 50.7381 179.811 51.4801 179.246 52.1342C178.985 52.4457 178.697 52.7334 178.386 52.9941C177.328 53.9127 176.052 54.5452 174.68 54.8312L166.855 52.8534Z" fill="#C49A6C"/>
    <path d="M160.023 46.4978C160.025 46.8589 159.999 47.2195 159.945 47.5766C159.856 48.2615 159.677 48.9316 159.414 49.5701C159.117 50.302 158.711 50.9846 158.21 51.5948C158.136 51.6943 158.055 51.7884 157.967 51.8763C157.115 51.8763 156.255 51.8215 155.395 51.8215H153.582C153.23 51.8215 152.878 51.8215 152.534 51.8215C151.917 51.8215 151.307 51.8215 150.697 51.8763C150.322 51.8763 149.915 51.8763 149.579 51.9388C148.313 52.0092 147.046 52.1264 145.803 52.2828L145.671 52.4782C145.602 52.4304 145.537 52.3782 145.475 52.3219L145.397 52.2593C145.309 52.1978 145.228 52.127 145.155 52.0482C143.832 50.8849 142.921 49.3243 142.559 47.6001C142.483 47.2497 142.431 46.8944 142.403 46.5369C142.266 44.6775 142.768 42.8271 143.826 41.2914L143.919 41.1585C144.996 39.6742 146.539 38.5934 148.302 38.0889C150.065 37.5845 151.946 37.6853 153.644 38.3755L154.958 38.9149C155.198 39.0143 155.433 39.1265 155.661 39.251C156.715 39.7936 157.632 40.5689 158.343 41.5181C159.436 42.9478 160.026 44.6982 160.023 46.4978Z" fill="#C49A6C"/>
    <path d="M145.177 53.0957C145.287 52.9784 145.381 52.8611 145.475 52.7439C145.545 52.6657 145.607 52.5797 145.67 52.5015L145.803 52.3061C146.114 51.8391 146.376 51.3413 146.585 50.8208C146.892 50.0728 147.082 49.2817 147.147 48.4755C147.176 48.2343 147.189 47.9914 147.187 47.7485C147.186 47.4872 147.17 47.2262 147.14 46.9667C147.037 45.8723 146.715 44.8098 146.192 43.8427C145.67 42.8756 144.958 42.0238 144.099 41.3382L143.895 41.1818C143.35 40.7704 142.753 40.4314 142.121 40.1734L140.8 39.6339C138.795 38.8198 136.55 38.8323 134.555 39.6687C132.56 40.5052 130.977 42.0976 130.152 44.0977C129.576 45.5222 129.418 47.0818 129.699 48.5928C129.792 49.1562 129.949 49.707 130.168 50.2345C130.854 51.9712 132.119 53.4181 133.748 54.3308C134.02 54.4876 134.302 54.626 134.593 54.7451C135.257 54.5341 135.922 54.3386 136.594 54.1588C137.579 53.8774 138.572 53.6272 139.58 53.3771C141.409 52.9601 143.267 52.6266 145.154 52.3764L145.177 53.0957Z" fill="#C49A6C"/>
    <path d="M145.138 52.3761C143.252 52.6263 141.394 52.9598 139.564 53.3767C138.556 53.5956 137.563 53.8458 136.578 54.1585C135.766 52.971 135.28 51.5905 135.171 50.1559C135.136 49.7293 135.136 49.3005 135.171 48.8739C135.23 48.0113 135.428 47.1639 135.757 46.3645C135.82 46.2159 135.882 46.0674 135.96 45.9189C136.67 44.4505 137.803 43.2277 139.212 42.4073C140.622 41.5869 142.244 41.2063 143.872 41.3144C143.971 41.3066 144.07 41.3066 144.169 41.3144C144.938 41.3916 145.691 41.5812 146.405 41.8772L147.726 42.4166C148.882 42.8895 149.913 43.6256 150.735 44.5665C151.057 44.9283 151.343 45.3211 151.588 45.7391C152.708 47.5588 153.065 49.7474 152.58 51.8289C151.963 51.8289 151.353 51.8289 150.743 51.8836C150.368 51.8836 149.962 51.8836 149.625 51.9461C148.359 52.0165 147.093 52.1338 145.85 52.2901L145.717 52.4856C145.654 52.5637 145.592 52.6497 145.521 52.7279L145.138 52.3761Z" fill="#C49A6C"/>
    <path d="M165.37 52.6032C165.636 52.5144 165.898 52.41 166.152 52.2905C166.418 52.1654 166.683 52.0247 166.933 51.8762C167.207 51.7107 167.469 51.5252 167.715 51.3212C168.628 50.618 169.383 49.7304 169.93 48.7161C170.476 47.7019 170.803 46.5837 170.889 45.4346C170.889 45.3721 170.889 45.3095 170.889 45.2392C170.889 45.1688 170.889 44.9812 170.889 44.8483C170.892 44.5716 170.879 44.2949 170.85 44.0196L170.702 42.6047C170.552 41.1133 169.992 39.6926 169.083 38.5005C168.274 37.4363 167.216 36.5873 166.002 36.0283C164.788 35.4692 163.455 35.2172 162.121 35.2944C160.786 35.3716 159.491 35.7757 158.35 36.4711C157.208 37.1665 156.255 38.1319 155.575 39.2822C154.95 40.3172 154.565 41.4793 154.449 42.6828C154.399 43.2028 154.399 43.7264 154.449 44.2463L154.59 45.6691C154.713 46.8519 155.094 47.9935 155.704 49.0142C156.314 50.0349 157.14 50.9103 158.123 51.5791L158.624 51.8918L165.37 52.6032Z" fill="#C49A6C"/>
    <path d="M145.139 52.3766C143.252 52.6267 141.394 52.9603 139.565 53.3772C138.557 53.5961 137.564 53.8463 136.579 54.159C135.907 54.3388 135.242 54.5342 134.578 54.7453C134.296 54.8313 134.015 54.9173 133.733 55.0189L132.756 55.3394C131.646 55.7225 130.544 56.1212 129.465 56.5824L129.418 56.215L129.27 54.7922C129.148 53.6111 129.289 52.4176 129.684 51.2978C129.813 50.9319 129.97 50.5765 130.153 50.2346C130.72 49.1269 131.534 48.1641 132.531 47.4201C133.528 46.676 134.683 46.1707 135.907 45.9428L136.563 45.849C138.064 45.6932 139.579 45.9642 140.933 46.6307C141.51 46.9059 142.053 47.2469 142.551 47.647C143.794 48.6637 144.71 50.0229 145.186 51.5557C145.269 51.812 145.337 52.0731 145.389 52.3375C145.393 52.3608 145.393 52.3845 145.389 52.4078C145.42 52.5367 145.444 52.6672 145.46 52.7987L145.139 52.3766Z" fill="#C49A6C"/>
    <path d="M117.762 62.8127C117.458 62.1619 117.245 61.4729 117.128 60.7645C117.128 60.5847 117.066 60.4049 117.05 60.2173L116.909 58.8023C116.739 57.1048 117.111 55.3969 117.973 53.9242C118.619 52.8024 119.524 51.8506 120.611 51.1478C121.699 50.445 122.938 50.0113 124.227 49.8826C126.162 49.6753 128.107 50.1782 129.699 51.2976C131.123 52.2874 132.198 53.7019 132.771 55.3392C131.661 55.7222 130.559 56.1209 129.48 56.5822C128.941 56.8011 128.401 57.0278 127.87 57.2701C126.582 57.833 125.316 58.4401 124.07 59.0916C123.054 59.6232 122.053 60.1782 121.068 60.7645C120.083 61.3508 119.341 61.8121 118.504 62.328L117.762 62.8127Z" fill="#C49A6C"/>
    <path d="M116.957 63.3677C115.769 64.2041 114.612 65.0719 113.478 65.9865C112.345 66.9012 111.18 67.894 110.077 68.9259C109.499 69.4419 108.928 69.9891 108.373 70.5441C107.42 71.4926 106.5 72.4672 105.614 73.4679C105.731 73.6086 105.833 73.7493 105.934 73.89C105.809 73.7649 105.692 73.632 105.582 73.4991C105.473 73.3662 105.301 73.1473 105.168 72.9597L104.988 72.7017C104.292 71.6217 103.86 70.3921 103.73 69.1135L103.589 67.6986C103.557 67.4392 103.541 67.1781 103.542 66.9168C103.538 64.8916 104.285 62.9369 105.638 61.4297C106.99 59.9226 108.853 58.9698 110.867 58.7554C111.65 58.6733 112.44 58.7076 113.212 58.857L113.666 58.9586C114.955 59.2787 116.147 59.9094 117.137 60.7957C117.657 61.2551 118.114 61.7808 118.497 62.3592L116.957 63.3677Z" fill="#C49A6C"/>
    <path d="M105.934 73.8902C105.832 73.7495 105.731 73.6088 105.613 73.468C105.475 73.2898 105.326 73.1202 105.168 72.9599L105.019 72.8114C104.162 71.9554 103.126 71.3008 101.985 70.8952C100.843 70.4895 99.6262 70.343 98.4214 70.4661C98.2259 70.4661 98.0383 70.513 97.8507 70.5443C95.8185 70.9045 93.9971 72.0185 92.7507 73.6635C91.5043 75.3085 90.9246 77.3633 91.1276 79.4171L91.2762 80.8321C91.2762 81.0275 91.3231 81.223 91.3622 81.4184C91.4864 82.145 91.7127 82.8503 92.0345 83.5135C92.8875 85.2818 94.3465 86.6853 96.1465 87.4692C96.7171 86.32 97.3269 85.1943 97.9601 84.092C98.4839 83.193 99.0311 82.3018 99.594 81.4262C100.771 79.598 102.042 77.8315 103.401 76.1338C104.042 75.3521 104.699 74.5703 105.387 73.7886L105.934 73.8902Z" fill="#C49A6C"/>
    <path d="M176.51 109.561C187.286 109.561 196.022 100.825 196.022 90.0491C196.022 79.2726 187.286 70.5366 176.51 70.5366C165.734 70.5366 156.998 79.2726 156.998 90.0491C156.998 100.825 165.734 109.561 176.51 109.561Z" fill="#563F43"/>
    <path d="M129.23 109.561C140.006 109.561 148.742 100.825 148.742 90.0491C148.742 79.2726 140.006 70.5366 129.23 70.5366C118.453 70.5366 109.717 79.2726 109.717 90.0491C109.717 100.825 118.453 109.561 129.23 109.561Z" fill="#563F43"/>
    <path d="M173.893 135.888L173.177 133.745C171.534 128.832 166.218 126.181 161.305 127.824L130.315 138.187C125.401 139.83 122.75 145.145 124.393 150.059L125.11 152.201C126.753 157.115 132.068 159.766 136.981 158.123L167.972 147.76C172.885 146.117 175.536 140.802 173.893 135.888Z" fill="#BE1E2D"/>
    <path d="M69.0747 80.3164H66.2838C56.9028 81.4109 51.1335 88.3762 50 96.6002V149.759C50.0206 154.507 51.9187 159.055 55.28 162.409C58.6413 165.763 63.1928 167.651 67.9411 167.661H73.5228C77.7285 167.651 81.759 165.976 84.7328 163.002C87.7067 160.028 89.382 155.997 89.3923 151.792V100.618C89.3861 95.2332 87.243 90.0705 83.4336 86.2641C79.6242 82.4576 74.4599 80.3185 69.0747 80.3164Z" fill="white"/>
    <path d="M239.926 81.4268H242.716C252.097 82.5212 257.867 89.4866 259 97.7106V150.869C258.986 155.618 257.094 160.168 253.737 163.526C250.38 166.884 245.831 168.778 241.083 168.795H235.493C231.289 168.781 227.261 167.104 224.288 164.131C221.315 161.158 219.638 157.13 219.624 152.925V101.752C219.634 96.3688 221.775 91.2085 225.58 87.3996C229.384 83.5908 234.542 81.4433 239.926 81.4268Z" fill="white"/>
    <path d="M68.3711 80.3163C73.0616 42.4719 110.234 13 155.403 13C201.003 13 238.464 43.0426 242.545 81.4108" stroke="#D1D3D4" stroke-width="11" stroke-miterlimit="10"/>
</svg>