<svg viewBox="0 0 309 428" fill="none" xmlns="http://www.w3.org/2000/svg">
    <rect width="309" height="427" fill="#EF476F"/>
    <g clip-path="url(#clip0)">
        <path d="M135.242 208.059V236.75H173.426V208.282L135.242 208.059Z" fill="#967351"/>
        <path d="M183.315 64.3693L216.445 67.7735C219.159 68.0523 221.584 66.0764 221.862 63.3601C222.141 60.6439 220.167 58.2159 217.454 57.9371L184.323 54.5329C181.61 54.2541 179.185 56.23 178.907 58.9463C178.628 61.6625 180.602 64.0905 183.315 64.3693Z" fill="#614729"/>
        <path d="M182.37 62.2388L214.644 62.2388C217.372 62.2388 219.583 60.0252 219.583 57.2947C219.583 54.5642 217.372 52.3507 214.644 52.3507L182.37 52.3507C179.643 52.3507 177.432 54.5642 177.432 57.2947C177.432 60.0252 179.643 62.2388 182.37 62.2388Z" fill="#614729"/>
        <path d="M137.215 68.4089C137.216 68.8836 137.147 69.3557 137.011 69.8104L133.327 66.1121H124.315L120.271 60.769L117.18 56.662L116.869 56.2435L113.885 52.1948L112.913 50.9004L111.94 49.6741L110.161 47.2994L109.316 46.1705L109.092 45.8785L108.266 44.7788C107.625 43.9231 107.283 42.8799 107.294 41.8104C107.292 40.9337 107.527 40.0729 107.974 39.3189L108.13 39.0853L108.178 39.0269C108.466 38.5742 108.832 38.1756 109.257 37.8493C110.306 37.0635 111.622 36.7248 112.919 36.9071C114.215 37.0895 115.387 37.7781 116.179 38.8226L116.402 39.1145L120.787 44.9539L122.517 47.2508L124.199 49.4892L129.273 56.2337L130.051 57.2654L130.372 57.6936L130.624 58.0245L136.214 65.46C136.375 65.6718 136.518 65.8964 136.642 66.1316L136.729 66.3067C137.045 66.9629 137.211 67.6808 137.215 68.4089Z" fill="#614729"/>
        <path d="M118.972 96.2629L104.106 66.4257C102.889 63.9822 99.9234 62.9895 97.4828 64.2083C95.0422 65.427 94.0505 68.3958 95.2679 70.8393L110.134 100.677C111.351 103.12 114.316 104.113 116.757 102.894C119.197 101.675 120.189 98.7063 118.972 96.2629Z" fill="#614729"/>
        <path d="M134.549 48.4632L101.419 45.059C98.7058 44.7802 96.2806 46.7562 96.0022 49.4724C95.7237 52.1886 97.6974 54.6166 100.41 54.8954L133.541 58.2996C136.254 58.5784 138.679 56.6025 138.958 53.8862C139.236 51.17 137.263 48.742 134.549 48.4632Z" fill="#614729"/>
        <path d="M126.084 48.9521L93.8848 57.4695C91.248 58.167 89.6751 60.8725 90.3718 63.5124C91.0685 66.1524 93.7709 67.727 96.4078 67.0295L128.607 58.5122C131.244 57.8147 132.817 55.1092 132.12 52.4692C131.424 49.8293 128.721 48.2546 126.084 48.9521Z" fill="#614729"/>
        <path d="M235 296.808V428H75V296.808C75.0436 280.895 81.3765 265.645 92.6151 254.392C103.854 243.138 119.084 236.796 134.979 236.75H175.011C190.907 236.796 206.138 243.138 217.379 254.391C228.619 265.644 234.954 280.894 235 296.808Z" fill="#7E566B"/>
        <path d="M181.184 63.6888C181.071 63.6266 180.964 63.5549 180.863 63.4747C180.778 63.4152 180.697 63.3502 180.62 63.2801C180.468 63.1539 180.325 63.0173 180.192 62.8713C180.058 62.7286 179.932 62.5792 179.813 62.4236C179.738 62.3211 179.67 62.2138 179.609 62.1024C179.561 62.0346 179.519 61.963 179.483 61.8883C179.483 61.8883 179.483 61.8883 179.483 61.8397C179.438 61.7681 179.399 61.6933 179.366 61.6158C179.315 61.518 179.269 61.4173 179.23 61.3141C179.23 61.2363 179.23 61.1584 179.152 61.0805C178.738 60.7187 178.387 60.2913 178.112 59.8153C178.036 59.917 177.955 60.0145 177.869 60.1073C177.788 60.2076 177.697 60.299 177.597 60.3798L177.412 60.5355C177.163 60.7522 176.889 60.9384 176.595 61.0903L176.07 61.3239C175.925 61.3827 175.776 61.4315 175.623 61.4698C175.499 61.5083 175.373 61.5375 175.244 61.5574C175.046 61.6056 174.845 61.635 174.641 61.645C174.637 61.5997 174.637 61.5541 174.641 61.5088C174.642 61.0073 174.717 60.5087 174.865 60.0295L174.641 60.2533C174.492 60.403 174.333 60.5428 174.165 60.6718L173.903 60.847L172.756 61.392C172.3 61.2487 171.867 61.0388 171.472 60.7691L171.365 60.9054L171.239 60.6037L170.267 59.6304C170.208 59.796 170.159 59.965 170.121 60.1365C170.204 60.4714 170.253 60.8137 170.267 61.1584C170.277 61.2685 170.277 61.3792 170.267 61.4893C170.258 61.725 170.229 61.9594 170.179 62.19C169.929 63.2938 169.311 64.2797 168.429 64.9868C167.546 65.6939 166.449 66.0803 165.319 66.083H153.109L152.526 68.1073C152.164 69.3682 152.317 70.7215 152.951 71.8696C153.585 73.0176 154.649 73.8663 155.909 74.229C157.168 74.5916 158.52 74.4385 159.667 73.8034C160.813 73.1682 161.661 72.103 162.023 70.8421L162.996 67.5136L163.316 68.6231C163.627 69.6902 164.287 70.6216 165.191 71.2669C166.094 71.9122 167.189 72.2338 168.298 72.1798C169.407 72.1258 170.465 71.6994 171.302 70.9693C172.139 70.2393 172.706 69.2482 172.911 68.156C173.621 68.5554 174.419 68.7725 175.233 68.7878C176.047 68.803 176.853 68.6161 177.577 68.2436C177.549 67.9393 177.549 67.633 177.577 67.3287C177.603 67.1309 177.646 66.9356 177.704 66.7448V66.083H177.879H179.716L181.427 63.8056C181.344 63.7715 181.262 63.7325 181.184 63.6888ZM214.926 78.0149L214.751 77.4796C213.56 73.9681 212.057 70.5709 210.26 67.3287C210.241 67.2846 210.218 67.2423 210.192 67.2022C209.91 66.6961 209.628 66.229 209.336 65.7034C208.646 64.5453 207.927 63.4066 207.159 62.2971C206.089 60.714 204.945 59.1827 203.727 57.7034C203.62 57.5574 203.503 57.4212 203.387 57.2849L203.241 57.1195C203.066 56.9054 202.881 56.6913 202.697 56.4869C202.64 56.4111 202.579 56.3396 202.512 56.2728C202.424 56.156 202.317 56.0392 202.22 55.9321C201.919 55.5915 201.608 55.2411 201.248 54.9589C200.451 54.1024 199.644 53.2655 198.798 52.4577C198.254 51.9321 197.7 51.4066 197.136 50.9005L196.767 50.5793C195.863 49.7715 194.939 49.0027 193.996 48.2533L193.559 47.9224C192.159 46.8389 190.717 45.8202 189.233 44.8664L188.64 44.4966C187.532 43.7959 186.404 43.1438 185.257 42.5501C185.053 42.4333 184.849 42.3166 184.635 42.2095C184.236 42.0051 183.838 41.8007 183.429 41.6061H183.361C182.185 41.0222 180.999 40.4869 179.784 39.9905C179.696 39.9905 179.599 39.9127 179.512 39.8737L179.23 39.7667C177.478 39.0561 175.69 38.4389 173.873 37.9175H173.786C172.814 37.645 171.842 37.392 170.87 37.1779H170.763H170.627L169.655 36.9638L168.459 36.4382C167.594 36.2825 166.719 36.1365 165.834 36.01C165.27 35.9321 164.706 35.864 164.133 35.8056C163.559 35.7472 162.811 35.6694 162.189 35.6207L161.051 35.5526L160.021 35.5039H159.739C159.165 35.5039 158.582 35.5039 157.999 35.5039H152.662C151.69 35.5039 150.718 35.5039 149.814 35.5818C149.347 35.5818 148.842 35.5818 148.394 35.6694H148.229C147.558 35.6694 146.888 35.7861 146.217 35.864C145.945 35.864 145.692 35.9224 145.42 35.9516C143.383 36.2083 141.361 36.5754 139.363 37.0513L138.479 37.2655L137.682 37.4796C136.914 37.6742 136.156 37.8981 135.397 38.1316C133.871 38.6085 132.364 39.1049 130.896 39.7375C130.226 40.0003 129.565 40.2825 128.952 40.5745C127.922 41.0319 126.901 41.5477 125.9 42.0246L124.83 42.5891C124.101 42.9881 123.372 43.3969 122.653 43.8153L121.681 44.4285C121.409 44.6037 121.127 44.7691 120.854 44.954C119.882 45.538 119.027 46.1511 118.133 46.7934C117.394 47.319 116.665 47.864 115.955 48.4285L115.809 48.5453L115.586 48.7205C115.129 49.0805 114.682 49.4504 114.244 49.8202L113.184 50.735L112.971 50.92C112.174 51.6207 111.406 52.3506 110.647 53.0903C109.889 53.8299 109.228 54.5209 108.548 55.2606C108.402 55.4066 108.266 55.5526 108.13 55.7083L107.653 56.2338L107.585 56.3117L107.41 56.5063C107.245 56.701 107.08 56.8859 106.924 57.0805C106.769 57.2752 106.496 57.5769 106.292 57.8299C104.734 59.6945 103.28 61.644 101.937 63.6694C101.843 63.7978 101.755 63.931 101.675 64.0684C101.266 64.701 100.868 65.3433 100.479 66.0149C99.0077 68.3923 97.6988 70.8667 96.5614 73.4212C95.855 75.0497 95.2069 76.7075 94.6172 78.3944C92.4961 84.6946 91.4126 91.2983 91.4092 97.9467V150.501C91.4092 177.519 110.122 201.363 135.203 208C139.799 209.221 144.534 209.84 149.289 209.84H160.186C164.642 209.843 169.082 209.301 173.407 208.224C198.915 201.898 218.056 177.83 218.056 150.501V97.4115C218.065 90.8033 217.008 84.237 214.926 77.9662V78.0149ZM138.362 78.2484C137.628 78.9843 136.677 79.4652 135.65 79.6207C135.544 79.7539 135.431 79.8806 135.31 80.0003C134.38 80.9221 133.124 81.4392 131.815 81.4392C130.506 81.4392 129.25 80.9221 128.32 80.0003L114.497 66.1122H133.327L137.021 69.8105L138.411 71.2022C138.87 71.6614 139.235 72.2068 139.483 72.8071C139.732 73.4075 139.86 74.0511 139.86 74.701C139.86 75.3509 139.732 75.9945 139.483 76.5948C139.235 77.1952 138.87 77.7406 138.411 78.1998L138.362 78.2484ZM177.966 68.0976C177.834 68.18 177.698 68.2547 177.558 68.3214C177.529 68.0172 177.529 67.7109 177.558 67.4066C177.584 67.2088 177.626 67.0135 177.684 66.8226V66.1608H177.859H192.441L187.473 68.6913L186.093 70.0733C185.163 70.9951 183.907 71.5121 182.598 71.5121C181.289 71.5121 180.034 70.9951 179.103 70.0733C178.563 69.5031 178.172 68.8075 177.966 68.0489V68.0976ZM162.616 66.1511L162.976 67.5818L163.394 66.1511H162.616ZM170.481 63.1146C170.569 62.5958 170.736 62.0937 170.977 61.6256C171.104 61.3894 171.247 61.1618 171.404 60.9443L171.239 60.6037L170.267 59.6304C170.208 59.796 170.159 59.965 170.121 60.1365C170.204 60.4714 170.253 60.8137 170.267 61.1584C170.277 61.2685 170.277 61.3792 170.267 61.4893C170.258 61.725 170.229 61.9594 170.179 62.19C169.929 63.2938 169.311 64.2797 168.429 64.9868C167.546 65.6939 166.449 66.0803 165.319 66.083H170.928C170.454 65.1496 170.284 64.0912 170.442 63.0562L170.481 63.1146Z" fill="#967351"/>
        <path d="M192.499 66.1123L187.532 68.6427L186.151 70.0247C185.221 70.9465 183.965 71.4636 182.656 71.4636C181.348 71.4636 180.092 70.9465 179.162 70.0247C178.611 69.483 178.2 68.8148 177.966 68.0782C177.834 68.1606 177.698 68.2354 177.558 68.3021C177.529 67.9978 177.529 67.6915 177.558 67.3872C177.584 67.1895 177.626 66.9942 177.684 66.8033V66.1415H177.859L192.499 66.1123Z" fill="#967351"/>
        <path d="M139.811 74.6962C139.812 75.347 139.685 75.9916 139.436 76.5929C139.188 77.1942 138.823 77.7404 138.362 78.1999C137.628 78.9358 136.678 79.4167 135.65 79.5722C135.544 79.7053 135.431 79.8321 135.31 79.9517C134.38 80.8735 133.124 81.3906 131.815 81.3906C130.506 81.3906 129.251 80.8735 128.321 79.9517L114.497 66.1123H133.327L137.021 69.8106L138.411 71.2023C139.321 72.136 139.824 73.3922 139.811 74.6962Z" fill="#967351"/>
        <path d="M110.142 298.793V428H95.978V298.793C95.9832 297.482 96.5064 296.226 97.4335 295.299C98.3606 294.373 99.6162 293.852 100.926 293.849H105.203C106.512 293.852 107.767 294.373 108.692 295.3C109.618 296.227 110.139 297.483 110.142 298.793Z" fill="#FAC8B3"/>
        <path d="M213.118 298.793V428H198.964V298.793C198.966 297.483 199.488 296.227 200.413 295.3C201.339 294.373 202.593 293.852 203.902 293.849H208.18C209.488 293.852 210.743 294.373 211.669 295.3C212.594 296.227 213.115 297.483 213.118 298.793Z" fill="#FAC8B3"/>
        <path d="M133.998 93.4404H110.434C106.912 93.4404 104.057 96.2988 104.057 99.8249V103.173C104.057 106.699 106.912 109.557 110.434 109.557H133.998C137.52 109.557 140.375 106.699 140.375 103.173V99.8249C140.375 96.2988 137.52 93.4404 133.998 93.4404Z" fill="#C39A6C"/>
        <path d="M198.215 93.4404H174.651C171.129 93.4404 168.274 96.2988 168.274 99.8249V103.173C168.274 106.699 171.129 109.557 174.651 109.557H198.215C201.737 109.557 204.592 106.699 204.592 103.173V99.8249C204.592 96.2988 201.737 93.4404 198.215 93.4404Z" fill="#C39A6C"/>
        <path d="M143.301 61.1585C143.302 62.3957 142.837 63.5877 141.998 64.4967L141.852 64.6524C141.496 65.0164 141.082 65.3189 140.627 65.5478C139.94 65.9066 139.176 66.0936 138.401 66.0928H106.108C105.102 66.0956 104.121 65.7861 103.298 65.2071L103.191 65.139C103.015 65.0211 102.855 64.8804 102.715 64.7205C102.42 64.4317 102.165 64.1044 101.957 63.7473C101.498 62.9868 101.256 62.115 101.257 61.2266C101.254 60.5762 101.382 59.9319 101.633 59.3318C101.883 58.7317 102.251 58.1879 102.715 57.7327C103.605 56.8036 104.823 56.259 106.108 56.2144H138.382C138.646 56.2129 138.909 56.2357 139.169 56.2826C140.321 56.4775 141.368 57.0737 142.124 57.9658C142.88 58.8579 143.296 59.9886 143.301 61.1585Z" fill="#614729"/>
        <path d="M170.267 61.1586C170.277 61.2687 170.277 61.3794 170.267 61.4895C170.258 61.7252 170.229 61.9596 170.18 62.1902C169.929 63.2939 169.312 64.2799 168.429 64.987C167.546 65.6941 166.45 66.0805 165.319 66.0831H133.045C131.733 66.0806 130.476 65.5578 129.549 64.6294C128.622 63.7009 128.099 62.4424 128.097 61.1294C128.092 61.0548 128.092 60.9801 128.097 60.9055C128.097 60.7158 128.116 60.5266 128.155 60.3411C128.261 59.6457 128.517 58.9816 128.904 58.3946C129.036 58.1991 129.182 58.0137 129.341 57.8398C129.401 57.7639 129.466 57.6924 129.536 57.6257C130.082 57.0837 130.748 56.6771 131.48 56.4384C131.989 56.2614 132.525 56.1726 133.064 56.1756H165.309C165.523 56.1563 165.738 56.1563 165.951 56.1756C166.038 56.1662 166.126 56.1662 166.213 56.1756C167.034 56.3324 167.801 56.6925 168.447 57.223C169.092 57.7534 169.594 58.4373 169.907 59.2121C170.009 59.4681 170.09 59.7317 170.15 60.0004C170.233 60.3808 170.272 60.7693 170.267 61.1586Z" fill="#614729"/>
        <path d="M197.185 61.1583C197.185 61.5216 197.146 61.8839 197.068 62.2386C197.025 62.4268 196.969 62.6121 196.903 62.7934C196.662 63.4973 196.263 64.1366 195.736 64.662C195.607 64.7927 195.471 64.9161 195.328 65.0318C195.083 65.2293 194.819 65.4021 194.541 65.5476C193.921 65.8852 193.233 66.075 192.528 66.1024C192.438 66.112 192.347 66.112 192.256 66.1024H159.972C159.098 66.0943 158.24 65.8552 157.488 65.4092C156.735 64.9632 156.113 64.326 155.685 63.5622C155.581 63.371 155.49 63.1726 155.413 62.9685C155.182 62.393 155.063 61.7785 155.063 61.1583C155.062 60.9037 155.084 60.6495 155.131 60.3992C155.253 59.5265 155.61 58.7034 156.163 58.0177C156.716 57.3321 157.445 56.8097 158.271 56.5063C158.742 56.3192 159.242 56.2138 159.749 56.1948H192.276C193.262 56.1966 194.226 56.4943 195.042 57.0494C195.858 57.6045 196.489 58.3916 196.854 59.3092C197.085 59.8977 197.198 60.5261 197.185 61.1583Z" fill="#614729"/>
        <path d="M212.194 61.1584C212.189 62.0989 211.918 63.0186 211.412 63.811C210.907 64.6034 210.187 65.236 209.336 65.6353C208.687 65.9451 207.976 66.1048 207.256 66.1025H174.982C174.181 66.1031 173.393 65.9058 172.688 65.5283C171.677 64.9936 170.881 64.1278 170.432 63.0757C170.312 62.7895 170.218 62.4931 170.15 62.1901C170.096 61.9504 170.067 61.7058 170.063 61.4601C170.053 61.3598 170.053 61.2588 170.063 61.1584C170.064 60.8118 170.1 60.4662 170.17 60.1268C170.291 59.62 170.481 59.1321 170.734 58.6767C171.063 58.108 171.503 57.611 172.027 57.2149C172.551 56.8188 173.149 56.5316 173.786 56.3701C174.151 56.272 174.527 56.2229 174.904 56.2241H207.275C208.326 56.2283 209.348 56.5694 210.192 57.1974C210.81 57.6562 211.313 58.2531 211.661 58.9407C212.009 59.6284 212.191 60.3878 212.194 61.1584Z" fill="#614729"/>
        <path d="M218.202 44.224C218.205 44.9896 218.031 45.7456 217.694 46.4327C217.357 47.1199 216.865 47.7196 216.258 48.185L210.775 52.3213L205.642 56.2142L205.04 56.6716L203.747 57.6449L197.652 62.2386L196.922 62.7933L194.191 64.8468L193.433 65.421L192.548 66.0926H183.225C183.059 65.8034 182.925 65.4965 182.827 65.1777C182.727 64.8613 182.662 64.535 182.632 64.2045C182.618 64.0231 182.618 63.8409 182.632 63.6595C182.623 63.4747 182.623 63.2895 182.632 63.1047C182.668 62.7975 182.733 62.4945 182.827 62.1996V62.0926C183.146 61.1762 183.732 60.3763 184.509 59.7957L184.713 59.64L189.194 56.2629L190.565 55.2313L194.327 52.3991L196.816 50.5208L199.576 48.4381L209.541 40.9247L210.299 40.3602C211.344 39.5724 212.66 39.2324 213.956 39.4149C215.252 39.5974 216.422 40.2874 217.21 41.3335C217.842 42.1653 218.19 43.1789 218.202 44.224Z" fill="#614729"/>
        <path d="M207.295 38.6084C207.295 38.7641 207.295 38.9198 207.295 39.0756C207.187 40.2189 206.685 41.2891 205.875 42.1023L199.596 48.3894L197.204 50.7933L195.639 52.3505L192.626 55.387L191.809 56.2143L183.06 64.9734L182.797 65.2167C182.332 65.624 181.79 65.9349 181.203 66.1315H177.986L177.811 66.0731C177.166 65.8289 176.582 65.447 176.1 64.9539C175.206 64.0627 174.694 62.8587 174.671 61.5962C174.666 61.551 174.666 61.5053 174.671 61.46C174.671 60.9585 174.747 60.4599 174.894 59.9807C175.051 59.4568 175.302 58.9656 175.633 58.5306C175.729 58.3801 175.839 58.2398 175.964 58.1121L176.1 57.9661L189.301 44.7495L198.808 35.2215L198.915 35.1145C199.606 34.4233 200.487 33.9529 201.445 33.7628C202.403 33.5726 203.396 33.6714 204.299 34.0464C205.201 34.4215 205.972 35.0561 206.514 35.8699C207.056 36.6836 207.344 37.6401 207.343 38.6181L207.295 38.6084Z" fill="#614729"/>
        <path d="M210.405 43.6789C210.407 44.323 210.28 44.9609 210.033 45.5557C209.786 46.1504 209.424 46.6902 208.967 47.1436L201.297 54.8224L200.004 56.1266L199.936 56.185L196.825 59.2993L193.909 62.219L191.673 64.4575L190.983 65.1485L190.01 66.1217H177.966H177.791V66.0633C177.899 64.92 178.4 63.8498 179.21 63.0366L186.015 56.2239L187.376 54.8614L189.874 52.3602L191.177 51.0366L194.025 48.1168L201.977 40.1558C202.66 39.4794 203.523 39.0156 204.463 38.8204C205.404 38.6252 206.38 38.707 207.275 39.056C208.198 39.4067 208.99 40.0358 209.54 40.8565C210.114 41.6849 210.416 42.6711 210.405 43.6789Z" fill="#614729"/>
        <path d="M178.333 59.4539L196.567 32.7933C198.108 30.5403 197.533 27.4633 195.282 25.9206C193.032 24.378 189.958 24.9538 188.418 27.2068L170.184 53.8674C168.643 56.1204 169.218 59.1974 171.468 60.74C173.719 62.2827 176.792 61.7069 178.333 59.4539Z" fill="#614729"/>
        <path d="M172.005 55.5405L185.353 26.122C186.481 23.6359 185.382 20.7051 182.899 19.5758C180.416 18.4466 177.489 19.5464 176.361 22.0325L163.013 51.451C161.885 53.937 162.983 56.8678 165.467 57.9971C167.95 59.1264 170.877 58.0265 172.005 55.5405Z" fill="#614729"/>
        <path d="M183.091 53.1454L174.846 21.906C174.15 19.2661 171.447 17.6914 168.81 18.3889C166.174 19.0864 164.601 21.7919 165.297 24.4319L173.542 55.6713C174.238 58.3112 176.941 59.8859 179.578 59.1884C182.215 58.4909 183.787 55.7854 183.091 53.1454Z" fill="#614729"/>
        <path d="M158.874 60.2346L167.802 29.1842C168.557 26.5602 167.044 23.8207 164.423 23.0654C161.802 22.31 159.066 23.8248 158.311 26.4487L149.383 57.4991C148.628 60.1231 150.141 62.8626 152.762 63.6179C155.383 64.3733 158.119 62.8585 158.874 60.2346Z" fill="#614729"/>
        <path d="M171.142 38.4622V38.5693C171.134 38.9946 171.068 39.4169 170.948 39.8248L170.16 42.5596V42.7347L168.216 49.6642L166.33 56.2141V56.3016L166.204 56.7299L165.815 58.0924L164.328 63.27L163.511 66.1119L162.976 67.5815L162.568 66.1508H153.109L153.741 63.8053L153.897 63.27L154.743 60.3503L155.929 56.2335L156.016 55.9221L156.502 54.2481L157.805 49.6934L157.853 49.5377L159.623 43.4063L160.915 38.8905L161.431 37.1094C161.583 36.5926 161.816 36.1032 162.121 35.6593C162.613 34.9504 163.28 34.3809 164.056 34.0057C164.833 33.6306 165.693 33.4627 166.554 33.5182C166.883 33.5497 167.208 33.6116 167.526 33.7031L167.701 33.7615C168.699 34.0849 169.563 34.7278 170.16 35.5912C170.209 35.6447 170.251 35.7035 170.287 35.7664C170.536 36.1384 170.729 36.545 170.86 36.9732C171.032 37.4515 171.127 37.9541 171.142 38.4622Z" fill="#614729"/>
        <path d="M140.801 57.5184L115.019 38.0819C112.84 36.4394 109.744 36.8762 108.104 39.0574C106.463 41.2387 106.899 44.3385 109.078 45.981L134.86 65.4175C137.039 67.06 140.135 66.6232 141.776 64.442C143.416 62.2607 142.98 59.1609 140.801 57.5184Z" fill="#614729"/>
        <path d="M157.139 54.8294L134.318 31.9818C132.39 30.051 129.263 30.051 127.334 31.9818C125.406 33.9126 125.406 37.043 127.334 38.9737L150.156 61.8214C152.084 63.7521 155.211 63.7521 157.139 61.8214C159.068 59.8906 159.068 56.7602 157.139 54.8294Z" fill="#614729"/>
        <path d="M147.738 56.5863L124.917 33.7386C122.989 31.8079 119.862 31.8079 117.933 33.7386C116.005 35.6694 116.005 38.7998 117.933 40.7306L140.755 63.5782C142.683 65.509 145.81 65.509 147.738 63.5782C149.667 61.6474 149.667 58.517 147.738 56.5863Z" fill="#614729"/>
        <path d="M133.327 66.1123H119.299L115.255 62.0637L108.557 55.3581L108.45 55.2413C108.067 54.8413 107.758 54.3768 107.536 53.869C107.164 53.0348 107.031 52.1136 107.151 51.2081C107.271 50.3025 107.64 49.4481 108.217 48.7401C108.324 48.6135 108.44 48.487 108.557 48.3702C109.016 47.9113 109.561 47.5476 110.161 47.2997C110.307 47.2391 110.456 47.1871 110.608 47.144C111.465 46.8815 112.377 46.857 113.247 47.0729C114.117 47.2889 114.912 47.7373 115.547 48.3702L128.106 60.9347L133.327 66.1123Z" fill="#614729"/>
        <path d="M128.466 66.1122H114.497L111.454 63.0659L106.195 57.8494L105.505 57.1487V57.1C105.29 56.8896 105.1 56.6544 104.941 56.3993C104.716 56.0767 104.533 55.7268 104.397 55.3579C104.327 55.1744 104.272 54.9856 104.231 54.7934C104.142 54.4204 104.097 54.0383 104.095 53.6547C104.093 52.4796 104.512 51.3426 105.275 50.4499C106.038 49.5571 107.096 48.9677 108.256 48.7886C108.91 48.6925 109.577 48.7292 110.216 48.8964C110.856 49.0636 111.455 49.3579 111.979 49.7618C112.175 49.885 112.354 50.0321 112.514 50.1998L128.466 66.1122Z" fill="#614729"/>
        <path d="M168.421 61.3068L187.835 35.4949C189.476 33.3137 189.039 30.2139 186.861 28.5714C184.682 26.9289 181.586 27.3656 179.945 29.5469L160.531 55.3587C158.89 57.54 159.327 60.6398 161.505 62.2823C163.684 63.9248 166.78 63.488 168.421 61.3068Z" fill="#614729"/>
        <path d="M198.672 41.0315L193.578 47.8442L191.187 51.0267L190.166 52.3795L188.222 54.9683L187.25 56.2432L184.713 59.6203L182.768 62.1507L182.691 62.2578L181.991 63.231L181.485 63.8928L179.774 66.1702H177.937H170.938C170.464 65.2369 170.294 64.1784 170.452 63.1434C170.54 62.6247 170.707 62.1225 170.948 61.6544C171.075 61.4182 171.218 61.1906 171.375 60.9731L171.482 60.8369L174.156 57.1483L174.855 56.1751L175.828 54.9001L181.534 47.3186L185.257 42.3649L190.759 35.0461C191.224 34.4381 191.823 33.9461 192.509 33.6084C193.196 33.2707 193.951 33.0966 194.716 33.0996C195.767 33.1045 196.788 33.4455 197.632 34.0729C198.675 34.8635 199.362 36.0352 199.544 37.3319C199.727 38.6286 199.389 39.9447 198.604 40.9926L198.672 41.0315Z" fill="#614729"/>
        <path d="M160.101 52.7503L141.867 26.0896C140.326 23.8367 137.253 23.2608 135.002 24.8035C132.752 26.3461 132.177 29.4231 133.718 31.6761L151.952 58.3367C153.492 60.5897 156.566 61.1655 158.816 59.6229C161.067 58.0802 161.642 55.0032 160.101 52.7503Z" fill="#614729"/>
        <path d="M162.305 49.227L148.957 19.8085C147.829 17.3225 144.902 16.2226 142.419 17.3519C139.936 18.4812 138.837 21.412 139.965 23.898L153.313 53.3165C154.441 55.8026 157.368 56.9025 159.852 55.7732C162.335 54.6439 163.433 51.7131 162.305 49.227Z" fill="#614729"/>
        <path d="M151.785 53.4418L160.03 22.2024C160.726 19.5624 159.153 16.8569 156.517 16.1594C153.88 15.4619 151.177 17.0366 150.481 19.6765L142.236 50.916C141.54 53.5559 143.112 56.2614 145.749 56.9589C148.386 57.6564 151.089 56.0818 151.785 53.4418Z" fill="#614729"/>
        <path d="M175.93 55.2746L167.002 24.2242C166.247 21.6003 163.511 20.0855 160.89 20.8409C158.269 21.5963 156.756 24.3358 157.511 26.9597L166.439 58.0101C167.194 60.6341 169.93 62.1488 172.551 61.3935C175.172 60.6381 176.685 57.8986 175.93 55.2746Z" fill="#614729"/>
        <path d="M172.843 66.112C172.832 66.0428 172.815 65.9746 172.795 65.9076L172.688 65.5378L171.55 61.5864L171.356 60.9052L171.239 60.6035L170.685 58.657L170.598 58.3553L170.355 57.4988L169.976 56.1947L169.635 54.9295L168.119 49.6643L167.205 46.4915L166.457 43.8735L165.018 38.8614L164.133 35.8249L163.861 34.8516C163.801 34.6391 163.726 34.4309 163.637 34.2288C163.219 33.3056 162.53 32.5319 161.662 32.0103C160.794 31.4888 159.787 31.2442 158.777 31.3091C158.448 31.3406 158.122 31.4025 157.805 31.494L157.63 31.5524C157.339 31.6455 157.058 31.7695 156.794 31.9222C156.146 32.2781 155.587 32.7774 155.161 33.3821C154.694 33.9945 154.378 34.7078 154.237 35.4648C154.19 35.7183 154.167 35.9758 154.169 36.2336C154.172 36.6914 154.237 37.1466 154.363 37.5864L154.713 38.8516L155.18 40.4964L157.708 49.2555L157.814 49.6351L159.623 55.9027L159.72 56.2434L159.836 56.6521V56.7592L160.225 58.0925L161.421 62.2482L162.539 66.1412L162.976 67.5816L163.394 66.1509H172.843V66.112Z" fill="#614729"/>
        <path d="M186.443 156.428C186.21 174.92 171.929 189.869 154.363 189.869C136.797 189.869 122.488 174.939 122.284 156.428" fill="#A60046"/>
    </g>
    <defs>
        <clipPath id="clip0">
            <rect width="160" height="412" fill="white" transform="translate(75 16)"/>
        </clipPath>
    </defs>
</svg>
