<svg viewBox="0 0 309 427" fill="none" xmlns="http://www.w3.org/2000/svg">
    <rect width="309" height="427" fill="#EF476F"/>
    <g clip-path="url(#clip0)">
        <path d="M135.242 207.059V235.75H173.426V207.282L135.242 207.059Z" fill="#967351"/>
        <path d="M183.315 63.3693L216.445 66.7735C219.159 67.0523 221.584 65.0764 221.862 62.3601C222.141 59.6439 220.167 57.2159 217.454 56.9371L184.323 53.5329C181.61 53.2541 179.185 55.23 178.907 57.9463C178.628 60.6625 180.602 63.0905 183.315 63.3693Z"
              fill="#614729"/>
        <path d="M182.37 61.2388L214.644 61.2388C217.372 61.2388 219.583 59.0252 219.583 56.2947C219.583 53.5642 217.372 51.3507 214.644 51.3507L182.37 51.3507C179.643 51.3507 177.432 53.5642 177.432 56.2947C177.432 59.0252 179.643 61.2388 182.37 61.2388Z"
              fill="#614729"/>
        <path d="M137.215 67.4089C137.216 67.8836 137.147 68.3557 137.011 68.8104L133.327 65.1121H124.315L120.271 59.769L117.18 55.662L116.869 55.2435L113.885 51.1948L112.913 49.9004L111.94 48.6741L110.161 46.2994L109.316 45.1705L109.092 44.8785L108.266 43.7788C107.625 42.9231 107.283 41.8799 107.294 40.8104C107.292 39.9337 107.527 39.0729 107.974 38.3189L108.13 38.0853L108.178 38.0269C108.466 37.5742 108.832 37.1756 109.257 36.8493C110.306 36.0635 111.622 35.7248 112.919 35.9071C114.215 36.0895 115.387 36.7781 116.179 37.8226L116.402 38.1145L120.787 43.9539L122.517 46.2508L124.199 48.4892L129.273 55.2337L130.051 56.2654L130.372 56.6936L130.624 57.0245L136.214 64.46C136.375 64.6718 136.518 64.8964 136.642 65.1316L136.729 65.3067C137.045 65.9629 137.211 66.6808 137.215 67.4089Z"
              fill="#614729"/>
        <path d="M118.972 95.2629L104.106 65.4257C102.889 62.9822 99.9234 61.9895 97.4828 63.2083C95.0422 64.427 94.0505 67.3958 95.2679 69.8393L110.134 99.6765C111.351 102.12 114.316 103.113 116.757 101.894C119.197 100.675 120.189 97.7063 118.972 95.2629Z"
              fill="#614729"/>
        <path d="M134.549 47.4632L101.419 44.059C98.7058 43.7802 96.2806 45.7562 96.0022 48.4724C95.7237 51.1886 97.6974 53.6166 100.41 53.8954L133.541 57.2996C136.254 57.5784 138.679 55.6025 138.958 52.8862C139.236 50.17 137.263 47.742 134.549 47.4632Z"
              fill="#614729"/>
        <path d="M126.084 47.9521L93.8848 56.4695C91.248 57.167 89.6751 59.8725 90.3718 62.5124C91.0685 65.1524 93.7709 66.727 96.4078 66.0295L128.607 57.5122C131.244 56.8147 132.817 54.1092 132.12 51.4692C131.424 48.8293 128.721 47.2546 126.084 47.9521Z"
              fill="#614729"/>
        <path d="M235 295.808V427H75V295.808C75.0436 279.895 81.3765 264.645 92.6151 253.392C103.854 242.138 119.084 235.796 134.979 235.75H175.011C190.907 235.796 206.138 242.138 217.379 253.391C228.619 264.644 234.954 279.894 235 295.808Z"
              fill="#7E566B"/>
        <path d="M181.184 62.6888C181.071 62.6266 180.964 62.5549 180.863 62.4747C180.778 62.4152 180.697 62.3502 180.62 62.2801C180.468 62.1539 180.325 62.0173 180.192 61.8713C180.058 61.7286 179.932 61.5792 179.813 61.4236C179.738 61.3211 179.67 61.2138 179.609 61.1024C179.561 61.0346 179.519 60.963 179.483 60.8883C179.483 60.8883 179.483 60.8883 179.483 60.8397C179.438 60.7681 179.399 60.6933 179.366 60.6158C179.315 60.518 179.269 60.4173 179.23 60.3141C179.23 60.2363 179.23 60.1584 179.152 60.0805C178.738 59.7187 178.387 59.2913 178.112 58.8153C178.036 58.917 177.955 59.0145 177.869 59.1073C177.788 59.2076 177.697 59.299 177.597 59.3798L177.412 59.5355C177.163 59.7522 176.889 59.9384 176.595 60.0903L176.07 60.3239C175.925 60.3827 175.776 60.4315 175.623 60.4698C175.499 60.5083 175.373 60.5375 175.244 60.5574C175.046 60.6056 174.845 60.635 174.641 60.645C174.637 60.5997 174.637 60.5541 174.641 60.5088C174.642 60.0073 174.717 59.5087 174.865 59.0295L174.641 59.2533C174.492 59.403 174.333 59.5428 174.165 59.6718L173.903 59.847L172.756 60.392C172.3 60.2487 171.867 60.0388 171.472 59.7691L171.365 59.9054L171.239 59.6037L170.267 58.6304C170.208 58.796 170.159 58.965 170.121 59.1365C170.204 59.4714 170.253 59.8137 170.267 60.1584C170.277 60.2685 170.277 60.3792 170.267 60.4893C170.258 60.725 170.229 60.9594 170.179 61.19C169.929 62.2938 169.311 63.2797 168.429 63.9868C167.546 64.6939 166.449 65.0803 165.319 65.083H153.109L152.526 67.1073C152.164 68.3682 152.317 69.7215 152.951 70.8696C153.585 72.0176 154.649 72.8663 155.909 73.229C157.168 73.5916 158.52 73.4385 159.667 72.8034C160.813 72.1682 161.661 71.103 162.023 69.8421L162.996 66.5136L163.316 67.6231C163.627 68.6902 164.287 69.6216 165.191 70.2669C166.094 70.9122 167.189 71.2338 168.298 71.1798C169.407 71.1258 170.465 70.6994 171.302 69.9693C172.139 69.2393 172.706 68.2482 172.911 67.156C173.621 67.5554 174.419 67.7725 175.233 67.7878C176.047 67.803 176.853 67.6161 177.577 67.2436C177.549 66.9393 177.549 66.633 177.577 66.3287C177.603 66.1309 177.646 65.9356 177.704 65.7448V65.083H177.879H179.716L181.427 62.8056C181.344 62.7715 181.262 62.7325 181.184 62.6888ZM214.926 77.0149L214.751 76.4796C213.56 72.9681 212.057 69.5709 210.26 66.3287C210.241 66.2846 210.218 66.2423 210.192 66.2022C209.91 65.6961 209.628 65.229 209.336 64.7034C208.646 63.5453 207.927 62.4066 207.159 61.2971C206.089 59.714 204.945 58.1827 203.727 56.7034C203.62 56.5574 203.503 56.4212 203.387 56.2849L203.241 56.1195C203.066 55.9054 202.881 55.6913 202.697 55.4869C202.64 55.4111 202.579 55.3396 202.512 55.2728C202.424 55.156 202.317 55.0392 202.22 54.9321C201.919 54.5915 201.608 54.2411 201.248 53.9589C200.451 53.1024 199.644 52.2655 198.798 51.4577C198.254 50.9321 197.7 50.4066 197.136 49.9005L196.767 49.5793C195.863 48.7715 194.939 48.0027 193.996 47.2533L193.559 46.9224C192.159 45.8389 190.717 44.8202 189.233 43.8664L188.64 43.4966C187.532 42.7959 186.404 42.1438 185.257 41.5501C185.053 41.4333 184.849 41.3166 184.635 41.2095C184.236 41.0051 183.838 40.8007 183.429 40.6061H183.361C182.185 40.0222 180.999 39.4869 179.784 38.9905C179.696 38.9905 179.599 38.9127 179.512 38.8737L179.23 38.7667C177.478 38.0561 175.69 37.4389 173.873 36.9175H173.786C172.814 36.645 171.842 36.392 170.87 36.1779H170.763H170.627L169.655 35.9638L168.459 35.4382C167.594 35.2825 166.719 35.1365 165.834 35.01C165.27 34.9321 164.706 34.864 164.133 34.8056C163.559 34.7472 162.811 34.6694 162.189 34.6207L161.051 34.5526L160.021 34.5039H159.739C159.165 34.5039 158.582 34.5039 157.999 34.5039H152.662C151.69 34.5039 150.718 34.5039 149.814 34.5818C149.347 34.5818 148.842 34.5818 148.394 34.6694H148.229C147.558 34.6694 146.888 34.7861 146.217 34.864C145.945 34.864 145.692 34.9224 145.42 34.9516C143.383 35.2083 141.361 35.5754 139.363 36.0513L138.479 36.2655L137.682 36.4796C136.914 36.6742 136.156 36.8981 135.397 37.1316C133.871 37.6085 132.364 38.1049 130.896 38.7375C130.226 39.0003 129.565 39.2825 128.952 39.5745C127.922 40.0319 126.901 40.5477 125.9 41.0246L124.83 41.5891C124.101 41.9881 123.372 42.3969 122.653 42.8153L121.681 43.4285C121.409 43.6037 121.127 43.7691 120.854 43.954C119.882 44.538 119.027 45.1511 118.133 45.7934C117.394 46.319 116.665 46.864 115.955 47.4285L115.809 47.5453L115.586 47.7205C115.129 48.0805 114.682 48.4504 114.244 48.8202L113.184 49.735L112.971 49.92C112.174 50.6207 111.406 51.3506 110.647 52.0903C109.889 52.8299 109.228 53.5209 108.548 54.2606C108.402 54.4066 108.266 54.5526 108.13 54.7083L107.653 55.2338L107.585 55.3117L107.41 55.5063C107.245 55.701 107.08 55.8859 106.924 56.0805C106.769 56.2752 106.496 56.5769 106.292 56.8299C104.734 58.6945 103.28 60.644 101.937 62.6694C101.843 62.7978 101.755 62.931 101.675 63.0684C101.266 63.701 100.868 64.3433 100.479 65.0149C99.0077 67.3923 97.6988 69.8667 96.5614 72.4212C95.855 74.0497 95.2069 75.7075 94.6172 77.3944C92.4961 83.6946 91.4126 90.2983 91.4092 96.9467V149.501C91.4092 176.519 110.122 200.363 135.203 207C139.799 208.221 144.534 208.84 149.289 208.84H160.186C164.642 208.843 169.082 208.301 173.407 207.224C198.915 200.898 218.056 176.83 218.056 149.501V96.4115C218.065 89.8033 217.008 83.237 214.926 76.9662V77.0149ZM138.362 77.2484C137.628 77.9843 136.677 78.4652 135.65 78.6207C135.544 78.7539 135.431 78.8806 135.31 79.0003C134.38 79.9221 133.124 80.4392 131.815 80.4392C130.506 80.4392 129.25 79.9221 128.32 79.0003L114.497 65.1122H133.327L137.021 68.8105L138.411 70.2022C138.87 70.6614 139.235 71.2068 139.483 71.8071C139.732 72.4075 139.86 73.0511 139.86 73.701C139.86 74.3509 139.732 74.9945 139.483 75.5948C139.235 76.1952 138.87 76.7406 138.411 77.1998L138.362 77.2484ZM177.966 67.0976C177.834 67.18 177.698 67.2547 177.558 67.3214C177.529 67.0172 177.529 66.7109 177.558 66.4066C177.584 66.2088 177.626 66.0135 177.684 65.8226V65.1608H177.859H192.441L187.473 67.6913L186.093 69.0733C185.163 69.9951 183.907 70.5121 182.598 70.5121C181.289 70.5121 180.034 69.9951 179.103 69.0733C178.563 68.5031 178.172 67.8075 177.966 67.0489V67.0976ZM162.616 65.1511L162.976 66.5818L163.394 65.1511H162.616ZM170.481 62.1146C170.569 61.5958 170.736 61.0937 170.977 60.6256C171.104 60.3894 171.247 60.1618 171.404 59.9443L171.239 59.6037L170.267 58.6304C170.208 58.796 170.159 58.965 170.121 59.1365C170.204 59.4714 170.253 59.8137 170.267 60.1584C170.277 60.2685 170.277 60.3792 170.267 60.4893C170.258 60.725 170.229 60.9594 170.179 61.19C169.929 62.2938 169.311 63.2797 168.429 63.9868C167.546 64.6939 166.449 65.0803 165.319 65.083H170.928C170.454 64.1496 170.284 63.0912 170.442 62.0562L170.481 62.1146Z"
              fill="#967351"/>
        <path d="M192.499 65.1123L187.532 67.6427L186.151 69.0247C185.221 69.9465 183.965 70.4636 182.656 70.4636C181.348 70.4636 180.092 69.9465 179.162 69.0247C178.611 68.483 178.2 67.8148 177.966 67.0782C177.834 67.1606 177.698 67.2354 177.558 67.3021C177.529 66.9978 177.529 66.6915 177.558 66.3872C177.584 66.1895 177.626 65.9942 177.684 65.8033V65.1415H177.859L192.499 65.1123Z"
              fill="#967351"/>
        <path d="M139.811 73.6962C139.812 74.347 139.685 74.9916 139.436 75.5929C139.188 76.1942 138.823 76.7404 138.362 77.1999C137.628 77.9358 136.678 78.4167 135.65 78.5722C135.544 78.7053 135.431 78.8321 135.31 78.9517C134.38 79.8735 133.124 80.3906 131.815 80.3906C130.506 80.3906 129.251 79.8735 128.321 78.9517L114.497 65.1123H133.327L137.021 68.8106L138.411 70.2023C139.321 71.136 139.824 72.3922 139.811 73.6962Z"
              fill="#967351"/>
        <path d="M110.142 297.793V427H95.978V297.793C95.9832 296.482 96.5064 295.226 97.4335 294.299C98.3606 293.373 99.6162 292.852 100.926 292.849H105.203C106.512 292.852 107.767 293.373 108.692 294.3C109.618 295.227 110.139 296.483 110.142 297.793Z"
              fill="#EF476F"/>
        <path d="M213.118 297.793V427H198.964V297.793C198.966 296.483 199.488 295.227 200.413 294.3C201.339 293.373 202.593 292.852 203.902 292.849H208.18C209.488 292.852 210.743 293.373 211.669 294.3C212.594 295.227 213.115 296.483 213.118 297.793Z"
              fill="#EF476F"/>
        <path d="M133.998 92.4404H110.434C106.912 92.4404 104.057 95.2988 104.057 98.8249V102.173C104.057 105.699 106.912 108.557 110.434 108.557H133.998C137.52 108.557 140.375 105.699 140.375 102.173V98.8249C140.375 95.2988 137.52 92.4404 133.998 92.4404Z"
              fill="#C39A6C"/>
        <path d="M198.215 92.4404H174.651C171.129 92.4404 168.274 95.2988 168.274 98.8249V102.173C168.274 105.699 171.129 108.557 174.651 108.557H198.215C201.737 108.557 204.592 105.699 204.592 102.173V98.8249C204.592 95.2988 201.737 92.4404 198.215 92.4404Z"
              fill="#C39A6C"/>
        <path d="M143.301 60.1585C143.302 61.3957 142.837 62.5877 141.998 63.4967L141.852 63.6524C141.496 64.0164 141.082 64.3189 140.627 64.5478C139.94 64.9066 139.176 65.0936 138.401 65.0928H106.108C105.102 65.0956 104.121 64.7861 103.298 64.2071L103.191 64.139C103.015 64.0211 102.855 63.8804 102.715 63.7205C102.42 63.4317 102.165 63.1044 101.957 62.7473C101.498 61.9868 101.256 61.115 101.257 60.2266C101.254 59.5762 101.382 58.9319 101.633 58.3318C101.883 57.7317 102.251 57.1879 102.715 56.7327C103.605 55.8036 104.823 55.259 106.108 55.2144H138.382C138.646 55.2129 138.909 55.2357 139.169 55.2826C140.321 55.4775 141.368 56.0737 142.124 56.9658C142.88 57.8579 143.296 58.9886 143.301 60.1585Z"
              fill="#614729"/>
        <path d="M170.267 60.1586C170.277 60.2687 170.277 60.3794 170.267 60.4895C170.258 60.7252 170.229 60.9596 170.18 61.1902C169.929 62.2939 169.312 63.2799 168.429 63.987C167.546 64.6941 166.45 65.0805 165.319 65.0831H133.045C131.733 65.0806 130.476 64.5578 129.549 63.6294C128.622 62.7009 128.099 61.4424 128.097 60.1294C128.092 60.0548 128.092 59.9801 128.097 59.9055C128.097 59.7158 128.116 59.5266 128.155 59.3411C128.261 58.6457 128.517 57.9816 128.904 57.3946C129.036 57.1991 129.182 57.0137 129.341 56.8398C129.401 56.7639 129.466 56.6924 129.536 56.6257C130.082 56.0837 130.748 55.6771 131.48 55.4384C131.989 55.2614 132.525 55.1726 133.064 55.1756H165.309C165.523 55.1563 165.738 55.1563 165.951 55.1756C166.038 55.1662 166.126 55.1662 166.213 55.1756C167.034 55.3324 167.801 55.6925 168.447 56.223C169.092 56.7534 169.594 57.4373 169.907 58.2121C170.009 58.4681 170.09 58.7317 170.15 59.0004C170.233 59.3808 170.272 59.7693 170.267 60.1586Z"
              fill="#614729"/>
        <path d="M197.185 60.1583C197.185 60.5216 197.146 60.8839 197.068 61.2386C197.025 61.4268 196.969 61.6121 196.903 61.7934C196.662 62.4973 196.263 63.1366 195.736 63.662C195.607 63.7927 195.471 63.9161 195.328 64.0318C195.083 64.2293 194.819 64.4021 194.541 64.5476C193.921 64.8852 193.233 65.075 192.528 65.1024C192.438 65.112 192.347 65.112 192.256 65.1024H159.972C159.098 65.0943 158.24 64.8552 157.488 64.4092C156.735 63.9632 156.113 63.326 155.685 62.5622C155.581 62.371 155.49 62.1726 155.413 61.9685C155.182 61.393 155.063 60.7785 155.063 60.1583C155.062 59.9037 155.084 59.6495 155.131 59.3992C155.253 58.5265 155.61 57.7034 156.163 57.0177C156.716 56.3321 157.445 55.8097 158.271 55.5063C158.742 55.3192 159.242 55.2138 159.749 55.1948H192.276C193.262 55.1966 194.226 55.4943 195.042 56.0494C195.858 56.6045 196.489 57.3916 196.854 58.3092C197.085 58.8977 197.198 59.5261 197.185 60.1583Z"
              fill="#614729"/>
        <path d="M212.194 60.1584C212.189 61.0989 211.918 62.0186 211.412 62.811C210.907 63.6034 210.187 64.236 209.336 64.6353C208.687 64.9451 207.976 65.1048 207.256 65.1025H174.982C174.181 65.1031 173.393 64.9058 172.688 64.5283C171.677 63.9936 170.881 63.1278 170.432 62.0757C170.312 61.7895 170.218 61.4931 170.15 61.1901C170.096 60.9504 170.067 60.7058 170.063 60.4601C170.053 60.3598 170.053 60.2588 170.063 60.1584C170.064 59.8118 170.1 59.4662 170.17 59.1268C170.291 58.62 170.481 58.1321 170.734 57.6767C171.063 57.108 171.503 56.611 172.027 56.2149C172.551 55.8188 173.149 55.5316 173.786 55.3701C174.151 55.272 174.527 55.2229 174.904 55.2241H207.275C208.326 55.2283 209.348 55.5694 210.192 56.1974C210.81 56.6562 211.313 57.2531 211.661 57.9407C212.009 58.6284 212.191 59.3878 212.194 60.1584Z"
              fill="#614729"/>
        <path d="M218.202 43.224C218.205 43.9896 218.031 44.7456 217.694 45.4327C217.357 46.1199 216.865 46.7196 216.258 47.185L210.775 51.3213L205.642 55.2142L205.04 55.6716L203.747 56.6449L197.652 61.2386L196.922 61.7933L194.191 63.8468L193.433 64.421L192.548 65.0926H183.225C183.059 64.8034 182.925 64.4965 182.827 64.1777C182.727 63.8613 182.662 63.535 182.632 63.2045C182.618 63.0231 182.618 62.8409 182.632 62.6595C182.623 62.4747 182.623 62.2895 182.632 62.1047C182.668 61.7975 182.733 61.4945 182.827 61.1996V61.0926C183.146 60.1762 183.732 59.3763 184.509 58.7957L184.713 58.64L189.194 55.2629L190.565 54.2313L194.327 51.3991L196.816 49.5208L199.576 47.4381L209.541 39.9247L210.299 39.3602C211.344 38.5724 212.66 38.2324 213.956 38.4149C215.252 38.5974 216.422 39.2874 217.21 40.3335C217.842 41.1653 218.19 42.1789 218.202 43.224Z"
              fill="#614729"/>
        <path d="M207.295 37.6084C207.295 37.7641 207.295 37.9198 207.295 38.0756C207.187 39.2189 206.685 40.2891 205.875 41.1023L199.596 47.3894L197.204 49.7933L195.639 51.3505L192.626 54.387L191.809 55.2143L183.06 63.9734L182.797 64.2167C182.332 64.624 181.79 64.9349 181.203 65.1315H177.986L177.811 65.0731C177.166 64.8289 176.582 64.447 176.1 63.9539C175.206 63.0627 174.694 61.8587 174.671 60.5962C174.666 60.551 174.666 60.5053 174.671 60.46C174.671 59.9585 174.747 59.4599 174.894 58.9807C175.051 58.4568 175.302 57.9656 175.633 57.5306C175.729 57.3801 175.839 57.2398 175.964 57.1121L176.1 56.9661L189.301 43.7495L198.808 34.2215L198.915 34.1145C199.606 33.4233 200.487 32.9529 201.445 32.7628C202.403 32.5726 203.396 32.6714 204.299 33.0464C205.201 33.4215 205.972 34.0561 206.514 34.8699C207.056 35.6836 207.344 36.6401 207.343 37.6181L207.295 37.6084Z"
              fill="#614729"/>
        <path d="M210.405 42.6789C210.407 43.323 210.28 43.9609 210.033 44.5557C209.786 45.1504 209.424 45.6902 208.967 46.1436L201.297 53.8224L200.004 55.1266L199.936 55.185L196.825 58.2993L193.909 61.219L191.673 63.4575L190.983 64.1485L190.01 65.1217H177.966H177.791V65.0633C177.899 63.92 178.4 62.8498 179.21 62.0366L186.015 55.2239L187.376 53.8614L189.874 51.3602L191.177 50.0366L194.025 47.1168L201.977 39.1558C202.66 38.4794 203.523 38.0156 204.463 37.8204C205.404 37.6252 206.38 37.707 207.275 38.056C208.198 38.4067 208.99 39.0358 209.54 39.8565C210.114 40.6849 210.416 41.6711 210.405 42.6789Z"
              fill="#614729"/>
        <path d="M178.333 58.4539L196.567 31.7933C198.108 29.5403 197.533 26.4633 195.282 24.9206C193.032 23.378 189.958 23.9538 188.418 26.2068L170.184 52.8674C168.643 55.1204 169.218 58.1974 171.468 59.74C173.719 61.2827 176.792 60.7069 178.333 58.4539Z"
              fill="#614729"/>
        <path d="M172.005 54.5405L185.353 25.122C186.481 22.6359 185.382 19.7051 182.899 18.5758C180.416 17.4466 177.489 18.5464 176.361 21.0325L163.013 50.451C161.885 52.937 162.983 55.8678 165.467 56.9971C167.95 58.1264 170.877 57.0265 172.005 54.5405Z"
              fill="#614729"/>
        <path d="M183.091 52.1454L174.846 20.906C174.15 18.2661 171.447 16.6914 168.81 17.3889C166.174 18.0864 164.601 20.7919 165.297 23.4319L173.542 54.6713C174.238 57.3112 176.941 58.8859 179.578 58.1884C182.215 57.4909 183.787 54.7854 183.091 52.1454Z"
              fill="#614729"/>
        <path d="M158.874 59.2346L167.802 28.1842C168.557 25.5602 167.044 22.8207 164.423 22.0654C161.802 21.31 159.066 22.8248 158.311 25.4487L149.383 56.4991C148.628 59.1231 150.141 61.8626 152.762 62.6179C155.383 63.3733 158.119 61.8585 158.874 59.2346Z"
              fill="#614729"/>
        <path d="M171.142 37.4622V37.5693C171.134 37.9946 171.068 38.4169 170.948 38.8248L170.16 41.5596V41.7347L168.216 48.6642L166.33 55.2141V55.3016L166.204 55.7299L165.815 57.0924L164.328 62.27L163.511 65.1119L162.976 66.5815L162.568 65.1508H153.109L153.741 62.8053L153.897 62.27L154.743 59.3503L155.929 55.2335L156.016 54.9221L156.502 53.2481L157.805 48.6934L157.853 48.5377L159.623 42.4063L160.915 37.8905L161.431 36.1094C161.583 35.5926 161.816 35.1032 162.121 34.6593C162.613 33.9504 163.28 33.3809 164.056 33.0057C164.833 32.6306 165.693 32.4627 166.554 32.5182C166.883 32.5497 167.208 32.6116 167.526 32.7031L167.701 32.7615C168.699 33.0849 169.563 33.7278 170.16 34.5912C170.209 34.6447 170.251 34.7035 170.287 34.7664C170.536 35.1384 170.729 35.545 170.86 35.9732C171.032 36.4515 171.127 36.9541 171.142 37.4622Z"
              fill="#614729"/>
        <path d="M140.801 56.5184L115.019 37.0819C112.84 35.4394 109.744 35.8762 108.104 38.0574C106.463 40.2387 106.899 43.3385 109.078 44.981L134.86 64.4175C137.039 66.06 140.135 65.6232 141.776 63.442C143.416 61.2607 142.98 58.1609 140.801 56.5184Z"
              fill="#614729"/>
        <path d="M157.139 53.8294L134.318 30.9818C132.39 29.051 129.263 29.051 127.334 30.9818C125.406 32.9126 125.406 36.043 127.334 37.9737L150.156 60.8214C152.084 62.7521 155.211 62.7521 157.139 60.8214C159.068 58.8906 159.068 55.7602 157.139 53.8294Z"
              fill="#614729"/>
        <path d="M147.738 55.5863L124.917 32.7386C122.989 30.8079 119.862 30.8079 117.933 32.7386C116.005 34.6694 116.005 37.7998 117.933 39.7306L140.755 62.5782C142.683 64.509 145.81 64.509 147.738 62.5782C149.667 60.6474 149.667 57.517 147.738 55.5863Z"
              fill="#614729"/>
        <path d="M133.327 65.1123H119.299L115.255 61.0637L108.557 54.3581L108.45 54.2413C108.067 53.8413 107.758 53.3768 107.536 52.869C107.164 52.0348 107.031 51.1136 107.151 50.2081C107.271 49.3025 107.64 48.4481 108.217 47.7401C108.324 47.6135 108.44 47.487 108.557 47.3702C109.016 46.9113 109.561 46.5476 110.161 46.2997C110.307 46.2391 110.456 46.1871 110.608 46.144C111.465 45.8815 112.377 45.857 113.247 46.0729C114.117 46.2889 114.912 46.7373 115.547 47.3702L128.106 59.9347L133.327 65.1123Z"
              fill="#614729"/>
        <path d="M128.466 65.1122H114.497L111.454 62.0659L106.195 56.8494L105.505 56.1487V56.1C105.29 55.8896 105.1 55.6544 104.941 55.3993C104.716 55.0767 104.533 54.7268 104.397 54.3579C104.327 54.1744 104.272 53.9856 104.231 53.7934C104.142 53.4204 104.097 53.0383 104.095 52.6547C104.093 51.4796 104.512 50.3426 105.275 49.4499C106.038 48.5571 107.096 47.9677 108.256 47.7886C108.91 47.6925 109.577 47.7292 110.216 47.8964C110.856 48.0636 111.455 48.3579 111.979 48.7618C112.175 48.885 112.354 49.0321 112.514 49.1998L128.466 65.1122Z"
              fill="#614729"/>
        <path d="M168.421 60.3068L187.835 34.4949C189.476 32.3137 189.039 29.2139 186.861 27.5714C184.682 25.9289 181.586 26.3656 179.945 28.5469L160.531 54.3587C158.89 56.54 159.327 59.6398 161.505 61.2823C163.684 62.9248 166.78 62.488 168.421 60.3068Z"
              fill="#614729"/>
        <path d="M198.672 40.0315L193.578 46.8442L191.187 50.0267L190.166 51.3795L188.222 53.9683L187.25 55.2432L184.713 58.6203L182.768 61.1507L182.691 61.2578L181.991 62.231L181.485 62.8928L179.774 65.1702H177.937H170.938C170.464 64.2369 170.294 63.1784 170.452 62.1434C170.54 61.6247 170.707 61.1225 170.948 60.6544C171.075 60.4182 171.218 60.1906 171.375 59.9731L171.482 59.8369L174.156 56.1483L174.855 55.1751L175.828 53.9001L181.534 46.3186L185.257 41.3649L190.759 34.0461C191.224 33.4381 191.823 32.9461 192.509 32.6084C193.196 32.2707 193.951 32.0966 194.716 32.0996C195.767 32.1045 196.788 32.4455 197.632 33.0729C198.675 33.8635 199.362 35.0352 199.544 36.3319C199.727 37.6286 199.389 38.9447 198.604 39.9926L198.672 40.0315Z"
              fill="#614729"/>
        <path d="M160.101 51.7503L141.867 25.0896C140.326 22.8367 137.253 22.2608 135.002 23.8035C132.752 25.3461 132.177 28.4231 133.718 30.6761L151.952 57.3367C153.492 59.5897 156.566 60.1655 158.816 58.6229C161.067 57.0802 161.642 54.0032 160.101 51.7503Z"
              fill="#614729"/>
        <path d="M162.305 48.227L148.957 18.8085C147.829 16.3225 144.902 15.2226 142.419 16.3519C139.936 17.4812 138.837 20.412 139.965 22.898L153.313 52.3165C154.441 54.8026 157.368 55.9025 159.852 54.7732C162.335 53.6439 163.433 50.7131 162.305 48.227Z"
              fill="#614729"/>
        <path d="M151.785 52.4418L160.03 21.2024C160.726 18.5624 159.153 15.8569 156.517 15.1594C153.88 14.4619 151.177 16.0366 150.481 18.6765L142.236 49.916C141.54 52.5559 143.112 55.2614 145.749 55.9589C148.386 56.6564 151.089 55.0818 151.785 52.4418Z"
              fill="#614729"/>
        <path d="M175.93 54.2746L167.002 23.2242C166.247 20.6003 163.511 19.0855 160.89 19.8409C158.269 20.5963 156.756 23.3358 157.511 25.9597L166.439 57.0101C167.194 59.6341 169.93 61.1488 172.551 60.3935C175.172 59.6381 176.685 56.8986 175.93 54.2746Z"
              fill="#614729"/>
        <path d="M172.843 65.112C172.832 65.0428 172.815 64.9746 172.795 64.9076L172.688 64.5378L171.55 60.5864L171.356 59.9052L171.239 59.6035L170.685 57.657L170.598 57.3553L170.355 56.4988L169.976 55.1947L169.635 53.9295L168.119 48.6643L167.205 45.4915L166.457 42.8735L165.018 37.8614L164.133 34.8249L163.861 33.8516C163.801 33.6391 163.726 33.4309 163.637 33.2288C163.219 32.3056 162.53 31.5319 161.662 31.0103C160.794 30.4888 159.787 30.2442 158.777 30.3091C158.448 30.3406 158.122 30.4025 157.805 30.494L157.63 30.5524C157.339 30.6455 157.058 30.7695 156.794 30.9222C156.146 31.2781 155.587 31.7774 155.161 32.3821C154.694 32.9945 154.378 33.7078 154.237 34.4648C154.19 34.7183 154.167 34.9758 154.169 35.2336C154.172 35.6914 154.237 36.1466 154.363 36.5864L154.713 37.8516L155.18 39.4964L157.708 48.2555L157.814 48.6351L159.623 54.9027L159.72 55.2434L159.836 55.6521V55.7592L160.225 57.0925L161.421 61.2482L162.539 65.1412L162.976 66.5816L163.394 65.1509H172.843V65.112Z"
              fill="#614729"/>
        <path d="M186.443 155.428C186.21 173.92 171.929 188.869 154.363 188.869C136.797 188.869 122.488 173.939 122.284 155.428"
              fill="#A60046"/>
    </g>
    <defs>
        <clipPath id="clip0">
            <rect width="160" height="412" fill="white" transform="translate(75 15)"/>
        </clipPath>
    </defs>
</svg>
