<svg width="323" height="428" viewBox="0 0 323 428" fill="none" xmlns="http://www.w3.org/2000/svg">
    <rect x="12" width="309" height="427" fill="#EF476F"/>
    <path d="M310.5 15C310.5 13.6193 309.381 12.5 308 12.5H285.5C284.119 12.5 283 13.6193 283 15C283 16.3807 284.119 17.5 285.5 17.5H305.5V37.5C305.5 38.8807 306.619 40 308 40C309.381 40 310.5 38.8807 310.5 37.5V15ZM306.232 13.2322L284.232 35.2322L287.768 38.7678L309.768 16.7678L306.232 13.2322Z" fill="white"/>
    <g clip-path="url(#clip0)">
        <path d="M147.242 208.059V236.75H185.426V208.282L147.242 208.059Z" fill="#967351"/>
        <path d="M195.315 64.3693L228.445 67.7735C231.159 68.0523 233.584 66.0764 233.862 63.3601C234.141 60.6439 232.167 58.2159 229.454 57.9371L196.323 54.5329C193.61 54.2541 191.185 56.23 190.907 58.9463C190.628 61.6625 192.602 64.0905 195.315 64.3693Z" fill="#614729"/>
        <path d="M194.37 62.2388L226.644 62.2388C229.372 62.2388 231.583 60.0252 231.583 57.2947C231.583 54.5642 229.372 52.3507 226.644 52.3507L194.37 52.3507C191.643 52.3507 189.432 54.5642 189.432 57.2947C189.432 60.0252 191.643 62.2388 194.37 62.2388Z" fill="#614729"/>
        <path d="M149.215 68.4089C149.216 68.8836 149.147 69.3557 149.011 69.8104L145.327 66.1121H136.315L132.271 60.769L129.18 56.662L128.869 56.2435L125.885 52.1948L124.913 50.9004L123.94 49.6741L122.161 47.2994L121.316 46.1705L121.092 45.8785L120.266 44.7788C119.625 43.9231 119.283 42.8799 119.294 41.8104C119.292 40.9337 119.527 40.0729 119.974 39.3189L120.13 39.0853L120.178 39.0269C120.466 38.5742 120.832 38.1756 121.257 37.8493C122.306 37.0635 123.622 36.7248 124.919 36.9071C126.215 37.0895 127.387 37.7781 128.179 38.8226L128.402 39.1145L132.787 44.9539L134.517 47.2508L136.199 49.4892L141.273 56.2337L142.051 57.2654L142.372 57.6936L142.624 58.0245L148.214 65.46C148.375 65.6718 148.518 65.8964 148.642 66.1316L148.729 66.3067C149.045 66.9629 149.211 67.6808 149.215 68.4089Z" fill="#614729"/>
        <path d="M130.972 96.2629L116.106 66.4257C114.889 63.9822 111.923 62.9895 109.483 64.2083C107.042 65.427 106.051 68.3958 107.268 70.8393L122.134 100.677C123.351 103.12 126.316 104.113 128.757 102.894C131.197 101.675 132.189 98.7063 130.972 96.2629Z" fill="#614729"/>
        <path d="M146.549 48.4632L113.419 45.059C110.706 44.7802 108.281 46.7562 108.002 49.4724C107.724 52.1886 109.697 54.6166 112.41 54.8954L145.541 58.2996C148.254 58.5784 150.679 56.6025 150.958 53.8862C151.236 51.17 149.263 48.742 146.549 48.4632Z" fill="#614729"/>
        <path d="M138.084 48.9521L105.885 57.4695C103.248 58.167 101.675 60.8725 102.372 63.5124C103.069 66.1524 105.771 67.727 108.408 67.0295L140.607 58.5122C143.244 57.8147 144.817 55.1092 144.12 52.4692C143.424 49.8293 140.721 48.2546 138.084 48.9521Z" fill="#614729"/>
        <path d="M247 296.808V428H87V296.808C87.0436 280.895 93.3765 265.645 104.615 254.392C115.854 243.138 131.084 236.796 146.979 236.75H187.011C202.907 236.796 218.138 243.138 229.379 254.391C240.619 265.644 246.954 280.894 247 296.808Z" fill="#7E566B"/>
        <path d="M193.184 63.6888C193.071 63.6266 192.964 63.5549 192.863 63.4747C192.778 63.4152 192.697 63.3502 192.62 63.2801C192.468 63.1539 192.325 63.0173 192.192 62.8713C192.058 62.7286 191.932 62.5792 191.813 62.4236C191.738 62.3211 191.67 62.2138 191.609 62.1024C191.561 62.0346 191.519 61.963 191.483 61.8883C191.483 61.8883 191.483 61.8883 191.483 61.8397C191.438 61.7681 191.399 61.6933 191.366 61.6158C191.315 61.518 191.269 61.4173 191.23 61.3141C191.23 61.2363 191.23 61.1584 191.152 61.0805C190.738 60.7187 190.387 60.2913 190.112 59.8153C190.036 59.917 189.955 60.0145 189.869 60.1073C189.788 60.2076 189.697 60.299 189.597 60.3798L189.412 60.5355C189.163 60.7522 188.889 60.9384 188.595 61.0903L188.07 61.3239C187.925 61.3827 187.776 61.4315 187.623 61.4698C187.499 61.5083 187.373 61.5375 187.244 61.5574C187.046 61.6056 186.845 61.635 186.641 61.645C186.637 61.5997 186.637 61.5541 186.641 61.5088C186.642 61.0073 186.717 60.5087 186.865 60.0295L186.641 60.2533C186.492 60.403 186.333 60.5428 186.165 60.6718L185.903 60.847L184.756 61.392C184.3 61.2487 183.867 61.0388 183.472 60.7691L183.365 60.9054L183.239 60.6037L182.267 59.6304C182.208 59.796 182.159 59.965 182.121 60.1365C182.204 60.4714 182.253 60.8137 182.267 61.1584C182.277 61.2685 182.277 61.3792 182.267 61.4893C182.258 61.725 182.229 61.9594 182.179 62.19C181.929 63.2938 181.311 64.2797 180.429 64.9868C179.546 65.6939 178.449 66.0803 177.319 66.083H165.109L164.526 68.1073C164.164 69.3682 164.317 70.7215 164.951 71.8696C165.585 73.0176 166.649 73.8663 167.909 74.229C169.168 74.5916 170.52 74.4385 171.667 73.8034C172.813 73.1682 173.661 72.103 174.023 70.8421L174.996 67.5136L175.316 68.6231C175.627 69.6902 176.287 70.6216 177.191 71.2669C178.094 71.9122 179.189 72.2338 180.298 72.1798C181.407 72.1258 182.465 71.6994 183.302 70.9693C184.139 70.2393 184.706 69.2482 184.911 68.156C185.621 68.5554 186.419 68.7725 187.233 68.7878C188.047 68.803 188.853 68.6161 189.577 68.2436C189.549 67.9393 189.549 67.633 189.577 67.3287C189.603 67.1309 189.646 66.9356 189.704 66.7448V66.083H189.879H191.716L193.427 63.8056C193.344 63.7715 193.262 63.7325 193.184 63.6888ZM226.926 78.0149L226.751 77.4796C225.56 73.9681 224.057 70.5709 222.26 67.3287C222.241 67.2846 222.218 67.2423 222.192 67.2022C221.91 66.6961 221.628 66.229 221.336 65.7034C220.646 64.5453 219.927 63.4066 219.159 62.2971C218.089 60.714 216.945 59.1827 215.727 57.7034C215.62 57.5574 215.503 57.4212 215.387 57.2849L215.241 57.1195C215.066 56.9054 214.881 56.6913 214.697 56.4869C214.64 56.4111 214.579 56.3396 214.512 56.2728C214.424 56.156 214.317 56.0392 214.22 55.9321C213.919 55.5915 213.608 55.2411 213.248 54.9589C212.451 54.1024 211.644 53.2655 210.798 52.4577C210.254 51.9321 209.7 51.4066 209.136 50.9005L208.767 50.5793C207.863 49.7715 206.939 49.0027 205.996 48.2533L205.559 47.9224C204.159 46.8389 202.717 45.8202 201.233 44.8664L200.64 44.4966C199.532 43.7959 198.404 43.1438 197.257 42.5501C197.053 42.4333 196.849 42.3166 196.635 42.2095C196.236 42.0051 195.838 41.8007 195.429 41.6061H195.361C194.185 41.0222 192.999 40.4869 191.784 39.9905C191.696 39.9905 191.599 39.9127 191.512 39.8737L191.23 39.7667C189.478 39.0561 187.69 38.4389 185.873 37.9175H185.786C184.814 37.645 183.842 37.392 182.87 37.1779H182.763H182.627L181.655 36.9638L180.459 36.4382C179.594 36.2825 178.719 36.1365 177.834 36.01C177.27 35.9321 176.706 35.864 176.133 35.8056C175.559 35.7472 174.811 35.6694 174.189 35.6207L173.051 35.5526L172.021 35.5039H171.739C171.165 35.5039 170.582 35.5039 169.999 35.5039H164.662C163.69 35.5039 162.718 35.5039 161.814 35.5818C161.347 35.5818 160.842 35.5818 160.394 35.6694H160.229C159.558 35.6694 158.888 35.7861 158.217 35.864C157.945 35.864 157.692 35.9224 157.42 35.9516C155.383 36.2083 153.361 36.5754 151.363 37.0513L150.479 37.2655L149.682 37.4796C148.914 37.6742 148.156 37.8981 147.397 38.1316C145.871 38.6085 144.364 39.1049 142.896 39.7375C142.226 40.0003 141.565 40.2825 140.952 40.5745C139.922 41.0319 138.901 41.5477 137.9 42.0246L136.83 42.5891C136.101 42.9881 135.372 43.3969 134.653 43.8153L133.681 44.4285C133.409 44.6037 133.127 44.7691 132.854 44.954C131.882 45.538 131.027 46.1511 130.133 46.7934C129.394 47.319 128.665 47.864 127.955 48.4285L127.809 48.5453L127.586 48.7205C127.129 49.0805 126.682 49.4504 126.244 49.8202L125.184 50.735L124.971 50.92C124.174 51.6207 123.406 52.3506 122.647 53.0903C121.889 53.8299 121.228 54.5209 120.548 55.2606C120.402 55.4066 120.266 55.5526 120.13 55.7083L119.653 56.2338L119.585 56.3117L119.41 56.5063C119.245 56.701 119.08 56.8859 118.924 57.0805C118.769 57.2752 118.496 57.5769 118.292 57.8299C116.734 59.6945 115.28 61.644 113.937 63.6694C113.843 63.7978 113.755 63.931 113.675 64.0684C113.266 64.701 112.868 65.3433 112.479 66.0149C111.008 68.3923 109.699 70.8667 108.561 73.4212C107.855 75.0497 107.207 76.7075 106.617 78.3944C104.496 84.6946 103.413 91.2983 103.409 97.9467V150.501C103.409 177.519 122.122 201.363 147.203 208C151.799 209.221 156.534 209.84 161.289 209.84H172.186C176.642 209.843 181.082 209.301 185.407 208.224C210.915 201.898 230.056 177.83 230.056 150.501V97.4115C230.065 90.8033 229.008 84.237 226.926 77.9662V78.0149ZM150.362 78.2484C149.628 78.9843 148.677 79.4652 147.65 79.6207C147.544 79.7539 147.431 79.8806 147.31 80.0003C146.38 80.9221 145.124 81.4392 143.815 81.4392C142.506 81.4392 141.25 80.9221 140.32 80.0003L126.497 66.1122H145.327L149.021 69.8105L150.411 71.2022C150.87 71.6614 151.235 72.2068 151.483 72.8071C151.732 73.4075 151.86 74.0511 151.86 74.701C151.86 75.3509 151.732 75.9945 151.483 76.5948C151.235 77.1952 150.87 77.7406 150.411 78.1998L150.362 78.2484ZM189.966 68.0976C189.834 68.18 189.698 68.2547 189.558 68.3214C189.529 68.0172 189.529 67.7109 189.558 67.4066C189.584 67.2088 189.626 67.0135 189.684 66.8226V66.1608H189.859H204.441L199.473 68.6913L198.093 70.0733C197.163 70.9951 195.907 71.5121 194.598 71.5121C193.289 71.5121 192.034 70.9951 191.103 70.0733C190.563 69.5031 190.172 68.8075 189.966 68.0489V68.0976ZM174.616 66.1511L174.976 67.5818L175.394 66.1511H174.616ZM182.481 63.1146C182.569 62.5958 182.736 62.0937 182.977 61.6256C183.104 61.3894 183.247 61.1618 183.404 60.9443L183.239 60.6037L182.267 59.6304C182.208 59.796 182.159 59.965 182.121 60.1365C182.204 60.4714 182.253 60.8137 182.267 61.1584C182.277 61.2685 182.277 61.3792 182.267 61.4893C182.258 61.725 182.229 61.9594 182.179 62.19C181.929 63.2938 181.311 64.2797 180.429 64.9868C179.546 65.6939 178.449 66.0803 177.319 66.083H182.928C182.454 65.1496 182.284 64.0912 182.442 63.0562L182.481 63.1146Z" fill="#967351"/>
        <path d="M204.499 66.1123L199.532 68.6427L198.151 70.0247C197.221 70.9465 195.965 71.4636 194.656 71.4636C193.348 71.4636 192.092 70.9465 191.162 70.0247C190.611 69.483 190.2 68.8148 189.966 68.0782C189.834 68.1606 189.698 68.2354 189.558 68.3021C189.529 67.9978 189.529 67.6915 189.558 67.3872C189.584 67.1895 189.626 66.9942 189.684 66.8033V66.1415H189.859L204.499 66.1123Z" fill="#967351"/>
        <path d="M151.811 74.6962C151.812 75.347 151.685 75.9916 151.436 76.5929C151.188 77.1942 150.823 77.7404 150.362 78.1999C149.628 78.9358 148.678 79.4167 147.65 79.5722C147.544 79.7053 147.431 79.8321 147.31 79.9517C146.38 80.8735 145.124 81.3906 143.815 81.3906C142.506 81.3906 141.251 80.8735 140.321 79.9517L126.497 66.1123H145.327L149.021 69.8106L150.411 71.2023C151.321 72.136 151.824 73.3922 151.811 74.6962Z" fill="#967351"/>
        <path d="M122.142 298.793V428H107.978V298.793C107.983 297.482 108.506 296.226 109.434 295.299C110.361 294.373 111.616 293.852 112.926 293.849H117.203C118.512 293.852 119.767 294.373 120.692 295.3C121.618 296.227 122.139 297.483 122.142 298.793Z" fill="#FAC8B3"/>
        <path d="M225.118 298.793V428H210.964V298.793C210.966 297.483 211.488 296.227 212.413 295.3C213.339 294.373 214.593 293.852 215.902 293.849H220.18C221.488 293.852 222.743 294.373 223.669 295.3C224.594 296.227 225.115 297.483 225.118 298.793Z" fill="#FAC8B3"/>
        <path d="M145.998 93.4404H122.434C118.912 93.4404 116.057 96.2988 116.057 99.8249V103.173C116.057 106.699 118.912 109.557 122.434 109.557H145.998C149.52 109.557 152.375 106.699 152.375 103.173V99.8249C152.375 96.2988 149.52 93.4404 145.998 93.4404Z" fill="#C39A6C"/>
        <path d="M210.215 93.4404H186.651C183.129 93.4404 180.274 96.2988 180.274 99.8249V103.173C180.274 106.699 183.129 109.557 186.651 109.557H210.215C213.737 109.557 216.592 106.699 216.592 103.173V99.8249C216.592 96.2988 213.737 93.4404 210.215 93.4404Z" fill="#C39A6C"/>
        <path d="M155.301 61.1585C155.302 62.3957 154.837 63.5877 153.998 64.4967L153.852 64.6524C153.496 65.0164 153.082 65.3189 152.627 65.5478C151.94 65.9066 151.176 66.0936 150.401 66.0928H118.108C117.102 66.0956 116.121 65.7861 115.298 65.2071L115.191 65.139C115.015 65.0211 114.855 64.8804 114.715 64.7205C114.42 64.4317 114.165 64.1044 113.957 63.7473C113.498 62.9868 113.256 62.115 113.257 61.2266C113.254 60.5762 113.382 59.9319 113.633 59.3318C113.883 58.7317 114.251 58.1879 114.715 57.7327C115.605 56.8036 116.823 56.259 118.108 56.2144H150.382C150.646 56.2129 150.909 56.2357 151.169 56.2826C152.321 56.4775 153.368 57.0737 154.124 57.9658C154.88 58.8579 155.296 59.9886 155.301 61.1585Z" fill="#614729"/>
        <path d="M182.267 61.1586C182.277 61.2687 182.277 61.3794 182.267 61.4895C182.258 61.7252 182.229 61.9596 182.18 62.1902C181.929 63.2939 181.312 64.2799 180.429 64.987C179.546 65.6941 178.45 66.0805 177.319 66.0831H145.045C143.733 66.0806 142.476 65.5578 141.549 64.6294C140.622 63.7009 140.099 62.4424 140.097 61.1294C140.092 61.0548 140.092 60.9801 140.097 60.9055C140.097 60.7158 140.116 60.5266 140.155 60.3411C140.261 59.6457 140.517 58.9816 140.904 58.3946C141.036 58.1991 141.182 58.0137 141.341 57.8398C141.401 57.7639 141.466 57.6924 141.536 57.6257C142.082 57.0837 142.748 56.6771 143.48 56.4384C143.989 56.2614 144.525 56.1726 145.064 56.1756H177.309C177.523 56.1563 177.738 56.1563 177.951 56.1756C178.038 56.1662 178.126 56.1662 178.213 56.1756C179.034 56.3324 179.801 56.6925 180.447 57.223C181.092 57.7534 181.594 58.4373 181.907 59.2121C182.009 59.4681 182.09 59.7317 182.15 60.0004C182.233 60.3808 182.272 60.7693 182.267 61.1586Z" fill="#614729"/>
        <path d="M209.185 61.1583C209.185 61.5216 209.146 61.8839 209.068 62.2386C209.025 62.4268 208.969 62.6121 208.903 62.7934C208.662 63.4973 208.263 64.1366 207.736 64.662C207.607 64.7927 207.471 64.9161 207.328 65.0318C207.083 65.2293 206.819 65.4021 206.541 65.5476C205.921 65.8852 205.233 66.075 204.528 66.1024C204.438 66.112 204.347 66.112 204.256 66.1024H171.972C171.098 66.0943 170.24 65.8552 169.488 65.4092C168.735 64.9632 168.113 64.326 167.685 63.5622C167.581 63.371 167.49 63.1726 167.413 62.9685C167.182 62.393 167.063 61.7785 167.063 61.1583C167.062 60.9037 167.084 60.6495 167.131 60.3992C167.253 59.5265 167.61 58.7034 168.163 58.0177C168.716 57.3321 169.445 56.8097 170.271 56.5063C170.742 56.3192 171.242 56.2138 171.749 56.1948H204.276C205.262 56.1966 206.226 56.4943 207.042 57.0494C207.858 57.6045 208.489 58.3916 208.854 59.3092C209.085 59.8977 209.198 60.5261 209.185 61.1583Z" fill="#614729"/>
        <path d="M224.194 61.1584C224.189 62.0989 223.918 63.0186 223.412 63.811C222.907 64.6034 222.187 65.236 221.336 65.6353C220.687 65.9451 219.976 66.1048 219.256 66.1025H186.982C186.181 66.1031 185.393 65.9058 184.688 65.5283C183.677 64.9936 182.881 64.1278 182.432 63.0757C182.312 62.7895 182.218 62.4931 182.15 62.1901C182.096 61.9504 182.067 61.7058 182.063 61.4601C182.053 61.3598 182.053 61.2588 182.063 61.1584C182.064 60.8118 182.1 60.4662 182.17 60.1268C182.291 59.62 182.481 59.1321 182.734 58.6767C183.063 58.108 183.503 57.611 184.027 57.2149C184.551 56.8188 185.149 56.5316 185.786 56.3701C186.151 56.272 186.527 56.2229 186.904 56.2241H219.275C220.326 56.2283 221.348 56.5694 222.192 57.1974C222.81 57.6562 223.313 58.2531 223.661 58.9407C224.009 59.6284 224.191 60.3878 224.194 61.1584Z" fill="#614729"/>
        <path d="M230.202 44.224C230.205 44.9896 230.031 45.7456 229.694 46.4327C229.357 47.1199 228.865 47.7196 228.258 48.185L222.775 52.3213L217.642 56.2142L217.04 56.6716L215.747 57.6449L209.652 62.2386L208.922 62.7933L206.191 64.8468L205.433 65.421L204.548 66.0926H195.225C195.059 65.8034 194.925 65.4965 194.827 65.1777C194.727 64.8613 194.662 64.535 194.632 64.2045C194.618 64.0231 194.618 63.8409 194.632 63.6595C194.623 63.4747 194.623 63.2895 194.632 63.1047C194.668 62.7975 194.733 62.4945 194.827 62.1996V62.0926C195.146 61.1762 195.732 60.3763 196.509 59.7957L196.713 59.64L201.194 56.2629L202.565 55.2313L206.327 52.3991L208.816 50.5208L211.576 48.4381L221.541 40.9247L222.299 40.3602C223.344 39.5724 224.66 39.2324 225.956 39.4149C227.252 39.5974 228.422 40.2874 229.21 41.3335C229.842 42.1653 230.19 43.1789 230.202 44.224Z" fill="#614729"/>
        <path d="M219.295 38.6084C219.295 38.7641 219.295 38.9198 219.295 39.0756C219.187 40.2189 218.685 41.2891 217.875 42.1023L211.596 48.3894L209.204 50.7933L207.639 52.3505L204.626 55.387L203.809 56.2143L195.06 64.9734L194.797 65.2167C194.332 65.624 193.79 65.9349 193.203 66.1315H189.986L189.811 66.0731C189.166 65.8289 188.582 65.447 188.1 64.9539C187.206 64.0627 186.694 62.8587 186.671 61.5962C186.666 61.551 186.666 61.5053 186.671 61.46C186.671 60.9585 186.747 60.4599 186.894 59.9807C187.051 59.4568 187.302 58.9656 187.633 58.5306C187.729 58.3801 187.839 58.2398 187.964 58.1121L188.1 57.9661L201.301 44.7495L210.808 35.2215L210.915 35.1145C211.606 34.4233 212.487 33.9529 213.445 33.7628C214.403 33.5726 215.396 33.6714 216.299 34.0464C217.201 34.4215 217.972 35.0561 218.514 35.8699C219.056 36.6836 219.344 37.6401 219.343 38.6181L219.295 38.6084Z" fill="#614729"/>
        <path d="M222.405 43.6789C222.407 44.323 222.28 44.9609 222.033 45.5557C221.786 46.1504 221.424 46.6902 220.967 47.1436L213.297 54.8224L212.004 56.1266L211.936 56.185L208.825 59.2993L205.909 62.219L203.673 64.4575L202.983 65.1485L202.01 66.1217H189.966H189.791V66.0633C189.899 64.92 190.4 63.8498 191.21 63.0366L198.015 56.2239L199.376 54.8614L201.874 52.3602L203.177 51.0366L206.025 48.1168L213.977 40.1558C214.66 39.4794 215.523 39.0156 216.463 38.8204C217.404 38.6252 218.38 38.707 219.275 39.056C220.198 39.4067 220.99 40.0358 221.54 40.8565C222.114 41.6849 222.416 42.6711 222.405 43.6789Z" fill="#614729"/>
        <path d="M190.333 59.4539L208.567 32.7933C210.108 30.5403 209.533 27.4633 207.282 25.9206C205.032 24.378 201.958 24.9538 200.418 27.2068L182.184 53.8674C180.643 56.1204 181.218 59.1974 183.468 60.74C185.719 62.2827 188.792 61.7069 190.333 59.4539Z" fill="#614729"/>
        <path d="M184.005 55.5405L197.353 26.122C198.481 23.6359 197.382 20.7051 194.899 19.5758C192.416 18.4466 189.489 19.5464 188.361 22.0325L175.013 51.451C173.885 53.937 174.983 56.8678 177.467 57.9971C179.95 59.1264 182.877 58.0265 184.005 55.5405Z" fill="#614729"/>
        <path d="M195.091 53.1454L186.846 21.906C186.15 19.2661 183.447 17.6914 180.81 18.3889C178.174 19.0864 176.601 21.7919 177.297 24.4319L185.542 55.6713C186.238 58.3112 188.941 59.8859 191.578 59.1884C194.215 58.4909 195.787 55.7854 195.091 53.1454Z" fill="#614729"/>
        <path d="M170.874 60.2346L179.802 29.1842C180.557 26.5602 179.044 23.8207 176.423 23.0654C173.802 22.31 171.066 23.8248 170.311 26.4487L161.383 57.4991C160.628 60.1231 162.141 62.8626 164.762 63.6179C167.383 64.3733 170.119 62.8585 170.874 60.2346Z" fill="#614729"/>
        <path d="M183.142 38.4622V38.5693C183.134 38.9946 183.068 39.4169 182.948 39.8248L182.16 42.5596V42.7347L180.216 49.6642L178.33 56.2141V56.3016L178.204 56.7299L177.815 58.0924L176.328 63.27L175.511 66.1119L174.976 67.5815L174.568 66.1508H165.109L165.741 63.8053L165.897 63.27L166.743 60.3503L167.929 56.2335L168.016 55.9221L168.502 54.2481L169.805 49.6934L169.853 49.5377L171.623 43.4063L172.915 38.8905L173.431 37.1094C173.583 36.5926 173.816 36.1032 174.121 35.6593C174.613 34.9504 175.28 34.3809 176.056 34.0057C176.833 33.6306 177.693 33.4627 178.554 33.5182C178.883 33.5497 179.208 33.6116 179.526 33.7031L179.701 33.7615C180.699 34.0849 181.563 34.7278 182.16 35.5912C182.209 35.6447 182.251 35.7035 182.287 35.7664C182.536 36.1384 182.729 36.545 182.86 36.9732C183.032 37.4515 183.127 37.9541 183.142 38.4622Z" fill="#614729"/>
        <path d="M152.801 57.5184L127.019 38.0819C124.84 36.4394 121.744 36.8762 120.104 39.0574C118.463 41.2387 118.899 44.3385 121.078 45.981L146.86 65.4175C149.039 67.06 152.135 66.6232 153.776 64.442C155.416 62.2607 154.98 59.1609 152.801 57.5184Z" fill="#614729"/>
        <path d="M169.139 54.8294L146.318 31.9818C144.39 30.051 141.263 30.051 139.334 31.9818C137.406 33.9126 137.406 37.043 139.334 38.9737L162.156 61.8214C164.084 63.7521 167.211 63.7521 169.139 61.8214C171.068 59.8906 171.068 56.7602 169.139 54.8294Z" fill="#614729"/>
        <path d="M159.738 56.5863L136.917 33.7386C134.989 31.8079 131.862 31.8079 129.933 33.7386C128.005 35.6694 128.005 38.7998 129.933 40.7306L152.755 63.5782C154.683 65.509 157.81 65.509 159.738 63.5782C161.667 61.6474 161.667 58.517 159.738 56.5863Z" fill="#614729"/>
        <path d="M145.327 66.1123H131.299L127.255 62.0637L120.557 55.3581L120.45 55.2413C120.067 54.8413 119.758 54.3768 119.536 53.869C119.164 53.0348 119.031 52.1136 119.151 51.2081C119.271 50.3025 119.64 49.4481 120.217 48.7401C120.324 48.6135 120.44 48.487 120.557 48.3702C121.016 47.9113 121.561 47.5476 122.161 47.2997C122.307 47.2391 122.456 47.1871 122.608 47.144C123.465 46.8815 124.377 46.857 125.247 47.0729C126.117 47.2889 126.912 47.7373 127.547 48.3702L140.106 60.9347L145.327 66.1123Z" fill="#614729"/>
        <path d="M140.466 66.1122H126.497L123.454 63.0659L118.195 57.8494L117.505 57.1487V57.1C117.29 56.8896 117.1 56.6544 116.941 56.3993C116.716 56.0767 116.533 55.7268 116.397 55.3579C116.327 55.1744 116.272 54.9856 116.231 54.7934C116.142 54.4204 116.097 54.0383 116.095 53.6547C116.093 52.4796 116.512 51.3426 117.275 50.4499C118.038 49.5571 119.096 48.9677 120.256 48.7886C120.91 48.6925 121.577 48.7292 122.216 48.8964C122.856 49.0636 123.455 49.3579 123.979 49.7618C124.175 49.885 124.354 50.0321 124.514 50.1998L140.466 66.1122Z" fill="#614729"/>
        <path d="M180.421 61.3068L199.835 35.4949C201.476 33.3137 201.039 30.2139 198.861 28.5714C196.682 26.9289 193.586 27.3656 191.945 29.5469L172.531 55.3587C170.89 57.54 171.327 60.6398 173.505 62.2823C175.684 63.9248 178.78 63.488 180.421 61.3068Z" fill="#614729"/>
        <path d="M210.672 41.0315L205.578 47.8442L203.187 51.0267L202.166 52.3795L200.222 54.9683L199.25 56.2432L196.713 59.6203L194.768 62.1507L194.691 62.2578L193.991 63.231L193.485 63.8928L191.774 66.1702H189.937H182.938C182.464 65.2369 182.294 64.1784 182.452 63.1434C182.54 62.6247 182.707 62.1225 182.948 61.6544C183.075 61.4182 183.218 61.1906 183.375 60.9731L183.482 60.8369L186.156 57.1483L186.855 56.1751L187.828 54.9001L193.534 47.3186L197.257 42.3649L202.759 35.0461C203.224 34.4381 203.823 33.9461 204.509 33.6084C205.196 33.2707 205.951 33.0966 206.716 33.0996C207.767 33.1045 208.788 33.4455 209.632 34.0729C210.675 34.8635 211.362 36.0352 211.544 37.3319C211.727 38.6286 211.389 39.9447 210.604 40.9926L210.672 41.0315Z" fill="#614729"/>
        <path d="M172.101 52.7503L153.867 26.0896C152.326 23.8367 149.253 23.2608 147.002 24.8035C144.752 26.3461 144.177 29.4231 145.718 31.6761L163.952 58.3367C165.492 60.5897 168.566 61.1655 170.816 59.6229C173.067 58.0802 173.642 55.0032 172.101 52.7503Z" fill="#614729"/>
        <path d="M174.305 49.227L160.957 19.8085C159.829 17.3225 156.902 16.2226 154.419 17.3519C151.936 18.4812 150.837 21.412 151.965 23.898L165.313 53.3165C166.441 55.8026 169.368 56.9025 171.852 55.7732C174.335 54.6439 175.433 51.7131 174.305 49.227Z" fill="#614729"/>
        <path d="M163.785 53.4418L172.03 22.2024C172.726 19.5624 171.153 16.8569 168.517 16.1594C165.88 15.4619 163.177 17.0366 162.481 19.6765L154.236 50.916C153.54 53.5559 155.112 56.2614 157.749 56.9589C160.386 57.6564 163.089 56.0818 163.785 53.4418Z" fill="#614729"/>
        <path d="M187.93 55.2746L179.002 24.2242C178.247 21.6003 175.511 20.0855 172.89 20.8409C170.269 21.5963 168.756 24.3358 169.511 26.9597L178.439 58.0101C179.194 60.6341 181.93 62.1488 184.551 61.3935C187.172 60.6381 188.685 57.8986 187.93 55.2746Z" fill="#614729"/>
        <path d="M184.843 66.112C184.832 66.0428 184.815 65.9746 184.795 65.9076L184.688 65.5378L183.55 61.5864L183.356 60.9052L183.239 60.6035L182.685 58.657L182.598 58.3553L182.355 57.4988L181.976 56.1947L181.635 54.9295L180.119 49.6643L179.205 46.4915L178.457 43.8735L177.018 38.8614L176.133 35.8249L175.861 34.8516C175.801 34.6391 175.726 34.4309 175.637 34.2288C175.219 33.3056 174.53 32.5319 173.662 32.0103C172.794 31.4888 171.787 31.2442 170.777 31.3091C170.448 31.3406 170.122 31.4025 169.805 31.494L169.63 31.5524C169.339 31.6455 169.058 31.7695 168.794 31.9222C168.146 32.2781 167.587 32.7774 167.161 33.3821C166.694 33.9945 166.378 34.7078 166.237 35.4648C166.19 35.7183 166.167 35.9758 166.169 36.2336C166.172 36.6914 166.237 37.1466 166.363 37.5864L166.713 38.8516L167.18 40.4964L169.708 49.2555L169.814 49.6351L171.623 55.9027L171.72 56.2434L171.836 56.6521V56.7592L172.225 58.0925L173.421 62.2482L174.539 66.1412L174.976 67.5816L175.394 66.1509H184.843V66.112Z" fill="#614729"/>
        <path d="M198.443 156.428C198.21 174.92 183.929 189.869 166.363 189.869C148.797 189.869 134.488 174.939 134.284 156.428" fill="#A60046"/>
    </g>
    <path d="M15.504 414H11.184V383.52H0.48V379.728H26.16V383.52H15.504V414ZM49.4569 414L45.3289 403.392H31.7449L27.6649 414H23.2969L36.6889 379.584H40.5769L53.9209 414H49.4569ZM40.1929 389.184C40.0969 388.928 39.9369 388.464 39.7129 387.792C39.4889 387.12 39.2649 386.432 39.0409 385.728C38.8489 384.992 38.6889 384.432 38.5609 384.048C38.3369 385.04 38.0809 386.016 37.7929 386.976C37.5049 387.904 37.2649 388.64 37.0729 389.184L33.1849 399.552H44.0329L40.1929 389.184ZM73.7291 414L62.4491 383.952H62.2571C62.3531 384.944 62.4331 386.288 62.4971 387.984C62.5611 389.648 62.5931 391.392 62.5931 393.216V414H58.6091V379.728H64.9931L75.5531 407.808H75.7451L86.4971 379.728H92.8331V414H88.5611V392.928C88.5611 391.264 88.5931 389.616 88.6571 387.984C88.7531 386.352 88.8331 385.024 88.8971 384H88.7051L77.2811 414H73.7291ZM111.804 414H99.42V411.504L103.452 410.592V383.184L99.42 382.224V379.728H111.804V382.224L107.772 383.184V410.592L111.804 411.504V414ZM127.878 379.728C132.134 379.728 135.27 380.544 137.286 382.176C139.334 383.776 140.358 386.208 140.358 389.472C140.358 391.296 140.022 392.816 139.35 394.032C138.678 395.248 137.814 396.224 136.758 396.96C135.734 397.664 134.646 398.224 133.494 398.64L142.902 414H137.862L129.558 399.84H122.742V414H118.422V379.728H127.878ZM127.638 383.472H122.742V396.192H127.878C130.662 396.192 132.694 395.648 133.974 394.56C135.254 393.44 135.894 391.808 135.894 389.664C135.894 387.424 135.222 385.84 133.878 384.912C132.534 383.952 130.454 383.472 127.638 383.472Z" fill="white"/>
    <defs>
        <clipPath id="clip0">
            <rect width="160" height="412" fill="white" transform="translate(87 16)"/>
        </clipPath>
    </defs>
</svg>
