<svg viewBox="0 0 1976 1990" fill="none" xmlns="http://www.w3.org/2000/svg">
    <path d="M857.867 4.75152L941.274 0.182777C965.909 -1.15739 985.475 4.73934 999.973 17.873C1008.45 25.7834 1015.1 35.4509 1019.45 46.1992C1024.31 57.9237 1027.09 70.4019 1027.68 83.0781C1028.52 96.3813 1027.02 109.729 1023.26 122.516C1019.97 134.09 1014.33 144.864 1006.7 154.168C993.735 169.299 974.437 177.572 948.803 178.985L867.663 183.408L867.078 172.735L887.619 166.375L879.578 19.4812L858.415 15.3876L857.867 4.75152ZM912.473 166.01L950.923 163.927C958.772 163.705 966.5 161.929 973.657 158.7C979.823 155.765 985.05 151.171 988.752 145.432C993.451 138.397 996.534 130.408 997.78 122.04C999.581 110.817 1000.1 99.4253 999.315 88.0855C997.902 62.2812 992.298 43.3483 982.502 31.2868C978.058 25.3834 972.023 20.8697 965.105 18.275C957.149 15.5332 948.71 14.4752 940.324 15.1683L904.322 17.142L912.473 166.01Z" fill="#231F20"/>
    <path d="M1186.38 33.0412L1159.77 177.743L1181.7 187.099L1179.76 197.589L1109.48 184.65L1111.41 174.161L1135.35 173.247L1161.96 28.5455L1140.03 19.1522L1141.97 8.66232L1212.18 21.601L1210.24 32.1274L1186.38 33.0412Z" fill="#231F20"/>
    <path d="M1333.93 235.601C1346.79 241.352 1357.88 242.448 1367.19 238.891C1376.5 235.333 1383.95 227.28 1389.56 214.731L1396.65 198.832L1379.69 185.564L1384.26 175.33L1445.07 202.487L1440.51 212.721L1419.34 209.066L1389.63 275.55L1377.82 270.287L1380.16 249.819C1371.66 253.929 1362.37 256.149 1352.93 256.325C1343.6 256.092 1334.42 253.9 1326 249.892C1305.28 240.633 1291.55 226.878 1284.8 208.627C1280.91 197.659 1279.48 185.963 1280.64 174.38C1281.86 160.995 1285.36 147.917 1290.98 135.71C1296.57 122.894 1304.26 111.108 1313.75 100.841C1322 91.7149 1332.14 84.4937 1343.47 79.679C1352.4 75.9818 1362.03 74.2971 1371.68 74.7448C1382.15 75.3413 1392.41 77.9342 1401.91 82.3837C1409.99 85.7547 1417.3 90.7281 1423.4 97.0037C1429 103.323 1433.11 110.817 1435.43 118.934L1447.41 105.483L1459.88 111.075L1437.47 161.222L1423.66 155.045C1427.46 140.791 1426.97 128.607 1422.19 118.495C1417.42 108.383 1408.52 100.378 1395.51 94.4817C1389.02 91.3235 1381.9 89.6741 1374.68 89.6571C1368.05 89.8969 1361.59 91.8485 1355.93 95.3224C1347.96 100.633 1340.92 107.229 1335.1 114.84C1328.06 123.816 1322.18 133.639 1317.59 144.08C1312.79 154.542 1309.45 165.609 1307.65 176.975C1306.04 186.668 1306.17 196.57 1308.05 206.215C1309.42 212.556 1312.32 218.465 1316.49 223.43C1321.33 228.724 1327.29 232.88 1333.93 235.601V235.601Z" fill="#231F20"/>
    <path d="M1603.52 225.55L1513.68 342.071L1528.99 360.346L1522.49 368.826L1465.8 324.966L1472.3 316.523L1494.01 326.647L1583.82 210.126L1568.5 191.851L1575.04 183.408L1631.73 227.268L1625.19 235.674L1603.52 225.55Z" fill="#231F20"/>
    <path d="M1710.25 296.749L1805.64 410.054L1765.73 443.68L1757.4 433.775L1780.79 403.694L1754.55 372.517L1641.79 467.547L1654.18 491.561L1645.99 498.432L1595.96 439.075L1604.14 432.203L1625.67 448.505L1738.43 353.475L1712.15 322.115L1678.63 340.39L1670.33 330.521L1710.25 296.749Z" fill="#231F20"/>
    <path d="M1766.42 675.297L1800.09 643.06L1771.39 582.899L1724.9 588.235L1729.07 609.105L1719.42 613.711L1694.64 561.188L1704.29 556.583L1717.77 572.738L1892.85 555.487L1902.79 576.357L1778.52 700.627L1782.18 720.839L1772.53 725.407L1743.29 663.711L1752.94 659.106L1766.42 675.297ZM1875.63 571.02L1786.6 581.218L1811.05 632.79L1876.04 572.117L1875.63 571.02Z" fill="#231F20"/>
    <path d="M1955.64 795.437L1809.99 822.484L1822.34 888.932L1866.2 889.407L1868.72 902.858L1811.6 913.42L1786.41 777.784L1796.9 775.846L1806.3 797.776L1950.96 770.912L1951.84 747.008L1962.37 745.035L1975.89 817.879L1965.36 819.816L1955.64 795.437Z" fill="#231F20"/>
    <path d="M1791.68 1166.05C1793.45 1157.12 1796.77 1148.57 1801.51 1140.8C1805.66 1133.97 1811.29 1128.16 1818 1123.8L1804.29 1118.17L1807.14 1104.58L1862.37 1116.05L1859.3 1130.89C1843.65 1128.68 1831.57 1130.22 1823.04 1135.53C1814.51 1140.85 1808.8 1150.41 1805.9 1164.23C1803.46 1175.75 1803.89 1184.89 1807.18 1191.64C1808.92 1195.08 1811.47 1198.05 1814.6 1200.3C1817.74 1202.55 1821.38 1204 1825.2 1204.54C1831.41 1206.05 1837.94 1205.49 1843.8 1202.93C1849.87 1199.93 1855.24 1195.69 1859.59 1190.51C1865.36 1183.81 1870.64 1176.71 1875.42 1169.27C1880.87 1161.08 1886.86 1153.26 1893.36 1145.88C1898.33 1140.05 1904.67 1135.57 1911.82 1132.83C1919.64 1130.36 1927.99 1130.12 1935.94 1132.14C1951.37 1135.35 1962.33 1142.66 1968.84 1154.07C1975.34 1165.47 1977.04 1179.33 1973.92 1195.66C1971.53 1210.14 1963.68 1223.15 1951.99 1232.03L1962.55 1236.23L1959.7 1249.86L1904.47 1238.35L1907.36 1224.5C1922.93 1227.74 1934.9 1227.18 1943.25 1222.82C1951.61 1218.45 1957.08 1210.04 1959.66 1197.56C1964.32 1175.34 1956.5 1162.12 1936.2 1157.9C1931.55 1156.53 1926.6 1156.64 1922.02 1158.2C1917.43 1159.77 1913.45 1162.71 1910.61 1166.64C1905.27 1172.9 1900.27 1179.44 1895.63 1186.23C1888.69 1196.63 1880.88 1206.41 1872.27 1215.47C1866.42 1221.82 1859.19 1226.74 1851.15 1229.87C1843.57 1232.31 1835.47 1232.64 1827.72 1230.82C1818.65 1229.2 1810.26 1224.94 1803.6 1218.58C1797.38 1212.39 1793.11 1204.53 1791.31 1195.95C1789.28 1186.08 1789.41 1175.88 1791.68 1166.05V1166.05Z" fill="#231F20"/>
    <path d="M1765.36 1483.6C1753.05 1477.32 1741.87 1469.03 1732.29 1459.07C1723.67 1450.26 1716.95 1439.78 1712.55 1428.26C1709.19 1418.91 1708.09 1408.89 1709.33 1399.02C1710.88 1387.91 1714.41 1377.16 1719.75 1367.3C1724.76 1357.15 1731.5 1347.96 1739.67 1340.14C1746.73 1333.45 1755.31 1328.57 1764.67 1325.92C1775.95 1322.75 1787.79 1322.09 1799.36 1323.99C1812.51 1326.05 1825.23 1330.27 1837 1336.49C1849.27 1342.76 1860.39 1351.05 1869.9 1361.01C1878.54 1369.8 1885.27 1380.28 1889.67 1391.79C1893.04 1401.08 1894.22 1411.02 1893.11 1420.84C1891.55 1431.86 1888.02 1442.51 1882.69 1452.28C1877.71 1462.39 1871.02 1471.56 1862.92 1479.4C1855.78 1486.21 1847.12 1491.22 1837.66 1494.02C1826.32 1497.32 1814.37 1498.02 1802.72 1496.06C1789.66 1494.01 1777.04 1489.8 1765.36 1483.6V1483.6ZM1828.27 1364.19C1817.41 1358.41 1805.96 1353.79 1794.13 1350.41C1785.09 1347.73 1775.65 1346.64 1766.24 1347.2C1759.06 1348.12 1752.26 1350.92 1746.5 1355.31C1740.05 1360.61 1734.83 1367.24 1731.19 1374.75C1723.13 1390.35 1722.04 1404.35 1727.94 1416.75C1732.2 1424.59 1738.01 1431.49 1745.01 1437.04C1754.35 1444.67 1764.51 1451.24 1775.31 1456.63C1786.05 1462.37 1797.39 1466.93 1809.12 1470.22C1817.93 1472.83 1827.16 1473.72 1836.31 1472.82C1843.61 1472.02 1850.53 1469.15 1856.26 1464.56C1862.5 1459.31 1867.58 1452.83 1871.18 1445.51C1874.89 1438.73 1877.2 1431.28 1877.98 1423.58C1878.46 1416.75 1877.2 1409.91 1874.32 1403.7C1867.89 1389.91 1852.54 1376.74 1828.27 1364.19V1364.19Z" fill="#231F20"/>
    <path d="M1724.72 1649.17L1616.53 1547.96L1570.37 1597.34L1595.95 1632.91L1586.59 1642.88L1544.31 1603.3L1638.57 1502.68L1646.39 1509.99L1634.26 1530.6L1741.68 1631.12L1761.45 1617.63L1769.27 1624.94L1718.69 1679.03L1710.86 1671.72L1724.72 1649.17Z" fill="#231F20"/>
    <path d="M1412.95 1772.05L1464.59 1856.12L1485.1 1849.61L1490.72 1858.71L1441.78 1888.79L1436.19 1879.66L1451.25 1864.3L1397.52 1776.8C1386.78 1759.31 1383.3 1743.06 1387.11 1728.05C1390.91 1713.04 1401.93 1699.95 1420.18 1688.79C1438.92 1677.24 1456.23 1673.06 1472.12 1676.25C1488.01 1679.45 1501.26 1689.68 1511.89 1706.96L1565.51 1794.2L1586.01 1787.73L1591.6 1796.83L1534.77 1831.63L1529.17 1822.53L1544.23 1807.14L1492.84 1723.51C1474.01 1692.86 1450.62 1686.12 1422.67 1703.3C1409.41 1711.44 1402.02 1720.94 1400.48 1731.81C1398.95 1742.68 1403.1 1756.09 1412.95 1772.05Z" fill="#231F20"/>
    <path d="M1339.56 1931.7L1197.01 1972.16L1182.94 1921.94L1195.37 1918.29L1213.2 1951.99L1252.42 1941.02L1212.22 1799.25L1185.24 1800.67L1182.32 1790.4L1256.92 1769.24L1259.84 1779.51L1236.12 1792.45L1276.32 1934.22L1315.8 1923.04L1313.02 1885.07L1325.45 1881.41L1339.56 1931.7Z" fill="#231F20"/>
    <path d="M1043.69 1972.68L1034.77 1825.82L1011.16 1822.16L1010.5 1811.49L1081.95 1807.18L1082.61 1817.85L1059.58 1824.47L1068.5 1971.32L1092.11 1974.98L1092.77 1985.65L1021.32 1989.96L1020.66 1979.33L1043.69 1972.68Z" fill="#231F20"/>
    <path d="M755.964 1873.88C758.291 1860.26 762.887 1847.13 769.56 1835.03C775.376 1824.17 783.378 1814.64 793.062 1807.03C801.009 1801.05 810.248 1797.02 820.036 1795.26C831.088 1793.43 842.379 1793.61 853.369 1795.77C864.563 1797.54 875.361 1801.25 885.277 1806.74C893.758 1811.48 900.958 1818.22 906.257 1826.37C912.64 1836.2 916.795 1847.32 918.428 1858.93C920.386 1872.09 920.139 1885.48 917.697 1898.55C915.376 1912.17 910.78 1925.31 904.101 1937.4C898.285 1948.27 890.284 1957.82 880.599 1965.44C872.722 1971.43 863.564 1975.5 853.845 1977.35C842.872 1979.14 831.669 1978.94 820.767 1976.77C809.629 1974.96 798.885 1971.25 789.005 1965.8C780.416 1960.98 773.089 1954.19 767.623 1945.99C761.089 1936.09 756.866 1924.85 755.269 1913.1C753.348 1900.08 753.583 1886.83 755.964 1873.88V1873.88ZM888.677 1898.44C890.959 1886.4 891.964 1874.15 891.674 1861.89C891.542 1852.47 889.774 1843.15 886.447 1834.33C883.441 1827.75 878.735 1822.09 872.814 1817.92C865.876 1813.34 858.014 1810.35 849.787 1809.15C832.512 1806.08 818.83 1809.21 808.742 1818.54C802.503 1824.93 797.628 1832.51 794.414 1840.84C789.925 1852.04 786.677 1863.69 784.729 1875.6C782.436 1887.64 781.455 1899.9 781.805 1912.15C781.948 1921.33 783.859 1930.4 787.433 1938.87C790.382 1945.59 795.171 1951.34 801.249 1955.46C814.928 1963.82 831.208 1966.84 846.973 1963.94C853.639 1962.41 859.803 1959.2 864.883 1954.62C875.994 1944.09 883.925 1925.37 888.677 1898.44Z" fill="#231F20"/>
    <path d="M673.395 1764.67L605.814 1895.37L621.969 1909.59L617.035 1919.09L574.893 1897.16L555.448 1732.4L499.637 1840.33L515.755 1854.58L510.857 1864.05L459.432 1837.44L464.329 1827.97L485.272 1832.91L560.2 1688.1L575.843 1696.39L597.773 1875.49L658.885 1757.36L642.73 1743.14L647.627 1733.64L699.09 1760.25L694.155 1769.75L673.395 1764.67Z" fill="#231F20"/>
    <path d="M435.892 1584.51C442.611 1590.67 448.181 1597.97 452.34 1606.08C456.016 1613.17 458.04 1621.01 458.261 1629L470.103 1620.33L480.264 1629.87L441.704 1671.03L430.739 1660.65C440.79 1648.51 445.761 1637.37 445.651 1627.31C445.542 1617.26 440.388 1607.36 430.118 1597.75C421.528 1589.7 413.487 1585.28 406.031 1584.55C402.185 1584.24 398.32 1584.86 394.767 1586.37C391.215 1587.88 388.082 1590.23 385.636 1593.21C381.108 1597.72 378.181 1603.59 377.303 1609.92C376.698 1616.66 377.52 1623.46 379.715 1629.87C382.427 1638.28 385.724 1646.49 389.584 1654.43C393.733 1663.36 397.286 1672.56 400.22 1681.96C402.617 1689.23 403.145 1696.98 401.755 1704.51C399.819 1712.53 395.679 1719.84 389.803 1725.63C379.057 1737.11 367.081 1742.69 353.874 1742.37C340.668 1742.06 328.021 1736.22 315.935 1724.87C303.971 1713.63 297.417 1701.13 296.272 1687.37L287.171 1694.16L277.01 1684.63L315.57 1643.47L325.914 1653.16C315.022 1664.78 309.271 1675.28 308.662 1684.66C308.053 1694.04 312.39 1703.11 321.674 1711.85C338.243 1727.35 353.606 1727.55 367.763 1712.44C371.099 1709.13 373.539 1705.03 374.854 1700.52C375.793 1695.63 375.376 1690.58 373.648 1685.9C371.097 1678.07 368.12 1670.38 364.73 1662.88C359.5 1651.56 355.233 1639.82 351.974 1627.79C349.603 1619.47 349.177 1610.72 350.731 1602.2C352.567 1594.46 356.499 1587.36 362.098 1581.7C368.202 1574.82 376.198 1569.88 385.088 1567.52C393.556 1565.44 402.446 1565.87 410.673 1568.76C420.102 1572.16 428.699 1577.53 435.892 1584.51Z" fill="#231F20"/>
    <path d="M217.436 1292.37L182.969 1323.58L209.98 1384.62L256.544 1380.53L252.889 1359.55L262.648 1355.24L286.223 1408.38L276.501 1412.73L263.452 1396.21L88.0125 1408.78L78.6191 1387.66L206.069 1266.71L202.779 1246.43L212.538 1242.08L240.243 1304.58L230.484 1308.96L217.436 1292.37ZM105.52 1393.69L194.775 1385.9L171.712 1333.89L105.118 1392.77L105.52 1393.69Z" fill="#231F20"/>
    <path d="M173.941 1110.46C171.991 1096.55 167.045 1086.57 159.101 1080.53C151.158 1074.48 140.339 1072.44 126.645 1074.39L109.43 1076.8L107.164 1098.22L96.199 1099.75L86.9518 1033.78L97.9168 1032.24L105.958 1052.2L178.181 1042.15L179.971 1054.94L161.404 1063.82C169.415 1068.86 176.257 1075.55 181.47 1083.45C186.206 1091.49 189.207 1100.43 190.279 1109.69C193.422 1132.21 189.048 1151.14 177.157 1166.49C169.881 1175.67 160.671 1183.13 150.183 1188.35C138.212 1194.35 125.309 1198.26 112.025 1199.94C98.1872 1201.99 84.1017 1201.71 70.3582 1199.1C58.2453 1196.94 46.7462 1192.18 36.6591 1185.13C28.7912 1179.52 22.253 1172.24 17.5069 1163.82C12.4741 1154.64 9.23663 1144.58 7.96739 1134.18C6.53462 1125.54 6.88288 1116.7 8.99079 1108.2C11.3337 1100.07 15.4817 1092.57 21.1254 1086.27L3.3621 1083.23L1.49805 1069.67L55.8844 1062.07L57.9677 1077.09C43.8594 1081.4 33.7473 1088.3 27.6313 1097.78C21.5152 1107.26 19.4319 1119.05 21.3812 1133.16C22.1763 1140.34 24.561 1147.26 28.3623 1153.41C32.0619 1158.87 37.0939 1163.3 42.9822 1166.27C51.7234 1170.23 61.0616 1172.7 70.614 1173.58C81.9375 1174.81 93.371 1174.6 104.642 1172.96C115.979 1171.49 127.067 1168.5 137.61 1164.08C146.765 1160.31 155.16 1154.91 162.391 1148.14C167.218 1143.6 170.825 1137.92 172.881 1131.62C174.779 1124.73 175.141 1117.51 173.941 1110.46V1110.46Z" fill="#231F20"/>
    <path d="M133.517 838.895L131.726 851.432L106.141 852.309L100.403 893.172L169.299 902.894L179.789 828.588L140.754 815.284L142.764 801.029L197.589 808.778L177.267 952.748L166.704 951.25L164.804 927.383L19.006 906.915L10.5629 929.32L0 927.821L19.5542 789.297L71.711 796.607L69.9201 809.399L30.8847 811.885L20.9797 882.024L85.4903 891.125L91.2287 850.262L66.7768 842.294L68.5312 829.758L133.517 838.895Z" fill="#231F20"/>
    <path d="M211.333 707.754L77.6336 646.35L64.1832 663.163L54.4609 658.704L74.271 615.538L237.978 588.455L127.524 537.76L114.074 554.536L104.352 550.077L128.511 497.555L138.233 502.014L134.286 523.14L282.423 591.196L275.113 607.241L97.4071 637.578L218.022 693.097L231.472 676.284L241.195 680.743L216.999 733.375L207.313 728.916L211.333 707.754Z" fill="#231F20"/>
    <path d="M259.467 340.829C254.611 346.044 250.879 352.203 248.502 358.921C246.597 364.944 246.332 371.365 247.734 377.525C249.84 386.725 253.74 395.419 259.211 403.11C265.817 412.752 273.657 421.489 282.53 429.097C290.86 436.48 300.037 442.848 309.869 448.066C318.075 452.557 326.967 455.656 336.185 457.24C343.655 458.521 351.332 457.763 358.408 455.047C365.961 451.674 372.621 446.58 377.852 440.171C397.467 417.73 398.332 395.483 380.447 373.431L389.439 363.124C413.586 394.143 413.172 423.943 388.196 452.525C373.137 469.728 356.154 479.085 337.245 480.596C325.321 481.374 313.378 479.398 302.34 474.821C275.305 463.336 252.981 442.997 239.036 417.145C232.68 405.197 229.484 391.823 229.752 378.292C230.19 361.967 237.22 345.994 250.841 330.375C256.25 323.758 262.875 318.238 270.359 314.11C277.66 310.751 285.604 309.017 293.641 309.03L285.125 294.995L294.116 284.688L335.454 320.836L325.476 332.276C312.976 324.405 301.195 321.201 290.132 322.663C279.07 324.125 268.848 330.18 259.467 340.829Z" fill="#231F20"/>
    <path d="M497.953 244.41L489.401 154.277L469.773 161.295L463.816 152.45L510.6 120.907L516.557 129.789L502.595 145.505L512.464 250.916L542.727 295.872L565.022 287.137L570.98 296.018L511.623 336.004L505.665 327.122L522.113 309.761L494.079 268.094L395.577 217.436L375.584 224.746L369.59 215.901L426.352 177.45L432.31 186.332L417.909 202.304L497.953 244.41Z" fill="#231F20"/>
</svg>
