<svg viewBox="0 0 398 473" fill="none" xmlns="http://www.w3.org/2000/svg">
    <path d="M380.663 391.014L379.026 392.422L378.72 392.067L365.105 376.237L366.743 374.829L365.123 372.945L358.491 378.65L360.11 380.533L362.294 378.655L368.421 385.779L361.707 391.553L363.632 393.792L370.346 388.017L375.909 394.485L369.495 400.002L367.312 397.464L365.265 399.224L369.35 403.973L382.26 392.87L380.663 391.014Z" fill="black"/>
    <path d="M358.345 409.309L356.51 410.45L348.508 397.579C347.659 396.213 346.777 395.136 345.863 394.348C344.929 393.572 344.056 393.055 343.246 392.796C342.447 392.558 341.57 392.51 340.613 392.653C339.648 392.828 338.794 393.091 338.05 393.44C337.307 393.79 336.456 394.262 335.498 394.858C334.52 395.466 333.709 396.026 333.067 396.539C332.425 397.051 331.811 397.701 331.227 398.488C330.655 399.296 330.3 400.11 330.16 400.931C330.034 401.773 330.122 402.778 330.424 403.947C330.706 405.128 331.272 406.401 332.121 407.767L340.123 420.638L338.289 421.778L339.581 423.857L346.399 419.619L345.106 417.54L343.272 418.68L335.365 405.962C334.655 404.82 334.198 403.79 333.995 402.871C333.783 401.986 333.824 401.211 334.118 400.548C334.425 399.905 334.806 399.358 335.259 398.906C335.713 398.454 336.338 397.981 337.133 397.487C337.907 397.005 338.597 396.661 339.203 396.454C339.789 396.259 340.438 396.167 341.15 396.176C341.875 396.206 342.598 396.505 343.319 397.074C344.033 397.676 344.744 398.548 345.454 399.689L353.361 412.408L351.527 413.548L352.819 415.627L359.637 411.388L358.345 409.309Z" fill="black"/>
    <path d="M326.934 427.33L324.951 428.186L316.477 408.552L318.46 407.696L317.49 405.449L302.616 411.868L305.141 417.719L307.62 416.649L306.251 413.476L313.258 410.451L321.546 429.655L318.902 430.796L319.872 433.044L327.904 429.577L326.934 427.33Z" fill="black"/>
    <path d="M301.859 437.268L299.783 437.865L293.875 417.313L295.951 416.716L295.275 414.364L279.705 418.839L281.466 424.963L284.061 424.217L283.106 420.896L290.441 418.787L296.22 438.889L293.452 439.685L294.128 442.038L302.536 439.621L301.859 437.268Z" fill="black"/>
    <path d="M255.305 422.817L255.472 425.404C253.878 423.439 251.452 422.562 248.195 422.773C245.225 422.966 243.135 423.739 241.924 425.092C240.69 426.471 240.154 428.405 240.316 430.896C240.465 433.195 241.1 434.826 242.22 435.787C243.318 436.774 245.166 437.448 247.763 437.809L250.71 438.195C252.481 438.441 253.66 438.821 254.247 439.336C254.811 439.877 255.136 440.806 255.221 442.123C255.322 443.68 255.037 444.853 254.367 445.642C253.697 446.431 252.404 446.888 250.488 447.012C246.943 447.242 244.915 445.822 244.403 442.752L241.745 442.925L242.204 450.002L244.862 449.83L244.713 447.53C246.127 449.315 248.379 450.107 251.469 449.906C254.343 449.72 256.349 448.941 257.486 447.568C258.6 446.197 259.077 444.278 258.917 441.812C258.768 439.512 258.167 437.856 257.116 436.842C256.04 435.829 254.228 435.153 251.681 434.813L248.626 434.434C246.928 434.207 245.76 433.814 245.122 433.254C244.461 432.696 244.084 431.698 243.99 430.261C243.894 428.776 244.255 427.67 245.074 426.944C245.893 426.217 247.26 425.792 249.176 425.668C251.212 425.536 252.788 425.927 253.906 426.84C255.025 427.778 255.668 429.167 255.836 431.008L258.494 430.836L257.963 422.645L255.305 422.817Z" fill="black"/>
    <path d="M230.403 423.759L211.996 422.258L211.478 428.608L214.169 428.828L214.45 425.383L224.317 426.188L223.588 435.123L214.044 434.344L213.804 437.286L223.348 438.065L222.655 446.569L213.505 445.822L213.777 442.485L211.086 442.266L210.577 448.509L228.266 449.952L228.465 447.512L226.312 447.336L228.051 426.023L230.204 426.199L230.403 423.759Z" fill="black"/>
    <path d="M197.061 443.994L194.96 443.49L199.949 422.697L202.05 423.201L202.621 420.82L194.955 418.981L194.383 421.361L196.344 421.831L194.42 429.848L191.76 429.21C190.861 428.945 190.2 428.613 189.777 428.216C189.354 427.818 189.063 427.18 188.903 426.303L187.358 417.158L182.352 415.957L181.781 418.337L183.986 418.867L185.197 425.858C185.387 426.916 185.695 427.742 186.12 428.338C185.166 428.405 184.341 428.602 183.645 428.929C182.95 429.256 182.393 429.727 181.974 430.342C181.531 430.951 181.188 431.56 180.943 432.168C180.693 432.799 180.462 433.558 180.249 434.445C180.03 435.355 179.892 436.136 179.835 436.789C179.748 437.459 179.784 438.183 179.943 438.962C180.072 439.758 180.367 440.433 180.826 440.988C181.257 441.56 181.94 442.107 182.876 442.627C183.807 443.171 184.961 443.609 186.338 443.939L194.389 445.871L196.49 446.375L197.061 443.994ZM193.74 432.684L191.464 442.17L187.088 441.12C185.291 440.689 184.211 439.998 183.846 439.047C183.477 438.119 183.479 436.873 183.855 435.31C184.034 434.563 184.232 433.944 184.448 433.453C184.659 432.985 184.961 432.552 185.353 432.152C185.745 431.752 186.284 431.512 186.97 431.429C187.633 431.342 188.431 431.41 189.364 431.634L193.74 432.684Z" fill="black"/>
    <path d="M162.57 408.453L146.674 427.668L145.243 427.076L144.308 429.339L151.127 432.159L152.063 429.897L150.1 429.085L163.511 412.582L161.311 433.723L159.381 432.925L158.446 435.187L165.265 438.008L166.201 435.746L164.771 435.154L167.094 410.325L162.57 408.453Z" fill="black"/>
    <path d="M135.522 421.833L133.459 420.653L144.08 402.093L146.142 403.273L147.358 401.148L140.015 396.946L138.799 399.071L140.862 400.251L130.241 418.811L128.179 417.631L126.963 419.756L134.306 423.958L135.522 421.833Z" fill="black"/>
    <path d="M102.794 403.073L104.157 401.26C104.063 403.502 105.157 405.48 107.44 407.197C108.783 408.206 110.057 408.908 111.261 409.303C112.466 409.698 113.565 409.834 114.558 409.71C115.552 409.586 116.573 409.168 117.62 408.454C118.667 407.74 119.645 406.898 120.553 405.93C121.447 404.98 122.456 403.757 123.581 402.261C124.389 401.187 125.069 400.242 125.622 399.426C126.141 398.616 126.636 397.757 127.108 396.851C127.579 395.944 127.899 395.119 128.068 394.375C128.237 393.631 128.308 392.858 128.28 392.057C128.233 391.241 128.029 390.472 127.67 389.752C127.311 389.032 126.793 388.282 126.117 387.504C125.442 386.725 124.586 385.947 123.55 385.168C122.207 384.159 120.979 383.476 119.866 383.119C118.738 382.782 117.692 382.776 116.726 383.101C115.742 383.412 114.873 383.87 114.118 384.474C113.345 385.063 112.487 385.905 111.545 386.998L113.876 388.93C115.058 387.477 116.259 386.578 117.479 386.234C118.684 385.909 120.102 386.36 121.733 387.585C122.692 388.306 123.413 389.044 123.897 389.798C124.348 390.557 124.613 391.282 124.694 391.973C124.756 392.65 124.587 393.454 124.187 394.385C123.788 395.316 123.336 396.177 122.831 396.968C122.307 397.745 121.569 398.767 120.617 400.033C119.723 401.222 118.944 402.198 118.281 402.961C117.584 403.728 116.849 404.406 116.076 404.996C115.302 405.585 114.574 405.954 113.893 406.102C113.177 406.255 112.419 406.225 111.618 406.013C110.783 405.806 109.924 405.371 109.041 404.707C107.43 403.496 106.546 402.216 106.389 400.867C106.232 399.518 106.726 397.982 107.87 396.26L105.769 394.681L100.664 401.472L102.794 403.073Z" fill="black"/>
    <path d="M109.187 374.099L96.2333 360.937L91.6917 365.406L93.5856 367.33L96.0488 364.906L102.993 371.962L96.6039 378.25L89.887 371.425L87.783 373.495L94.4999 380.321L88.4188 386.305L81.9797 379.762L84.366 377.414L82.4721 375.489L78.0075 379.883L90.4565 392.533L92.2013 390.816L90.6862 389.276L105.927 374.277L107.442 375.816L109.187 374.099Z" fill="black"/>
    <path d="M55.5898 350.205L58.6115 355.235L60.71 353.974L59.5977 352.122L77.9285 341.111L79.0408 342.962L81.1392 341.702L75.7817 332.783C74.8301 331.199 73.8519 329.967 72.8471 329.087C71.8423 328.206 70.8604 327.62 69.9012 327.329C68.942 327.037 67.8533 327.019 66.6351 327.275C65.417 327.531 64.2626 327.916 63.1722 328.431C62.0611 328.959 60.7238 329.692 59.1603 330.631C58.0699 331.286 57.1523 331.879 56.4076 332.411C55.63 332.934 54.873 333.515 54.1365 334.153C53.3796 334.804 52.7934 335.436 52.378 336.049C51.9626 336.663 51.6337 337.35 51.3912 338.112C51.1159 338.865 51.0196 339.637 51.1023 340.427C51.1645 341.23 51.3687 342.129 51.715 343.125C52.0612 344.121 52.5742 345.185 53.254 346.316L55.5898 350.205ZM55.9205 345.092C55.2902 344.043 54.8966 343.062 54.7397 342.148C54.5622 341.247 54.57 340.444 54.7631 339.74C54.9562 339.036 55.3859 338.33 56.0523 337.622C56.6982 336.926 57.4037 336.306 58.169 335.762C58.9013 335.21 59.8744 334.57 61.0883 333.841C62.3021 333.111 63.3349 332.547 64.1867 332.147C65.0055 331.739 65.8841 331.408 66.8224 331.152C67.7402 330.909 68.5551 330.867 69.2672 331.027C69.9794 331.187 70.7019 331.551 71.4349 332.119C72.1472 332.699 72.8186 333.513 73.4489 334.563L75.6179 338.173L58.0894 348.703L55.9205 345.092Z" fill="black"/>
    <path d="M44.2442 324.135L43.3012 321.954L62.929 313.467L63.872 315.648L66.1189 314.677L62.7614 306.911L60.5144 307.883L61.4574 310.064L41.8296 318.551L40.8866 316.37L38.6397 317.341L41.9973 325.106L44.2442 324.135Z" fill="black"/>
    <path d="M45.3076 289.206L44.1914 285.295L47.2725 284.416C48.9275 284.093 50.2956 284.252 51.3767 284.892C52.4577 285.532 53.2649 286.786 53.7983 288.656C54.0683 289.602 54.2064 290.436 54.2128 291.158C54.2191 291.88 54.0804 292.531 53.7967 293.111C53.4833 293.675 53.1122 294.168 52.6835 294.589C52.2548 295.011 51.6332 295.413 50.8188 295.795C49.9978 296.154 49.19 296.472 48.3954 296.749C47.6008 297.025 46.5804 297.341 45.3341 297.697C43.9032 298.105 42.7163 298.406 41.7734 298.601C40.8074 298.801 39.8266 298.907 38.831 298.916C37.8124 298.932 36.9833 298.782 36.3439 298.465C35.6814 298.155 35.0766 297.654 34.5296 296.961C33.976 296.246 33.5346 295.311 33.2054 294.157C32.6391 292.172 32.7369 290.634 33.4988 289.543C34.2377 288.459 35.5451 287.574 37.4212 286.889L36.6903 284.328L28.5203 286.659L29.2611 289.255L31.4767 288.623C29.9926 290.244 29.6391 292.417 30.4161 295.14C30.8968 296.825 31.516 298.208 32.2739 299.289C33.002 300.355 33.8176 301.158 34.7207 301.699C35.5942 302.223 36.6638 302.517 37.9297 302.58C39.1956 302.643 40.4714 302.566 41.7572 302.349C43.0199 302.138 44.5513 301.776 46.3515 301.263C47.8747 300.828 49.1457 300.428 50.1645 300.062C51.1602 299.704 52.1708 299.265 53.1963 298.748C54.2151 298.208 55.0115 297.631 55.5853 297.018C56.1295 296.389 56.5913 295.646 56.9707 294.789C57.3271 293.938 57.484 292.958 57.4416 291.847C57.3926 290.713 57.1639 289.43 56.7557 287.999C55.9062 285.022 54.2718 283.142 51.8523 282.36L54.256 281.075L53.7227 279.206L40.9484 282.851L42.9535 289.878L45.3076 289.206Z" fill="black"/>
    <path d="M29.5319 253.486L23.1772 254.311L25.6857 273.625L32.0403 272.799L31.6879 270.086L28.1893 270.541L27.5262 265.435L48.3037 262.737L48.6839 265.664L51.1116 265.349L49.8736 255.817L47.446 256.132L47.8262 259.06L27.0487 261.758L26.381 256.618L29.8796 256.163L29.5319 253.486Z" fill="black"/>
    <path d="M25.0905 242.593L25.0676 240.217L46.4507 240.012L46.4735 242.388L48.9214 242.364L48.8401 233.905L46.3922 233.928L46.4151 236.304L25.032 236.509L25.0092 234.133L22.5613 234.157L22.6426 242.616L25.0905 242.593Z" fill="black"/>
    <path d="M23.7902 213.102L46.5095 223.724L46.3103 225.368L48.7405 225.662L49.6369 218.264L47.2067 217.97L46.9468 220.114L41.5881 217.652L42.7444 208.11L48.5404 206.963L48.2806 209.107L50.7108 209.401L51.6115 201.968L49.1813 201.673L48.9778 203.353L24.3791 208.241L23.7902 213.102ZM27.4084 211.074L39.7413 208.652L38.8102 216.336L27.4084 211.074Z" fill="black"/>
    <path d="M30.5081 187.608L31.0718 185.523L51.7147 191.104L51.151 193.189L53.5141 193.828L57.7421 178.189L51.591 176.526L50.8863 179.133L54.2225 180.035L52.2307 187.402L32.0396 181.943L32.7912 179.163L30.428 178.524L28.1449 186.969L30.5081 187.608Z" fill="black"/>
    <path d="M45.5155 139.455L42.7546 144.633L44.9147 145.785L45.931 143.879L64.8001 153.94L63.7838 155.846L65.9439 156.998L70.8391 147.818C71.7086 146.187 72.2626 144.714 72.5011 143.4C72.7396 142.086 72.7373 140.942 72.4944 139.969C72.2515 138.997 71.7072 138.054 70.8615 137.14C70.0157 136.227 69.0917 135.435 68.0893 134.765C67.0657 134.083 65.7491 133.313 64.1396 132.455C63.0172 131.856 62.0367 131.374 61.1981 131.009C60.3496 130.611 59.4623 130.26 58.5361 129.956C57.5888 129.642 56.7452 129.464 56.0055 129.423C55.2657 129.382 54.5069 129.453 53.729 129.637C52.9413 129.788 52.2298 130.102 51.5945 130.58C50.9381 131.045 50.2718 131.683 49.5956 132.492C48.9195 133.301 48.2709 134.288 47.6498 135.453L45.5155 139.455ZM50.0704 137.111C50.6463 136.03 51.2858 135.188 51.9888 134.584C52.6706 133.968 53.363 133.562 54.0661 133.366C54.7691 133.17 55.5957 133.175 56.5458 133.383C57.4748 133.579 58.3692 133.866 59.229 134.242C60.0789 134.587 61.1286 135.092 62.378 135.758C63.6275 136.425 64.6426 137.02 65.4234 137.545C66.1942 138.038 66.9305 138.621 67.6322 139.294C68.3128 139.956 68.7674 140.634 68.9962 141.327C69.225 142.02 69.2843 142.827 69.1743 143.748C69.0431 144.657 68.6895 145.651 68.1136 146.731L66.1318 150.448L48.0886 140.827L50.0704 137.111Z" fill="black"/>
    <path d="M81.2626 130.133L92.3893 115.393L87.3037 111.554L85.6769 113.709L88.4353 115.791L82.4706 123.693L75.3162 118.292L81.0856 110.649L78.7296 108.871L72.9601 116.514L66.1505 111.373L71.6814 104.046L74.3535 106.063L75.9802 103.908L70.9807 100.135L60.2878 114.3L62.2416 115.775L63.543 114.051L80.6101 126.934L79.3087 128.658L81.2626 130.133Z" fill="black"/>
    <path d="M100.115 106.882L98.296 105.036C100.788 105.479 103.196 104.554 105.521 102.263C107.64 100.174 108.715 98.2222 108.746 96.4065C108.776 94.5569 107.915 92.7432 106.164 90.9653C104.546 89.3243 103 88.5068 101.523 88.5129C100.047 88.4851 98.2087 89.1844 96.009 90.6108L93.5277 92.2473C92.0271 93.2206 90.8865 93.7044 90.1059 93.6986C89.3255 93.659 88.472 93.169 87.5455 92.2288C86.4506 91.1177 85.8984 90.0444 85.889 89.0091C85.8797 87.9738 86.5588 86.7824 87.9263 85.4347C90.4563 82.9416 92.919 82.6881 95.3143 84.6743L97.2118 82.8045L92.234 77.753L90.3365 79.6229L91.9536 81.2639C89.7166 80.8402 87.4954 81.7149 85.2902 83.888C83.2389 85.9094 82.2321 87.8113 82.2699 89.5935C82.3249 91.3589 83.2199 93.122 84.955 94.8827C86.5721 96.5238 88.1102 97.3837 89.5691 97.4623C91.0451 97.524 92.8575 96.85 95.0062 95.4402L97.5644 93.7279C98.9969 92.788 100.137 92.3212 100.986 92.3275C101.851 92.3168 102.79 92.8244 103.8 93.85C104.845 94.9099 105.295 95.9824 105.151 97.0675C105.008 98.1526 104.252 99.3689 102.884 100.717C101.431 102.148 99.9835 102.885 98.5406 102.925C97.081 102.948 95.6855 102.318 94.3542 101.036L92.4567 102.906L98.2178 108.752L100.115 106.882Z" fill="black"/>
    <path d="M103.905 71.1125L105.788 69.6636L118.828 86.611L116.945 88.06L118.438 90.0001L125.143 84.8409L123.65 82.9008L121.767 84.3498L108.726 67.4023L110.61 65.9533L109.117 64.0132L102.412 69.1724L103.905 71.1125Z" fill="black"/>
    <path d="M135.733 49.9464L137.613 48.8824L146.302 64.234L125.974 52.6569L120.617 55.6892L121.823 57.8196L123.702 56.7557L134.235 75.3656L132.356 76.4295L133.561 78.5599L140.548 74.6056L139.342 72.4752L137.462 73.5391L128.791 58.2188L149.101 69.7646L152.579 67.7963L140.84 47.0559L142.72 45.992L141.514 43.8616L134.527 47.8159L135.733 49.9464Z" fill="black"/>
    <path d="M170.601 48.6782L174.429 47.3023L175.513 50.3175C175.945 51.9472 175.879 53.3229 175.313 54.4444C174.747 55.5659 173.549 56.4554 171.719 57.1129C170.793 57.4457 169.97 57.6394 169.251 57.6941C168.531 57.7489 167.872 57.6541 167.274 57.4099C166.691 57.135 166.174 56.7978 165.725 56.3983C165.275 55.9988 164.832 55.4056 164.396 54.6186C163.983 53.8235 163.612 53.0389 163.283 52.2646C162.953 51.4903 162.57 50.4934 162.131 49.2738C161.628 47.8734 161.248 46.7094 160.991 45.7816C160.726 44.8312 160.555 43.8597 160.479 42.867C160.395 41.8517 160.489 41.0144 160.762 40.3552C161.027 39.6734 161.487 39.0364 162.141 38.4442C162.818 37.8439 163.721 37.3409 164.85 36.935C166.793 36.237 168.334 36.2315 169.473 36.9186C170.605 37.5831 171.575 38.8283 172.384 40.6542L174.891 39.7532L172.018 31.7579L169.477 32.671L170.256 34.8393C168.539 33.4672 166.348 33.26 163.683 34.2178C162.034 34.8104 160.695 35.521 159.667 36.3496C158.653 37.1475 157.907 38.0151 157.427 38.9524C156.963 39.859 156.741 40.946 156.763 42.2133C156.785 43.4805 156.947 44.7483 157.25 46.0167C157.545 47.2624 158.009 48.7661 158.642 50.5278C159.177 52.0185 159.662 53.2598 160.095 54.2518C160.52 55.2212 161.025 56.2002 161.609 57.1887C162.217 58.169 162.845 58.9249 163.495 59.4564C164.16 59.9572 164.932 60.3681 165.813 60.6893C166.685 60.9878 167.674 61.0787 168.78 60.9619C169.908 60.8369 171.172 60.5228 172.573 60.0196C175.486 58.9725 177.252 57.2157 177.871 54.7493L179.314 57.0615L181.143 56.404L176.65 43.9028L169.773 46.3744L170.601 48.6782Z" fill="black"/>
    <path d="M211.042 23.466L205.793 47.9902L204.147 48.1652L204.405 50.5995L211.816 49.8118L211.557 47.3775L209.409 47.6059L210.605 41.8311L220.163 40.815L222.583 46.2055L220.435 46.4338L220.694 48.8681L228.14 48.0766L227.881 45.6423L226.198 45.8211L215.911 22.9484L211.042 23.466ZM213.831 26.5364L218.96 38.0105L211.264 38.8286L213.831 26.5364Z" fill="black"/>
    <path d="M248.436 37.7534L252.498 37.9709L252.327 41.1704C252.093 42.8403 251.498 44.0822 250.541 44.8962C249.584 45.7102 248.135 46.0652 246.194 45.9612C245.211 45.9086 244.377 45.7678 243.693 45.5389C243.008 45.3099 242.437 44.9669 241.981 44.5099C241.55 44.0302 241.205 43.519 240.946 42.9763C240.686 42.4337 240.509 41.7151 240.412 40.8207C240.34 39.9276 240.302 39.0603 240.299 38.2189C240.296 37.3776 240.329 36.3098 240.399 35.0157C240.478 33.5298 240.58 32.3095 240.703 31.3547C240.827 30.376 241.047 29.4143 241.362 28.4698C241.678 27.5014 242.09 26.7663 242.598 26.2648C243.107 25.7392 243.778 25.3305 244.61 25.0386C245.467 24.748 246.495 24.6348 247.693 24.699C249.754 24.8094 251.176 25.4023 251.96 26.4777C252.745 27.5292 253.156 29.0534 253.193 31.0502L255.853 31.1927L256.308 22.7088L253.611 22.5644L253.488 24.8652C252.438 22.9342 250.499 21.893 247.671 21.7416C245.922 21.6479 244.412 21.7834 243.143 22.148C241.899 22.49 240.874 22.9999 240.069 23.6778C239.288 24.333 238.663 25.2489 238.191 26.4253C237.719 27.6018 237.377 28.8332 237.164 30.1197C236.952 31.3822 236.796 32.9481 236.696 34.8174C236.611 36.3991 236.576 37.7311 236.59 38.8134C236.606 39.8718 236.691 40.9699 236.846 42.1079C237.026 43.2471 237.312 44.1877 237.705 44.9298C238.123 45.6492 238.675 46.3277 239.362 46.9653C240.05 47.579 240.927 48.0466 241.991 48.3679C243.079 48.6906 244.366 48.8917 245.852 48.9713C248.944 49.1369 251.253 48.203 252.78 46.1698L253.213 48.8607L255.154 48.9647L255.864 35.6997L248.567 35.3089L248.436 37.7534Z" fill="black"/>
    <path d="M266.327 50.3878L284.398 54.1942L285.711 47.959L283.069 47.4025L282.357 50.7843L272.67 48.7439L274.517 39.9723L283.887 41.946L284.496 39.0574L275.125 37.0837L276.884 28.7349L285.867 30.6269L285.177 33.9031L287.819 34.4595L289.11 28.33L271.743 24.6721L271.238 27.0675L273.352 27.5127L268.945 48.4376L266.831 47.9924L266.327 50.3878Z" fill="black"/>
    <path d="M317.113 40.3027L319.125 41.0884L312.708 57.5199L308.849 34.4473L303.115 32.2079L302.224 34.4882L304.236 35.2739L296.457 55.1929L294.445 54.4071L293.555 56.6874L301.033 59.6078L301.923 57.3275L299.911 56.5417L306.315 40.1438L310.188 63.1829L313.91 64.6365L322.579 42.4373L324.591 43.223L325.482 40.9427L318.004 38.0224L317.113 40.3027Z" fill="black"/>
    <path d="M351.623 55.4055L350.463 57.3543C350.315 55.1157 349.014 53.2658 346.56 51.8047C345.117 50.9453 343.775 50.3839 342.535 50.1205C341.295 49.8572 340.188 49.8404 339.214 50.07C338.239 50.2997 337.269 50.8257 336.305 51.6481C335.34 52.4704 334.459 53.4119 333.659 54.4724C332.873 55.5123 332.001 56.8365 331.043 58.445C330.355 59.5998 329.78 60.6122 329.318 61.4822C328.889 62.3439 328.489 63.2508 328.117 64.2029C327.746 65.1549 327.516 66.0098 327.428 66.7674C327.34 67.525 327.353 68.3009 327.467 69.0949C327.602 69.9011 327.886 70.6431 328.321 71.3208C328.755 71.9984 329.35 72.6879 330.106 73.3892C330.861 74.0905 331.796 74.7726 332.909 75.4356C334.353 76.2951 335.647 76.8422 336.792 77.0771C337.95 77.2913 338.991 77.1849 339.915 76.7578C340.86 76.343 341.676 75.7949 342.361 75.1134C343.066 74.4442 343.829 73.5156 344.648 72.3274L342.123 70.6566C341.104 72.2282 340.006 73.2507 338.831 73.7239C337.667 74.1765 336.209 73.8809 334.456 72.8373C333.425 72.2234 332.629 71.5675 332.067 70.8697C331.537 70.1636 331.195 69.4712 331.041 68.7926C330.907 68.1262 330.989 67.3089 331.286 66.3407C331.583 65.3724 331.94 64.4677 332.357 63.6267C332.795 62.7979 333.419 61.703 334.229 60.3419C334.99 59.0634 335.66 58.0095 336.237 57.1802C336.847 56.3426 337.506 55.5892 338.211 54.92C338.917 54.2508 339.601 53.8061 340.263 53.5857C340.957 53.3569 341.715 53.305 342.534 53.4298C343.387 53.5463 344.287 53.8869 345.236 54.4517C346.968 55.4831 347.984 56.6609 348.285 57.9852C348.586 59.3096 348.26 60.8891 347.307 62.724L349.565 64.0684L353.912 56.7684L351.623 55.4055Z" fill="black"/>
    <path d="M351.519 87.4849L358.415 93.0979L359.961 91.1993L357.95 89.5631L362.154 84.3977L376.838 77.3638L378.178 78.4546L379.723 76.556L374.055 71.9429L372.51 73.8415L373.962 75.0232L363.003 80.4466L366.088 68.6148L367.512 69.7738L369.057 67.8752L363.389 63.2621L361.844 65.1607L363.184 66.2515L359.279 82.0571L355.075 87.2225L353.064 85.5863L351.519 87.4849Z" fill="black"/>
</svg>
