<svg viewBox="0 0 2350 2351" fill="none" xmlns="http://www.w3.org/2000/svg">
    <path d="M1611.42 1794.16L1627.65 1784.28L1623.91 1778.13L1616.53 1782.62L1569.33 1705.15L1576.71 1700.65L1572.97 1694.51L1539.14 1715.1C1532.99 1718.84 1528.21 1722.71 1524.79 1726.7C1521.38 1730.69 1519.14 1734.58 1518.08 1738.37C1516.93 1742.21 1516.93 1746.54 1518.06 1751.36C1519.12 1756.22 1520.69 1760.83 1522.78 1765.18C1524.91 1769.61 1527.88 1774.94 1531.67 1781.17C1534.82 1786.34 1537.63 1790.58 1540.11 1793.91C1542.55 1797.37 1545.28 1800.65 1548.3 1803.76C1551.37 1806.95 1554.38 1809.22 1557.33 1810.57C1560.34 1811.99 1563.71 1812.92 1567.45 1813.34C1571.2 1813.76 1575.24 1813.21 1579.6 1811.68C1583.92 1810.29 1588.66 1808.02 1593.83 1804.87L1611.42 1794.16ZM1589.41 1797.62C1583.75 1801.06 1578.66 1803.04 1574.13 1803.54C1569.53 1804.1 1565.26 1803.1 1561.34 1800.54C1557.42 1797.98 1553.99 1794.84 1551.06 1791.12C1548.03 1787.46 1544.53 1782.34 1540.53 1775.78C1536.54 1769.22 1533.6 1763.76 1531.73 1759.39C1529.77 1755.08 1528.56 1750.59 1528.08 1745.94C1527.61 1741.28 1528.67 1737.03 1531.28 1733.2C1533.81 1729.41 1537.9 1725.8 1543.56 1722.35L1561.15 1711.64L1607 1786.91L1589.41 1797.62Z" fill="#EF476F"/>
    <path d="M1434.86 1877.51L1425.26 1880.6L1397.37 1794.28L1406.96 1791.19L1404.75 1784.33L1375.69 1793.7L1377.91 1800.56L1387.5 1797.46L1415.4 1883.78L1405.8 1886.88L1408.02 1893.73L1437.07 1884.36L1434.86 1877.51Z" fill="#EF476F"/>
    <path d="M1253.58 1866.31L1237.22 1867.64L1236 1852.86C1235.17 1836.94 1243.17 1828.29 1260.01 1826.91C1264.42 1826.55 1268.23 1826.63 1271.45 1827.14C1274.68 1827.74 1277.42 1828.91 1279.68 1830.65C1281.86 1832.5 1283.66 1834.47 1285.09 1836.57C1286.41 1838.68 1287.53 1841.67 1288.43 1845.54C1289.33 1849.51 1290.02 1853.17 1290.49 1856.5C1290.87 1859.94 1291.3 1864.57 1291.78 1870.41C1292.3 1876.72 1292.59 1881.95 1292.64 1886.09C1292.61 1890.33 1292.18 1894.55 1291.38 1898.76C1290.57 1903.06 1289.22 1906.45 1287.3 1908.92C1285.39 1911.48 1282.68 1913.63 1279.16 1915.36C1275.65 1917.09 1271.3 1918.17 1266.14 1918.59C1257.24 1919.32 1250.79 1917.63 1246.79 1913.53C1242.7 1909.53 1240.06 1903.77 1238.86 1896.26L1231.11 1896.89L1233.67 1927.89L1241.42 1927.26L1240.51 1916.21C1246.01 1924.52 1254.79 1928.19 1266.85 1927.2C1273.64 1926.65 1279.41 1925.31 1284.14 1923.19C1288.79 1921.17 1292.44 1918.61 1295.07 1915.51C1297.71 1912.5 1299.65 1908.53 1300.88 1903.62C1302.11 1898.7 1302.8 1893.63 1302.95 1888.42C1303.01 1883.31 1302.73 1877.03 1302.11 1869.56C1301.66 1864.01 1301.23 1859.43 1300.83 1855.8C1300.35 1852.27 1299.65 1848.43 1298.72 1844.27C1297.8 1840.1 1296.71 1836.73 1295.43 1834.13C1294.17 1831.64 1292.51 1829.12 1290.47 1826.59C1288.35 1824.17 1285.89 1822.34 1283.09 1821.13C1280.2 1820.02 1276.81 1819.18 1272.91 1818.64C1268.91 1818 1264.37 1817.89 1259.3 1818.3C1246.1 1819.38 1237.25 1824.83 1232.76 1834.63L1230.19 1822.71L1224.31 1823.19L1228.63 1875.57L1254.18 1873.48L1253.58 1866.31Z" fill="#EF476F"/>
    <path d="M1096.43 1919.05L1086.46 1917.55L1099.83 1827.83L1109.8 1829.32L1110.86 1822.2L1080.67 1817.67L1079.61 1824.79L1089.58 1826.29L1076.21 1916.02L1066.24 1914.52L1065.18 1921.65L1095.37 1926.17L1096.43 1919.05Z" fill="#EF476F"/>
    <path d="M912.162 1857.69L904.347 1879.06L974.382 1904.73L982.197 1883.36L974.626 1880.59L969.729 1893.98L947.15 1885.7L977.867 1801.72L988.683 1805.68L991.156 1798.92L959.789 1787.42L957.316 1794.18L968.132 1798.15L937.416 1882.13L914.837 1873.86L919.733 1860.47L912.162 1857.69Z" fill="#EF476F"/>
    <path d="M769.069 1811L852.413 1750.1L857.812 1753.94L861.981 1748.07L841.089 1733.22L836.92 1739.09L843.962 1744.09L821.293 1760.84L787.96 1737.15L796.309 1710.22L803.234 1715.14L807.404 1709.27L786.512 1694.42L782.342 1700.29L787.859 1704.22L757.684 1802.9L769.069 1811ZM768.688 1799.6L785.27 1745.66L814.026 1766.1L768.688 1799.6Z" fill="#EF476F"/>
    <path d="M633.364 1690.11L627.84 1683.46L697.603 1625.47L703.126 1632.11L708.663 1627.51L669.353 1580.23L651.857 1594.77L657.013 1600.97L667.975 1591.86L689.978 1618.32L621.212 1675.49L613.847 1666.63L608.31 1671.23L627.827 1694.71L633.364 1690.11Z" fill="#EF476F"/>
    <path d="M468.843 1439.61L474.281 1457.82L481.181 1455.77L478.71 1447.49L565.656 1421.6L568.127 1429.87L575.028 1427.82L563.7 1389.87C561.64 1382.97 559.114 1377.37 556.122 1373.05C553.13 1368.73 549.934 1365.58 546.534 1363.58C543.107 1361.5 538.919 1360.39 533.972 1360.26C528.996 1360.04 524.14 1360.39 519.402 1361.3C514.573 1362.23 508.662 1363.74 501.669 1365.83C495.873 1367.55 491.051 1369.19 487.205 1370.74C483.239 1372.22 479.369 1374.02 475.596 1376.15C471.73 1378.3 468.77 1380.63 466.715 1383.15C464.569 1385.69 462.817 1388.72 461.461 1392.23C460.104 1395.74 459.611 1399.79 459.981 1404.39C460.232 1408.92 461.223 1414.08 462.953 1419.88L468.843 1439.61ZM471.096 1417.45C469.201 1411.11 468.583 1405.68 469.242 1401.18C469.874 1396.58 471.926 1392.72 475.397 1389.58C478.869 1386.44 482.777 1383.92 487.12 1382.03C491.436 1380.04 497.274 1377.95 504.635 1375.76C511.995 1373.57 518.026 1372.12 522.727 1371.43C527.4 1370.63 532.049 1370.6 536.674 1371.33C541.299 1372.05 545.135 1374.17 548.184 1377.67C551.205 1381.07 553.663 1385.95 555.557 1392.3L561.448 1412.03L476.986 1437.18L471.096 1417.45Z" fill="#EF476F"/>
    <path d="M527.993 1236.35L528.087 1165.79L505.335 1165.74L505.325 1173.8L519.581 1173.83L519.522 1217.32L478.914 1217.23L478.97 1175.76L470.33 1175.74L470.274 1217.21L431.394 1217.13L431.449 1176.52L445.705 1176.55L445.716 1168.49L422.964 1168.44L422.873 1236.12L430.073 1236.13L430.084 1227.49L520.804 1227.69L520.793 1236.33L527.993 1236.35Z" fill="#EF476F"/>
    <path d="M537.618 1053.6L525.679 1050.31C536.485 1047.22 543.669 1039.19 547.23 1026.23C550.435 1014.57 550.279 1005.71 546.764 999.664C543.274 993.524 536.809 989.153 527.369 986.551C518.761 984.179 512.014 984.461 507.126 987.395C502.145 990.305 497.284 996.583 492.542 1006.23L486.787 1017.94C483.609 1024.43 480.525 1028.41 477.533 1029.88C474.542 1031.34 470.177 1031.28 464.439 1029.7C457.406 1027.76 452.596 1024.8 450.011 1020.8C447.426 1016.8 447.291 1010.59 449.605 1002.16C453.573 987.723 461.92 981.26 474.645 982.776L476.705 975.278L451.994 968.468L449.934 975.966L460.762 978.95C450.874 981.602 444.188 989.269 440.704 1001.95C437.702 1012.87 438.09 1021.25 441.867 1027.07C445.644 1032.89 452.299 1037.11 461.831 1039.74C470.531 1042.14 477.24 1041.99 481.96 1039.31C486.705 1036.54 491.422 1030.42 496.113 1020.96L501.906 1009.11C505.033 1002.8 508.236 998.755 511.514 996.969C514.792 995.184 519.624 995.171 526.01 996.931C532.303 998.666 536.54 1001.73 538.72 1006.11C540.926 1010.4 540.859 1016.81 538.519 1025.32C536.103 1034.12 532.122 1040.09 526.577 1043.24C520.939 1046.37 514.624 1047.07 507.632 1045.34L505.572 1052.84L535.558 1061.1L537.618 1053.6Z" fill="#EF476F"/>
    <path d="M499.812 859.526L504.45 850.576L584.972 892.366L580.334 901.316L586.724 904.632L600.772 877.528L594.381 874.212L589.743 883.161L509.221 841.371L513.859 832.422L507.469 829.105L493.422 856.209L499.812 859.526Z" fill="#EF476F"/>
    <path d="M610.747 688.966L616.503 682.523L676.741 736.351L575.832 717.246L562.402 732.281L567.771 737.079L573.527 730.635L641.173 791.084L635.417 797.528L640.786 802.325L659.205 781.705L653.836 776.908L648.08 783.351L587.95 729.619L688.751 748.628L696.425 740.036L623.41 674.79L629.166 668.347L623.797 663.549L605.379 684.169L610.747 688.966Z" fill="#EF476F"/>
    <path d="M811.679 585.631L825.895 577.422L833.316 590.264C840.874 604.301 837.337 615.545 822.706 623.994C818.882 626.202 815.406 627.766 812.278 628.685C809.102 629.522 806.119 629.636 803.33 629.03C800.575 628.293 798.105 627.28 795.92 625.993C793.817 624.657 791.532 622.429 789.064 619.31C786.547 616.107 784.366 613.099 782.518 610.285C780.706 607.341 778.335 603.334 775.404 598.264C772.234 592.778 769.741 588.176 767.925 584.458C766.144 580.608 764.72 576.609 763.652 572.459C762.536 568.225 762.316 564.583 762.992 561.532C763.62 558.398 765.154 555.295 767.592 552.224C770.031 549.153 773.495 546.322 777.984 543.729C785.716 539.265 792.266 538.032 797.634 540.031C803.038 541.899 807.887 545.973 812.18 552.251L818.914 548.362L803.351 521.432L796.617 525.32L802.165 534.921C793.637 529.757 784.136 530.2 773.661 536.249C767.758 539.657 763.12 543.334 759.744 547.278C756.404 551.091 754.208 554.965 753.154 558.899C752.053 562.749 751.997 567.161 752.986 572.133C753.974 577.105 755.516 581.979 757.611 586.755C759.741 591.401 762.679 596.965 766.426 603.448C769.212 608.269 771.559 612.235 773.468 615.345C775.411 618.325 777.689 621.499 780.301 624.868C782.914 628.237 785.35 630.822 787.609 632.621C789.82 634.337 792.388 635.903 795.313 637.318C798.272 638.602 801.276 639.195 804.325 639.098C807.408 638.869 810.829 638.169 814.586 636.997C818.475 635.86 822.623 634.019 827.029 631.475C838.501 624.85 844.17 616.144 844.035 605.358L851.459 615.039L856.572 612.087L830.273 566.579L808.076 579.397L811.679 585.631Z" fill="#EF476F"/>
    <path d="M1010.28 448.598L1018.74 446.833L1035.3 525.902L965.388 450.61L945.653 454.727L947.129 461.774L955.587 460.01L974.181 548.804L965.723 550.568L967.199 557.615L994.264 551.968L992.788 544.921L984.33 546.686L967.802 467.758L1037.68 542.91L1048.96 540.557L1028.89 444.716L1037.35 442.951L1035.87 435.904L1008.81 441.551L1010.28 448.598Z" fill="#EF476F"/>
    <path d="M1325.21 437.09L1269.72 524.108L1263.29 522.493L1261.54 529.478L1286.4 535.725L1288.15 528.741L1279.77 526.635L1294.8 502.795L1334.46 512.763L1336.47 540.886L1328.23 538.815L1326.48 545.799L1351.34 552.047L1353.09 545.063L1346.53 543.413L1338.76 440.495L1325.21 437.09ZM1329.71 447.575L1333.87 503.855L1299.66 495.256L1329.71 447.575Z" fill="#EF476F"/>
    <path d="M1515.63 571.331L1529.7 579.778L1522.08 592.499C1513.47 605.92 1501.93 608.284 1487.44 599.589C1483.65 597.317 1480.6 595.036 1478.28 592.747C1476 590.376 1474.46 587.823 1473.63 585.09C1472.94 582.323 1472.63 579.672 1472.69 577.136C1472.84 574.649 1473.68 571.57 1475.21 567.898C1476.79 564.143 1478.36 560.775 1479.92 557.795C1481.62 554.781 1483.97 550.763 1486.98 545.741C1490.24 540.306 1493.05 535.893 1495.42 532.501C1497.92 529.076 1500.73 525.889 1503.84 522.941C1507 519.911 1510.08 517.952 1513.07 517.063C1516.12 516.091 1519.57 515.926 1523.44 516.568C1527.31 517.211 1531.47 518.866 1535.91 521.533C1543.57 526.128 1547.82 531.257 1548.68 536.922C1549.67 542.554 1548.46 548.77 1545.06 555.571L1551.72 559.573L1567.72 532.895L1561.05 528.894L1555.35 538.404C1555.72 528.441 1550.73 520.347 1540.35 514.123C1534.51 510.615 1529.05 508.343 1523.96 507.305C1519 506.235 1514.55 506.194 1510.6 507.182C1506.7 508.088 1502.82 510.179 1498.95 513.456C1495.08 516.733 1491.57 520.447 1488.41 524.597C1485.38 528.713 1481.94 533.983 1478.09 540.405C1475.23 545.181 1472.9 549.158 1471.11 552.336C1469.45 555.481 1467.78 559.014 1466.1 562.933C1464.42 566.852 1463.34 570.236 1462.87 573.085C1462.44 575.851 1462.32 578.857 1462.5 582.101C1462.81 585.312 1463.75 588.227 1465.31 590.845C1467.01 593.43 1469.28 596.082 1472.13 598.799C1475.01 601.648 1478.63 604.381 1483 606.999C1494.36 613.817 1504.72 614.549 1514.08 609.197L1509.22 620.387L1514.28 623.425L1541.31 578.346L1519.33 565.155L1515.63 571.331Z" fill="#EF476F"/>
    <path d="M1611.98 692.789L1659.73 744.738L1676.48 729.34L1671.03 723.403L1660.53 733.051L1631.1 701.034L1661 673.552L1689.06 704.085L1695.42 698.238L1667.36 667.705L1695.98 641.393L1723.46 671.29L1712.97 680.938L1718.42 686.875L1735.17 671.477L1689.37 621.649L1684.07 626.522L1689.92 632.883L1623.13 694.278L1617.28 687.917L1611.98 692.789Z" fill="#EF476F"/>
    <path d="M1847.07 849.563L1850.72 857.395L1777.48 891.475L1834.87 806.322L1826.36 788.048L1819.83 791.085L1823.48 798.917L1741.23 837.19L1737.58 829.358L1731.05 832.396L1742.73 857.457L1749.25 854.42L1745.61 846.588L1818.72 812.568L1761.46 897.66L1766.32 908.103L1855.1 866.793L1858.75 874.624L1865.28 871.587L1853.6 846.525L1847.07 849.563Z" fill="#EF476F"/>
    <path d="M1923.84 1082.24L1913.27 1083.6C1921.03 1077.67 1924.1 1068.46 1922.48 1055.99C1921.45 1048 1919.41 1041.58 1916.37 1036.74C1913.42 1031.9 1909.24 1028.46 1903.85 1026.45C1898.47 1024.52 1892.72 1023.47 1886.6 1023.29C1880.49 1023.2 1872.77 1023.76 1863.44 1024.96C1857.25 1025.75 1852.03 1026.57 1847.79 1027.41C1843.54 1028.24 1839.23 1029.38 1834.87 1030.81C1830.52 1032.33 1827.03 1034.19 1824.41 1036.36C1821.88 1038.53 1819.61 1041.19 1817.6 1044.35C1815.68 1047.5 1814.48 1051.29 1813.98 1055.7C1813.5 1060.22 1813.64 1065.43 1814.41 1071.33C1815.19 1077.42 1816.57 1082.47 1818.54 1086.48C1820.61 1090.47 1823.26 1093.42 1826.51 1095.33C1829.85 1097.22 1833.35 1098.46 1837.01 1099.06C1840.77 1099.64 1845.24 1099.79 1850.43 1099.51L1849.77 1091.03C1842.3 1091.7 1836.25 1090.54 1831.6 1087.56C1826.97 1084.67 1824.1 1078.89 1822.98 1070.23C1822.27 1064.8 1822.4 1060.14 1823.35 1056.24C1824.39 1052.33 1825.88 1049.24 1827.81 1046.96C1829.74 1044.68 1832.83 1042.73 1837.07 1041.12C1841.32 1039.51 1845.33 1038.32 1849.1 1037.55C1852.88 1036.87 1858.11 1036.1 1864.77 1035.24C1871.06 1034.43 1876.26 1033.91 1880.39 1033.67C1884.63 1033.51 1888.87 1033.69 1893.1 1034.22C1897.43 1034.82 1900.87 1035.93 1903.4 1037.54C1906.04 1039.23 1908.29 1041.7 1910.17 1044.94C1912.04 1048.19 1913.29 1052.24 1913.91 1057.09C1915.08 1066.14 1913.82 1072.83 1910.12 1077.18C1906.53 1081.61 1900.82 1084.62 1892.99 1086.2L1893.99 1093.92L1924.84 1089.95L1923.84 1082.24Z" fill="#EF476F"/>
    <path d="M1824 1227.69L1819.75 1257.92L1826.88 1258.93L1828.28 1248.95L1857.51 1253.08L1914.08 1290.31L1913.2 1296.58L1920.33 1297.59L1923.77 1273.07L1916.64 1272.06L1915.54 1279.9L1868.36 1249.38L1922.12 1233.13L1921.01 1240.97L1928.14 1241.98L1931.59 1217.45L1924.46 1216.44L1923.6 1222.58L1858.95 1242.81L1829.72 1238.68L1831.13 1228.7L1824 1227.69Z" fill="#EF476F"/>
</svg>
