<svg viewBox="0 0 309 428" fill="none" xmlns="http://www.w3.org/2000/svg">
    <path d="M0 0H309V427H0V0Z" fill="#EF476F"/>
    <path d="M127.432 152.502C134.331 152.502 139.923 146.91 139.923 140.011C139.923 133.113 134.331 127.521 127.432 127.521C120.534 127.521 114.942 133.113 114.942 140.011C114.942 146.91 120.534 152.502 127.432 152.502Z" fill="#CC504C"/>
    <path d="M127.432 145.674C130.449 145.674 132.896 143.228 132.896 140.21C132.896 137.193 130.449 134.747 127.432 134.747C124.414 134.747 121.968 137.193 121.968 140.21C121.968 143.228 124.414 145.674 127.432 145.674Z" fill="white"/>
    <path d="M252.027 181.907C252.027 187.949 250.837 193.932 248.525 199.514C246.213 205.096 242.824 210.168 238.551 214.441C234.279 218.713 229.207 222.102 223.625 224.414C218.042 226.727 212.059 227.917 206.017 227.917C199.975 227.917 193.992 226.727 188.41 224.414C182.828 222.102 177.756 218.713 173.484 214.441C169.211 210.168 165.822 205.096 163.51 199.514C161.198 193.932 160.008 187.949 160.008 181.907C160.008 180.963 160.008 180.012 160.096 179.076L151.02 178.958C151.02 179.449 151.02 179.941 151.02 180.432C151.015 188.766 148.748 196.941 144.46 204.086C140.171 211.231 134.023 217.078 126.671 221.001C119.319 224.924 111.04 226.777 102.717 226.362C94.3942 225.947 86.3404 223.279 79.4155 218.643C72.4907 214.008 66.9548 207.578 63.399 200.042C59.8431 192.505 58.4009 184.145 59.2262 175.853C60.0516 167.56 63.1135 159.648 68.085 152.96C73.0566 146.272 79.7511 141.06 87.4538 137.881C83.897 133.454 81.6026 128.149 80.8133 122.526C80.024 116.902 80.769 111.17 82.9697 105.936C85.1704 100.701 88.7448 96.1585 93.315 92.7884C97.8852 89.4184 103.281 87.3461 108.932 86.7907C105.5 82.6826 103.619 77.5003 103.616 72.1472C103.634 65.1877 106.407 58.5183 111.329 53.5978C116.25 48.6773 122.921 45.9063 129.88 45.8907H158.061C156.102 40.8529 155.576 35.3712 156.541 30.0528C157.506 24.7344 159.924 19.7869 163.528 15.7583C167.132 11.7298 171.78 8.77739 176.959 7.22826C182.137 5.67913 187.643 5.5937 192.867 6.98144C198.092 8.36919 202.829 11.1759 206.557 15.0908C210.284 19.0056 212.854 23.8757 213.984 29.1616C215.113 34.4475 214.757 39.9429 212.955 45.039C211.154 50.1352 207.977 54.6331 203.776 58.0346C206.461 62.2134 207.887 67.0768 207.883 72.044C207.882 77.5284 205.921 82.8319 202.353 86.9972C207.925 87.8213 213.174 90.1244 217.554 93.6668C221.933 97.2091 225.282 101.861 227.253 107.138C229.224 112.415 229.743 118.123 228.757 123.669C227.772 129.215 225.317 134.395 221.649 138.67C230.54 141.885 238.225 147.759 243.66 155.495C249.095 163.231 252.017 172.453 252.027 181.907Z" fill="#C78B88"/>
    <path d="M134.083 106.802H176.517C182.03 106.802 187.316 108.992 191.214 112.89C195.112 116.788 197.302 122.075 197.302 127.587V169.733C197.302 180.174 193.155 190.187 185.772 197.57C178.39 204.952 168.377 209.1 157.936 209.1H151.816C141.469 209.1 131.546 204.989 124.23 197.673C116.914 190.357 112.804 180.434 112.804 170.087V128.059C112.81 122.419 115.054 117.012 119.044 113.027C123.034 109.041 128.443 106.802 134.083 106.802Z" fill="white"/>
    <path d="M223.131 283.969V427.049H201.357C201.402 426.726 201.424 426.401 201.424 426.075V304.415C201.361 302.365 200.503 300.421 199.031 298.993C197.559 297.565 195.589 296.767 193.538 296.767C191.487 296.767 189.517 297.565 188.045 298.993C186.573 300.421 185.715 302.365 185.652 304.415V426.075C185.652 426.401 185.674 426.726 185.719 427.049H124.38C124.424 426.726 124.446 426.401 124.446 426.075V304.415C124.449 302.9 123.999 301.419 123.156 300.161V300.109C122.229 298.679 120.864 297.588 119.265 297C117.666 296.411 115.919 296.356 114.287 296.844C112.654 297.331 111.223 298.335 110.209 299.704C109.194 301.073 108.651 302.733 108.66 304.437V426.097C108.659 426.423 108.681 426.748 108.726 427.071H86.9746V284.028C86.9682 274.242 89.8681 264.675 95.3065 256.54C99.1561 250.767 104.156 245.852 109.994 242.103C117.976 236.966 127.268 234.237 136.76 234.243H173.346C182.824 234.224 192.108 236.932 200.089 242.044C204.819 245.075 209.006 248.878 212.477 253.296C219.377 262.03 223.131 272.837 223.131 283.969Z" fill="#F7AAAC"/>
    <path d="M122.389 164.461C122.75 165.877 123.126 167.256 123.591 168.613C124.376 171.09 125.304 173.52 126.37 175.89C131.635 187.614 139.642 195.953 148.896 198.504C150.857 199.053 152.884 199.331 154.92 199.33C157.144 199.327 159.355 198.997 161.482 198.349C170.33 195.665 178.058 187.629 183.226 176.414C184.139 174.449 184.949 172.439 185.652 170.39V170.39C186.321 168.477 186.918 166.511 187.444 164.491" stroke="#EC008C" stroke-miterlimit="10"/>
    <path d="M209.534 140.144C206.054 144.235 201.957 147.758 197.391 150.585C193.129 153.166 188.019 155.201 182.533 155.201C167.617 155.201 156.653 143.337 155.525 140.144C155.34 139.613 163.333 130.131 174.26 126.496C176.924 125.586 179.718 125.11 182.533 125.088C187.731 125.03 192.853 126.334 197.391 128.87C203.208 132.151 207.02 136.863 209.534 140.144Z" fill="#231F20"/>
    <path d="M182.533 152.634C189.432 152.634 195.024 147.042 195.024 140.144C195.024 133.245 189.432 127.653 182.533 127.653C175.635 127.653 170.043 133.245 170.043 140.144C170.043 147.042 175.635 152.634 182.533 152.634Z" fill="#CC504C"/>
    <path d="M185.652 170.39V170.382" stroke="#ED1C24" stroke-width="3" stroke-miterlimit="10"/>
    <path d="M201.786 116.97H201.778" stroke="#ED1C24" stroke-width="3" stroke-miterlimit="10"/>
    <path d="M201.786 116.97H201.778" stroke="#ED1C24" stroke-miterlimit="10"/>
    <path d="M182.533 145.807C185.55 145.807 187.997 143.361 187.997 140.344C187.997 137.326 185.55 134.88 182.533 134.88C179.515 134.88 177.069 137.326 177.069 140.344C177.069 143.361 179.515 145.807 182.533 145.807Z" fill="white"/>
    <path d="M101.036 140.011C104.516 144.102 108.613 147.625 113.18 150.452C117.441 153.033 122.551 155.068 128.037 155.068C142.953 155.068 153.917 143.204 155.045 140.011C155.23 139.48 147.237 129.998 136.31 126.363C133.646 125.453 130.852 124.977 128.037 124.955C122.839 124.897 117.717 126.201 113.18 128.738C107.362 132.019 103.55 136.73 101.036 140.011Z" fill="#231F20"/>
    <path d="M128.044 152.502C134.942 152.502 140.534 146.91 140.534 140.011C140.534 133.113 134.942 127.521 128.044 127.521C121.145 127.521 115.553 133.113 115.553 140.011C115.553 146.91 121.145 152.502 128.044 152.502Z" fill="#CC504C"/>
    <path d="M128.044 145.674C131.062 145.674 133.508 143.228 133.508 140.21C133.508 137.193 131.062 134.747 128.044 134.747C125.027 134.747 122.581 137.193 122.581 140.21C122.581 143.228 125.027 145.674 128.044 145.674Z" fill="white"/>
    <path d="M174.209 204.255H135.484V234.199H174.209V204.255Z" fill="white"/>
    <path d="M127.381 242.044L107.185 277.023L97.0836 259.526L95.314 256.466C99.1636 250.694 104.164 245.779 110.002 242.029L127.381 242.044Z" fill="#CC504C"/>
    <path d="M212.491 253.296L208.886 259.541L198.784 277.023L188.683 259.526L178.581 242.029H200.089C204.825 245.063 209.018 248.872 212.491 253.296Z" fill="#CC504C"/>
    <path d="M154.846 277.038H134.643L144.745 259.541L154.846 242.044L164.948 259.541L175.049 277.038H154.846Z" fill="#CC504C"/>
    <path d="M171.982 313.167L157.692 327.45L152.465 307.932L147.237 288.422L166.747 293.65L186.264 298.878L171.982 313.167Z" fill="#CC504C"/>
    <path d="M145.71 358.543L125.773 361.787L132.925 342.896L140.085 323.999L152.87 339.645L165.648 355.291L145.71 358.543Z" fill="#CC504C"/>
    <path d="M108.674 368.497V399.495L101.036 396.295L86.9746 390.411V385.013L98.477 376.254L108.674 368.497Z" fill="#CC504C"/>
    <path d="M201.424 310.498L208.886 297.573L218.987 280.076L223.131 287.25V315.07H201.424V310.498Z" fill="#CC504C"/>
    <path d="M179.547 344.21L185.652 340.685V347.734L179.547 344.21Z" fill="#CC504C"/>
    <path d="M214.541 324.006V364.412L201.424 356.84V331.579L214.541 324.006Z" fill="#CC504C"/>
    <path d="M123.156 299.689V300.131C122.23 298.703 120.867 297.613 119.27 297.024C117.673 296.435 115.929 296.379 114.297 296.863C112.666 297.348 111.235 298.347 110.219 299.713C109.203 301.078 108.656 302.735 108.659 304.437V311.575L105.71 309.894L88.1689 299.881L105.6 289.676L123.038 279.471L123.156 299.689Z" fill="#CC504C"/>
    <path d="M176.038 381.422L186.928 398.433L166.747 399.362L146.566 400.291L155.857 382.351L165.14 364.412L176.038 381.422Z" fill="#CC504C"/>
    <path d="M174.681 404.45L164.823 422.087L162.05 427.049H147.407L144.62 422.367L134.282 405.01L154.478 404.73L174.681 404.45Z" fill="#CC504C"/>
    <path d="M109.537 351.317L108.674 351.354L89.3562 352.246L86.9746 352.357V318.771L87.7414 317.289L98.6393 334.299L108.674 349.968L109.537 351.317Z" fill="#CC504C"/>
    <path d="M122.389 164.461C122.75 165.877 123.126 167.256 123.591 168.613C124.376 171.09 125.304 173.52 126.37 175.89C131.635 187.614 139.642 195.953 148.896 198.504C150.857 199.053 152.884 199.331 154.92 199.33C157.144 199.327 159.355 198.997 161.482 198.349C170.33 195.665 178.058 187.629 183.226 176.414C184.139 174.449 184.949 172.439 185.652 170.39V170.39C186.321 168.477 186.918 166.511 187.444 164.491" stroke="#ED1C24" stroke-width="14" stroke-miterlimit="10"/>
</svg>
