<svg viewBox="0 0 49 39" fill="none" xmlns="http://www.w3.org/2000/svg">
    <path d="M15.3921 39C33.8835 39 43.9989 23.9918 43.9989 10.9995C43.9989 10.5795 43.9989 10.1535 43.9806 9.73356C45.9499 8.33709 47.6496 6.60818 49 4.62783C47.1604 5.42234 45.211 5.94598 43.2149 6.18175C45.3174 4.95073 46.8922 3.01382 47.6464 0.73104C45.671 1.87735 43.509 2.68206 41.2549 3.10991C39.7396 1.52907 37.7343 0.481807 35.5498 0.130345C33.3652 -0.221117 31.1233 0.142836 29.1713 1.16583C27.2194 2.18882 25.6662 3.81376 24.7525 5.78895C23.8388 7.76414 23.6155 9.97935 24.1172 12.0914C20.1198 11.8951 16.2092 10.8779 12.6391 9.10582C9.06889 7.33374 5.91885 4.84635 3.39325 1.80498C2.1111 3.97412 1.71982 6.53993 2.29885 8.9814C2.87789 11.4229 4.38383 13.5569 6.51087 14.9503C4.91697 14.8972 3.3581 14.478 1.96 13.7263V13.8613C1.96275 16.1337 2.76638 18.3354 4.23505 20.0943C5.70372 21.8532 7.74735 23.0615 10.0205 23.5148C9.15768 23.7477 8.26639 23.8637 7.37144 23.8598C6.74051 23.8617 6.11085 23.8044 5.49106 23.6888C6.13353 25.6449 7.38452 27.3551 9.06882 28.58C10.7531 29.8049 12.7863 30.483 14.8838 30.5195C11.3207 33.2607 6.91942 34.7474 2.38875 34.7402C1.59042 34.7435 0.792646 34.6984 0 34.6052C4.59839 37.4769 9.93872 39.0016 15.3921 39V39Z"
          fill="black"/>
</svg>
