<svg viewBox="0 0 71 51" fill="none" xmlns="http://www.w3.org/2000/svg">
    <path d="M70.0979 6.80729C67.5201 7.7705 64.7148 8.46372 61.8253 8.73371C64.8253 7.18992 67.0718 4.75098 68.1435 1.87448C65.3284 3.32506 62.2444 4.34222 59.0285 4.88087C57.6843 3.63618 56.0587 2.64461 54.2528 1.96794C52.4469 1.29126 50.4995 0.943989 48.5319 0.947754C40.571 0.947754 34.1686 6.5373 34.1686 13.3965C34.1686 14.3597 34.3034 15.323 34.5224 16.2497C22.6022 15.7097 11.9708 10.7769 4.90289 3.22444C3.61504 5.12981 2.94017 7.2993 2.94847 9.5072C2.94847 13.8271 5.48416 17.6361 9.35088 19.8763C7.07216 19.7986 4.84681 19.2561 2.85581 18.2929V18.4461C2.85581 24.4954 7.7924 29.5084 14.3717 30.6614C13.1364 30.9393 11.8656 31.0815 10.5892 31.0846C9.65415 31.0846 8.76961 31.0043 7.87664 30.8949C9.69627 35.8277 14.9951 39.4105 21.3048 39.5273C16.3682 42.8767 10.1849 44.8469 3.47078 44.8469C2.26611 44.8469 1.15412 44.8104 0 44.6936C6.36871 48.2327 13.9252 50.2759 22.063 50.2759C48.4814 50.2759 62.9373 31.3181 62.9373 14.8632C62.9373 14.3233 62.9373 13.7833 62.8952 13.2433C65.692 11.4701 68.1435 9.2737 70.0979 6.80729Z" fill="black"/>
</svg>
